<?xml version="1.0" standalone="no"?>
<!DOCTYPE svg PUBLIC "-//W3C//DTD SVG 1.1//EN" "http://www.w3.org/Graphics/SVG/1.1/DTD/svg11.dtd" >
<svg xmlns="http://www.w3.org/2000/svg" xmlns:xlink="http://www.w3.org/1999/xlink" version="1.1">
<metadata>
Created by FontForge 20170731 at Mon Apr  4 18:24:17 2016
 By Aleksey,,,
Copyright 2010 The Amirim Project Authors, with Reserved Font Name 'Source'. Source is a trademark of Adobe Systems Incorporated in the United States and/or other countries.
</metadata>
<defs>
<font id="Assistant-SemiBold" horiz-adv-x="506" >
  <font-face 
    font-family="Assistant SemiBold"
    font-weight="600"
    font-stretch="normal"
    units-per-em="1000"
    panose-1="0 0 7 0 0 0 0 0 0 0"
    ascent="750"
    descent="-250"
    x-height="489"
    cap-height="655"
    bbox="-455 -267 1163 1021"
    underline-thickness="50"
    underline-position="-200"
    unicode-range="U+0020-FB4B"
  />
<missing-glyph horiz-adv-x="664" 
d="M86 0v660h492v-660h-492zM330 395h4l47 94l56 102h-211l56 -102zM161 123l118 217l-118 219v-436zM502 123v436l-117 -219zM216 68h230l-63 116l-49 101h-4l-50 -101z" />
    <glyph glyph-name="fi" unicode="fi" horiz-adv-x="561" 
d="M94 551q0 79 38 124.5t116 45.5q44 0 86 -17l-20 -76q-27 12 -54 12q-65 0 -65 -88v-63h99v-81h-99v-408h-101v408h-66v76l66 5v62zM434 581q-27 0 -44.5 17t-17.5 44q0 26 17.5 43t44.5 17t44.5 -17t17.5 -43q0 -27 -17.5 -44t-44.5 -17zM383 0v489h101v-489h-101z" />
    <glyph glyph-name="fl" unicode="fl" horiz-adv-x="570" 
d="M94 551q0 79 38 124.5t116 45.5q44 0 86 -17l-20 -76q-27 12 -54 12q-65 0 -65 -88v-63h99v-81h-99v-408h-101v408h-66v76l66 5v62zM526 73l13 -76q-23 -9 -55 -9q-101 0 -101 126v595h101v-601q0 -37 24 -37q9 0 18 2z" />
    <glyph glyph-name=".notdef" horiz-adv-x="664" 
d="M86 0v660h492v-660h-492zM330 395h4l47 94l56 102h-211l56 -102zM161 123l118 217l-118 219v-436zM502 123v436l-117 -219zM216 68h230l-63 116l-49 101h-4l-50 -101z" />
    <glyph glyph-name=".null" horiz-adv-x="0" 
 />
    <glyph glyph-name="nonmarkingreturn" horiz-adv-x="333" 
 />
    <glyph glyph-name="space" unicode=" " horiz-adv-x="200" 
 />
    <glyph glyph-name="exclam" unicode="!" horiz-adv-x="304" 
d="M118 208l-14 357l-3 105h102l-3 -105l-14 -357h-68zM152 -12q-29 0 -48.5 20t-19.5 51t19.5 51.5t48.5 20.5t48.5 -20.5t19.5 -51.5t-19.5 -51t-48.5 -20z" />
    <glyph glyph-name="quotedbl" unicode="&#x22;" horiz-adv-x="458" 
d="M102 409l-20 176l-3 104h105l-3 -104l-20 -176h-59zM296 409l-20 176l-3 104h105l-3 -104l-20 -176h-59z" />
    <glyph glyph-name="numbersign" unicode="#" 
d="M89 0l24 199h-78v68h86l17 137h-83v68h91l23 178h62l-22 -178h124l23 178h62l-22 -178h80v-68h-88l-17 -137h85v-68h-93l-24 -199h-63l24 199h-124l-24 -199h-63zM184 267h124l17 137h-124z" />
    <glyph glyph-name="dollar" unicode="$" 
d="M446 171q0 -71 -41 -119t-114 -60v-102h-71v99q-47 5 -93 25.5t-79 51.5l46 69q78 -64 151 -64q51 0 77 24.5t26 68.5q0 40 -28.5 69t-68.5 49t-80.5 42t-69 60t-28.5 90q0 68 40 114.5t107 57.5v101h71v-100q79 -9 144 -77l-53 -59q-30 29 -56 42t-62 13
q-43 0 -68 -23.5t-25 -63.5q0 -36 28.5 -61.5t68.5 -44.5t80.5 -41t69 -62.5t28.5 -98.5z" />
    <glyph glyph-name="percent" unicode="%" horiz-adv-x="829" 
d="M185 263q-69 0 -111 55t-42 153q0 97 42 151.5t111 54.5t111 -54.5t42 -151.5q0 -98 -42 -153t-111 -55zM202 -12l359 679h64l-359 -679h-64zM185 323q36 0 57.5 37.5t21.5 110.5t-21.5 109.5t-57.5 36.5t-57.5 -36.5t-21.5 -109.5t21.5 -110.5t57.5 -37.5zM644 -12
q-69 0 -111 55t-42 153q0 97 42 151.5t111 54.5t111 -54.5t42 -151.5q0 -98 -42 -153t-111 -55zM644 48q36 0 57.5 37.5t21.5 110.5t-21.5 109.5t-57.5 36.5t-57.5 -36.5t-21.5 -109.5t21.5 -110.5t57.5 -37.5z" />
    <glyph glyph-name="ampersand" unicode="&#x26;" horiz-adv-x="626" 
d="M610 71l-26 -83q-73 18 -155 73q-83 -73 -194 -73q-92 0 -148.5 52t-56.5 131q0 61 33.5 104.5t92.5 83.5q-42 82 -42 148q0 68 44 114t115 46q64 0 101 -37t37 -98q0 -40 -23.5 -78t-49.5 -59.5t-72 -54.5q67 -93 157 -164q59 78 87 182h93q-40 -135 -113 -230
q69 -44 120 -57zM200 508q0 -47 28 -103q50 32 76.5 60.5t26.5 65.5q0 66 -57 66q-33 0 -53.5 -25t-20.5 -64zM127 177q0 -49 34 -79.5t86 -30.5q56 0 114 45q-98 84 -163 178q-71 -57 -71 -113z" />
    <glyph glyph-name="quotesingle" unicode="'" horiz-adv-x="264" 
d="M102 409l-20 176l-3 104h105l-3 -104l-20 -176h-59z" />
    <glyph glyph-name="parenleft" unicode="(" horiz-adv-x="315" 
d="M211 -177q-132 215 -132 455t132 455l63 -28q-112 -189 -112 -427t112 -427z" />
    <glyph glyph-name="parenright" unicode=")" horiz-adv-x="315" 
d="M104 -177l-63 28q112 189 112 427t-112 427l63 28q132 -215 132 -455t-132 -455z" />
    <glyph glyph-name="asterisk" unicode="*" horiz-adv-x="429" 
d="M141 400l-46 33l57 97l-100 43l18 53l106 -25l10 111h57l10 -110l107 24l17 -53l-100 -43l57 -97l-46 -33l-73 86z" />
    <glyph glyph-name="plus" unicode="+" 
d="M214 101v192h-180v74h180v192h78v-192h180v-74h-180v-192h-78z" />
    <glyph glyph-name="comma" unicode="," horiz-adv-x="264" 
d="M136 131q37 0 58 -29t21 -80q0 -69 -38 -121t-107 -78l-23 57q95 39 97 122q-3 -1 -10 -1q-28 0 -48 17.5t-20 47.5q0 29 20.5 47t49.5 18z" />
    <glyph glyph-name="hyphen" unicode="-" horiz-adv-x="317" 
d="M42 214v75h234v-75h-234z" />
    <glyph glyph-name="period" unicode="." horiz-adv-x="264" 
d="M132 -12q-29 0 -48.5 20t-19.5 51t19.5 51.5t48.5 20.5t48.5 -20.5t19.5 -51.5t-19.5 -51t-48.5 -20z" />
    <glyph glyph-name="slash" unicode="/" horiz-adv-x="347" 
d="M11 -160l248 870h70l-248 -870h-70z" />
    <glyph glyph-name="zero" unicode="0" 
d="M253 -12q-99 0 -155 87t-56 246t56 243.5t155 84.5t155 -85t56 -243q0 -159 -56 -246t-155 -87zM253 68q114 0 114 253q0 248 -114 248t-114 -248q0 -253 114 -253z" />
    <glyph glyph-name="one" unicode="1" horiz-adv-x="463" 
d="M45 0v83h144v440h-117v64q85 15 142 50h76v-554h128v-83h-373z" />
    <glyph glyph-name="two" unicode="2" 
d="M39 0v59q82 80 125.5 125.5t87.5 98.5t62 93t18 76q0 54 -29 85t-83 31q-65 0 -129 -73l-57 56q90 98 199 98q90 0 143.5 -52.5t53.5 -139.5q0 -42 -17 -85.5t-55.5 -95t-73.5 -91t-98 -105.5q68 6 107 6h168v-86h-422z" />
    <glyph glyph-name="three" unicode="3" 
d="M238 -12q-132 0 -213 90l49 65q72 -72 156 -72q55 0 89.5 28.5t34.5 76.5q0 56 -44.5 86t-149.5 30v75q172 0 172 109q0 43 -27 67.5t-74 24.5q-67 0 -131 -62l-53 63q89 80 188 80q90 0 144.5 -44t54.5 -121q0 -105 -113 -149v-4q60 -15 97.5 -56.5t37.5 -103.5
q0 -84 -62.5 -133.5t-155.5 -49.5z" />
    <glyph glyph-name="four" unicode="4" 
d="M479 248v-79h-83v-169h-95v169h-283v68l261 400h117v-389h83zM120 248h181v162q0 40 5 128h-4q-7 -14 -15.5 -30t-19.5 -34.5t-17 -30.5z" />
    <glyph glyph-name="five" unicode="5" 
d="M238 -12q-126 0 -214 88l48 65q72 -70 154 -70q57 0 93.5 36t36.5 96t-34 94t-91 34q-49 0 -105 -37l-50 32l20 311h331v-86h-243l-15 -169q43 23 90 23q87 0 143 -50.5t56 -148.5q0 -100 -64.5 -159t-155.5 -59z" />
    <glyph glyph-name="six" unicode="6" 
d="M283 392q85 0 134.5 -50.5t49.5 -146.5q0 -92 -56.5 -149.5t-138.5 -57.5q-99 0 -162.5 79t-63.5 230q0 177 70.5 264.5t176.5 87.5q97 0 163 -70l-55 -62q-41 49 -103 49q-68 0 -111.5 -59.5t-46.5 -191.5q28 35 67 56t76 21zM271 66q44 0 73 35t29 94t-28 91t-80 32
q-68 0 -122 -79q8 -86 41.5 -129.5t86.5 -43.5z" />
    <glyph glyph-name="seven" unicode="7" 
d="M172 0q8 176 48 299.5t132 251.5h-308v86h420v-62q-107 -134 -143.5 -254.5t-45.5 -320.5h-103z" />
    <glyph glyph-name="eight" unicode="8" 
d="M254 -12q-92 0 -152.5 49.5t-60.5 125.5q0 105 117 167v4q-88 62 -88 148q0 75 53 121t134 46q84 0 134 -47.5t50 -123.5q0 -45 -25.5 -84.5t-60.5 -64.5v-4q110 -64 110 -165q0 -74 -58.5 -123t-152.5 -49zM297 354q59 56 59 118q0 46 -27 75t-74 29q-41 0 -67.5 -25.5
t-26.5 -68.5q0 -47 34.5 -74t101.5 -54zM256 61q51 0 82.5 28t31.5 74q0 18 -4.5 33t-18.5 28.5t-23.5 21.5t-35 20t-36.5 16.5t-44 18.5q-77 -54 -77 -128q0 -49 35.5 -80.5t89.5 -31.5z" />
    <glyph glyph-name="nine" unicode="9" 
d="M233 649q99 0 162.5 -79t63.5 -230q0 -177 -70.5 -264.5t-176.5 -87.5q-97 0 -163 70l55 62q42 -49 103 -49q69 0 112 59.5t46 191.5q-28 -36 -67 -56.5t-76 -20.5q-85 0 -134.5 50.5t-49.5 146.5q0 92 56.5 149.5t138.5 57.5zM240 319q69 0 122 79q-8 86 -41 129.5
t-87 43.5q-44 0 -73 -35t-29 -94t28 -91t80 -32z" />
    <glyph glyph-name="colon" unicode=":" horiz-adv-x="264" 
d="M132 338q-29 0 -48.5 20t-19.5 51t19.5 51.5t48.5 20.5t48.5 -20.5t19.5 -51.5t-19.5 -51t-48.5 -20zM132 -12q-29 0 -48.5 20t-19.5 51t19.5 51.5t48.5 20.5t48.5 -20.5t19.5 -51.5t-19.5 -51t-48.5 -20z" />
    <glyph glyph-name="semicolon" unicode=";" horiz-adv-x="264" 
d="M132 338q-29 0 -48.5 20t-19.5 51t19.5 51.5t48.5 20.5t48.5 -20.5t19.5 -51.5t-19.5 -51t-48.5 -20zM136 131q37 0 58 -29t21 -80q0 -69 -38 -121t-107 -78l-23 57q95 39 97 122q-3 -1 -10 -1q-28 0 -48 17.5t-20 47.5q0 29 20.5 47t49.5 18z" />
    <glyph glyph-name="less" unicode="&#x3c;" 
d="M472 123l-438 171v76l438 171v-86l-335 -121v-4l335 -121v-86z" />
    <glyph glyph-name="equal" unicode="=" 
d="M34 403v74h438v-74h-438zM34 183v74h438v-74h-438z" />
    <glyph glyph-name="greater" unicode="&#x3e;" 
d="M34 123v86l335 121v4l-335 121v86l438 -171v-76z" />
    <glyph glyph-name="question" unicode="?" horiz-adv-x="436" 
d="M158 208q-7 51 12.5 97t46.5 75t51 65t24 67q0 39 -23 63t-65 24q-59 0 -108 -54l-57 52q76 85 177 85q79 0 126.5 -43t47.5 -120q0 -35 -16 -68t-38.5 -59t-44.5 -53t-35 -60.5t-9 -70.5h-89zM204 -12q-29 0 -48.5 20t-19.5 51t19.5 51.5t48.5 20.5t48.5 -20.5
t19.5 -51.5t-19.5 -51t-48.5 -20z" />
    <glyph glyph-name="at" unicode="@" horiz-adv-x="863" 
d="M410 -160q-155 0 -257.5 95.5t-102.5 268.5q0 198 125 323.5t302 125.5q153 0 244.5 -93.5t91.5 -245.5q0 -124 -64.5 -196t-143.5 -72q-43 0 -72 20t-35 56h-2q-24 -30 -57 -49t-64 -19q-55 0 -89.5 38.5t-34.5 105.5q0 88 56 162t139 74q53 0 79 -49h2l12 41h65
l-41 -206q-27 -108 52 -108q50 0 90 55.5t40 143.5q0 123 -71 200t-205 77q-138 0 -242.5 -107t-104.5 -274q0 -142 83.5 -222t212.5 -80q83 0 159 43l25 -58q-87 -50 -192 -50zM395 121q40 0 85 55l27 152q-23 38 -59 38q-51 0 -84.5 -51.5t-33.5 -110.5q0 -83 65 -83z" />
    <glyph glyph-name="A" unicode="A" horiz-adv-x="552" 
d="M444 0l-56 187h-228l-56 -187h-104l217 655h118l217 -655h-108zM185 268h179l-26 88q-20 63 -62 218h-4q-32 -123 -61 -218z" />
    <glyph glyph-name="B" unicode="B" horiz-adv-x="593" 
d="M86 0v655h203q230 0 230 -161q0 -49 -25 -88t-68 -54v-4q59 -13 94 -52.5t35 -103.5q0 -94 -68.5 -143t-181.5 -49h-219zM188 381h89q142 0 142 99q0 51 -34 73t-105 22h-92v-194zM188 80h105q162 0 162 117q0 107 -162 107h-105v-224z" />
    <glyph glyph-name="C" unicode="C" horiz-adv-x="574" 
d="M341 -12q-127 0 -209 90.5t-82 247.5q0 156 84 248.5t212 92.5q109 0 185 -82l-55 -66q-57 59 -128 59q-86 0 -139.5 -67.5t-53.5 -181.5q0 -117 51.5 -184.5t138.5 -67.5q82 0 145 70l55 -64q-81 -95 -204 -95z" />
    <glyph glyph-name="D" unicode="D" horiz-adv-x="621" 
d="M86 0v655h170q152 0 233.5 -83t81.5 -242t-81 -244.5t-229 -85.5h-175zM188 83h61q106 0 161.5 62.5t55.5 184.5q0 242 -217 242h-61v-489z" />
    <glyph glyph-name="E" unicode="E" horiz-adv-x="533" 
d="M86 0v655h387v-86h-285v-184h241v-86h-241v-213h295v-86h-397z" />
    <glyph glyph-name="F" unicode="F" horiz-adv-x="503" 
d="M86 0v655h388v-86h-286v-201h243v-86h-243v-282h-102z" />
    <glyph glyph-name="G" unicode="G" horiz-adv-x="623" 
d="M353 -12q-135 0 -219 90t-84 248q0 156 86 248.5t220 92.5q114 0 194 -82l-55 -66q-59 59 -136 59q-93 0 -148.5 -67t-55.5 -182q0 -118 54 -185t154 -67q68 0 104 33v154h-130v84h222v-283q-34 -35 -88 -56t-118 -21z" />
    <glyph glyph-name="H" unicode="H" horiz-adv-x="658" 
d="M86 0v655h102v-268h282v268h102v-655h-102v298h-282v-298h-102z" />
    <glyph glyph-name="I" unicode="I" horiz-adv-x="274" 
d="M86 0v655h102v-655h-102z" />
    <glyph glyph-name="J" unicode="J" horiz-adv-x="488" 
d="M216 -12q-128 0 -189 109l71 51q40 -71 107 -71q50 0 74 31t24 101v446h102v-455q0 -94 -47 -153t-142 -59z" />
    <glyph glyph-name="K" unicode="K" horiz-adv-x="589" 
d="M86 0v655h102v-311h3l250 311h114l-203 -253l236 -402h-113l-185 322l-102 -124v-198h-102z" />
    <glyph glyph-name="L" unicode="L" horiz-adv-x="495" 
d="M86 0v655h102v-569h278v-86h-380z" />
    <glyph glyph-name="M" unicode="M" horiz-adv-x="737" 
d="M86 0v655h118l120 -333q8 -23 23 -68t21 -64h4q7 20 21 64.5t22 67.5l118 333h118v-655h-94v326q0 49 13 202h-4l-52 -151l-115 -313h-63l-115 313l-52 151h-4q13 -153 13 -202v-326h-92z" />
    <glyph glyph-name="N" unicode="N" horiz-adv-x="652" 
d="M86 0v655h105l218 -387l69 -138h4q-13 174 -13 217v308h97v-655h-105l-218 388l-69 137h-4q13 -177 13 -214v-311h-97z" />
    <glyph glyph-name="O" unicode="O" horiz-adv-x="670" 
d="M335 -12q-127 0 -206 92.5t-79 249.5q0 156 78.5 246.5t206.5 90.5t206.5 -90.5t78.5 -246.5q0 -157 -79 -249.5t-206 -92.5zM335 77q82 0 131 69t49 184t-49 181.5t-131 66.5t-131 -66.5t-49 -181.5t49 -184t131 -69z" />
    <glyph glyph-name="P" unicode="P" horiz-adv-x="575" 
d="M86 0v655h198q250 0 250 -198q0 -103 -67.5 -155.5t-178.5 -52.5h-100v-249h-102zM188 331h90q155 0 155 126q0 63 -38.5 89.5t-120.5 26.5h-86v-242z" />
    <glyph glyph-name="Q" unicode="Q" horiz-adv-x="670" 
d="M621 -76l19 -77q-40 -17 -100 -17q-91 0 -156.5 44t-96.5 118q-108 17 -172.5 107t-64.5 231q0 156 78.5 246.5t206.5 90.5t206.5 -90.5t78.5 -246.5q0 -137 -61 -226t-164 -110q44 -80 156 -80q40 0 70 10zM155 330q0 -119 49 -188.5t131 -69.5t131 69.5t49 188.5
q0 115 -49 181.5t-131 66.5t-131 -66.5t-49 -181.5z" />
    <glyph glyph-name="R" unicode="R" horiz-adv-x="582" 
d="M559 0h-115l-147 265h-109v-265h-102v655h214q236 0 236 -190q0 -73 -36.5 -119.5t-100.5 -66.5zM188 573v-226h100q147 0 147 118q0 58 -36.5 83t-110.5 25h-100z" />
    <glyph glyph-name="S" unicode="S" horiz-adv-x="540" 
d="M273 -12q-138 0 -233 97l60 70q78 -78 175 -78q58 0 91 25.5t33 68.5q0 22 -7 37.5t-24 28t-31 20t-43 19.5l-91 40q-133 55 -133 171q0 77 60.5 128.5t153.5 51.5q118 0 198 -82l-53 -65q-66 58 -145 58q-51 0 -81 -23t-30 -62q0 -20 8 -35.5t26.5 -27.5t31.5 -18.5
t40 -17.5l91 -39q64 -26 98.5 -67.5t34.5 -108.5q0 -81 -63 -136t-167 -55z" />
    <glyph glyph-name="T" unicode="T" horiz-adv-x="542" 
d="M220 0v569h-193v86h488v-86h-193v-569h-102z" />
    <glyph glyph-name="U" unicode="U" horiz-adv-x="651" 
d="M326 -12q-243 0 -243 292v375h102v-381q0 -197 141 -197q144 0 144 197v381h98v-375q0 -292 -242 -292z" />
    <glyph glyph-name="V" unicode="V" horiz-adv-x="527" 
d="M204 0l-206 655h108l98 -340q9 -32 28 -102.5t32 -111.5h4q1 3 60 214l97 340h104l-205 -655h-120z" />
    <glyph glyph-name="W" unicode="W" horiz-adv-x="794" 
d="M154 0l-134 655h105l62 -342q24 -140 35 -210h4q19 95 44 210l85 342h90l85 -342q15 -68 45 -210h4q9 54 34 210l62 342h98l-130 -655h-125l-89 366q-18 84 -30 150h-4q-7 -38 -31 -150l-87 -366h-123z" />
    <glyph glyph-name="X" unicode="X" horiz-adv-x="529" 
d="M14 0l188 338l-176 317h113l80 -155q9 -17 26.5 -51.5t23.5 -46.5h4q27 62 45 98l77 155h108l-176 -322l188 -333h-113l-87 164q-34 66 -54 106h-4q-18 -40 -50 -106l-85 -164h-108z" />
    <glyph glyph-name="Y" unicode="Y" horiz-adv-x="490" 
d="M194 0v248l-197 407h109l77 -175q41 -99 61 -143h4q5 12 28 63.5t34 79.5l77 175h106l-197 -407v-248h-102z" />
    <glyph glyph-name="Z" unicode="Z" horiz-adv-x="540" 
d="M42 0v61l329 508h-299v86h425v-61l-329 -508h332v-86h-458z" />
    <glyph glyph-name="bracketleft" unicode="[" horiz-adv-x="315" 
d="M92 -152v860h188v-56h-112v-748h112v-56h-188z" />
    <glyph glyph-name="backslash" unicode="\" horiz-adv-x="347" 
d="M266 -160l-248 870h70l248 -870h-70z" />
    <glyph glyph-name="bracketright" unicode="]" horiz-adv-x="315" 
d="M35 -152v56h112v748h-112v56h188v-860h-188z" />
    <glyph glyph-name="asciicircum" unicode="^" 
d="M57 281l153 389h86l153 -389h-86l-60 162l-48 134h-4l-48 -134l-60 -162h-86z" />
    <glyph glyph-name="underscore" unicode="_" horiz-adv-x="500" 
d="M12 -130v63h476v-63h-476z" />
    <glyph glyph-name="grave" unicode="`" horiz-adv-x="546" 
d="M280 573l-164 154l70 67l145 -171z" />
    <glyph glyph-name="a" unicode="a" horiz-adv-x="511" 
d="M193 -12q-64 0 -104 38.5t-40 103.5q0 79 70 121.5t223 59.5q-2 108 -94 108q-62 0 -141 -50l-38 68q100 64 197 64q89 0 133 -53.5t44 -153.5v-294h-83l-8 56h-3q-81 -68 -156 -68zM224 68q54 0 118 58v121q-106 -13 -150.5 -40t-44.5 -70q0 -35 21 -52t56 -17z" />
    <glyph glyph-name="b" unicode="b" horiz-adv-x="559" 
d="M305 -12q-70 0 -136 63h-3l-9 -51h-80v709h101v-188l-3 -84q74 64 147 64q92 0 142.5 -67t50.5 -181q0 -121 -61.5 -193t-148.5 -72zM285 72q56 0 91 47.5t35 131.5q0 166 -116 166q-55 0 -117 -60v-240q52 -45 107 -45z" />
    <glyph glyph-name="c" unicode="c" horiz-adv-x="459" 
d="M276 -12q-102 0 -167.5 68.5t-65.5 187.5q0 118 70 187.5t171 69.5q80 0 143 -56l-50 -66q-44 39 -88 39q-63 0 -102.5 -48t-39.5 -126t38.5 -125.5t100.5 -47.5q55 0 107 45l42 -67q-69 -61 -159 -61z" />
    <glyph glyph-name="d" unicode="d" horiz-adv-x="560" 
d="M246 -12q-92 0 -146.5 68t-54.5 188q0 115 62 186t147 71q67 0 132 -55l-4 81v182h101v-709h-83l-8 55h-3q-67 -67 -143 -67zM270 72q59 0 112 60v240q-50 45 -108 45q-53 0 -89 -47t-36 -125q0 -83 31.5 -128t89.5 -45z" />
    <glyph glyph-name="e" unicode="e" horiz-adv-x="502" 
d="M465 270q0 -28 -4 -52h-323q7 -74 50.5 -112.5t105.5 -38.5q59 0 117 37l35 -64q-78 -52 -165 -52q-103 0 -170.5 69t-67.5 187q0 115 66.5 186t156.5 71q95 0 147 -62.5t52 -168.5zM140 288h237q0 64 -28 99t-81 35q-46 0 -82 -34t-46 -100z" />
    <glyph glyph-name="f" unicode="f" horiz-adv-x="306" 
d="M260 640q-65 0 -65 -88v-63h99v-81h-99v-408h-101v408h-66v76l66 5v62q0 79 38 124.5t116 45.5q44 0 86 -17l-20 -76q-27 12 -54 12z" />
    <glyph glyph-name="g" unicode="g" horiz-adv-x="513" 
d="M245 -220q-91 0 -147 33.5t-56 95.5q0 63 71 107v4q-44 28 -44 81t54 91v4q-27 21 -45.5 55t-18.5 75q0 80 55 127.5t134 47.5q38 0 71 -12h173v-76h-94q33 -35 33 -90q0 -78 -52 -123t-131 -45q-36 0 -69 15q-27 -24 -27 -52q0 -48 82 -48h91q175 0 175 -119
q0 -72 -70.5 -121.5t-184.5 -49.5zM248 220q40 0 66.5 29t26.5 77t-26.5 76t-66.5 28t-66.5 -28t-26.5 -76t26.5 -77t66.5 -29zM260 -153q62 0 102 26t40 62q0 30 -22.5 42t-68.5 12h-75q-37 0 -65 7q-43 -32 -43 -72q0 -36 35 -56.5t97 -20.5z" />
    <glyph glyph-name="h" unicode="h" horiz-adv-x="552" 
d="M77 0v709h101v-188l-4 -97q81 77 159 77q150 0 150 -193v-308h-101v295q0 63 -19.5 91t-63.5 28q-33 0 -59 -15.5t-62 -51.5v-347h-101z" />
    <glyph glyph-name="i" unicode="i" horiz-adv-x="255" 
d="M128 581q-27 0 -44.5 17t-17.5 44q0 26 17.5 43t44.5 17t44.5 -17t17.5 -43q0 -27 -17.5 -44t-44.5 -17zM77 0v489h101v-489h-101z" />
    <glyph glyph-name="j" unicode="j" horiz-adv-x="256" 
d="M129 581q-27 0 -44.5 17t-17.5 44q0 26 17.5 43t44.5 17t44.5 -17t17.5 -43q0 -27 -17.5 -44t-44.5 -17zM81 -39l1 528h101l-1 -527q0 -173 -146 -173q-43 0 -76 13l19 76q26 -8 44 -8q33 0 45.5 22.5t12.5 68.5z" />
    <glyph glyph-name="k" unicode="k" horiz-adv-x="510" 
d="M77 0v709h99v-459h3l193 239h111l-166 -198l185 -291h-110l-133 222l-83 -96v-126h-99z" />
    <glyph glyph-name="l" unicode="l" horiz-adv-x="264" 
d="M178 -12q-101 0 -101 126v595h101v-601q0 -37 24 -37q9 0 18 2l13 -76q-23 -9 -55 -9z" />
    <glyph glyph-name="m" unicode="m" horiz-adv-x="837" 
d="M77 0v489h83l8 -68h3q76 80 151 80q101 0 135 -90q85 90 159 90q150 0 150 -193v-308h-101v295q0 63 -19.5 91t-62.5 28q-50 0 -111 -67v-347h-101v295q0 63 -19.5 91t-62.5 28q-50 0 -111 -67v-347h-101z" />
    <glyph glyph-name="n" unicode="n" horiz-adv-x="554" 
d="M77 0v489h83l8 -68h3q82 80 162 80q150 0 150 -193v-308h-101v295q0 63 -19.5 91t-63.5 28q-33 0 -59 -15.5t-62 -51.5v-347h-101z" />
    <glyph glyph-name="o" unicode="o" horiz-adv-x="546" 
d="M273 -12q-95 0 -162.5 69.5t-67.5 186.5q0 118 67.5 187.5t162.5 69.5t162.5 -69.5t67.5 -187.5q0 -117 -67.5 -186.5t-162.5 -69.5zM273 71q58 0 92 47.5t34 125.5t-34.5 126t-91.5 48t-91.5 -48t-34.5 -126t34 -125.5t92 -47.5z" />
    <glyph glyph-name="p" unicode="p" horiz-adv-x="560" 
d="M77 -199v688h83l8 -54h3q79 66 151 66q92 0 142.5 -67t50.5 -182q0 -120 -61.5 -192t-148.5 -72q-64 0 -130 55l3 -83v-159h-101zM285 72q56 0 91 47.5t35 131.5q0 166 -116 166q-54 0 -117 -60v-240q53 -45 107 -45z" />
    <glyph glyph-name="q" unicode="q" horiz-adv-x="560" 
d="M382 -199v166l4 85q-66 -64 -140 -64q-92 0 -146.5 68t-54.5 188q0 115 62 186t147 71q73 0 137 -59h3l9 47h80v-688h-101zM270 72q59 0 112 60v240q-50 45 -108 45q-53 0 -89 -47t-36 -125q0 -83 31.5 -128t89.5 -45z" />
    <glyph glyph-name="r" unicode="r" horiz-adv-x="362" 
d="M77 0v489h83l8 -88h3q56 100 139 100q33 0 54 -10l-18 -88q-27 8 -49 8q-33 0 -65 -25.5t-54 -80.5v-305h-101z" />
    <glyph glyph-name="s" unicode="s" horiz-adv-x="426" 
d="M210 -12q-102 0 -184 68l48 65q71 -56 139 -56q42 0 64 18.5t22 47.5q0 21 -18.5 38.5t-36 25t-53.5 21.5q-30 11 -50.5 21.5t-43.5 27.5t-35 40.5t-12 52.5q0 63 47 103t127 40q86 0 158 -57l-47 -63q-58 43 -109 43q-39 0 -59.5 -17t-20.5 -44q0 -18 16 -33.5
t29.5 -21.5t49.5 -19q7 -3 10 -4q26 -9 42 -16t37.5 -20t34 -27.5t21.5 -36t9 -48.5q0 -64 -49 -106.5t-136 -42.5z" />
    <glyph glyph-name="t" unicode="t" horiz-adv-x="351" 
d="M241 -12q-148 0 -148 171v249h-71v76l76 5l12 135h84v-135h128v-81h-128v-249q0 -90 72 -90q23 0 53 12l18 -75q-54 -18 -96 -18z" />
    <glyph glyph-name="u" unicode="u" horiz-adv-x="551" 
d="M221 -12q-150 0 -150 193v308h101v-295q0 -63 19.5 -91t63.5 -28q34 0 60 17t58 57v340h101v-489h-83l-8 74h-3q-73 -86 -159 -86z" />
    <glyph glyph-name="v" unicode="v" horiz-adv-x="483" 
d="M185 0l-173 489h103l84 -264l43 -146h4l43 146l84 264h98l-169 -489h-117z" />
    <glyph glyph-name="w" unicode="w" horiz-adv-x="735" 
d="M156 0l-132 489h102l65 -266q4 -18 27 -139h4q19 89 32 139l69 266h94l70 -266q6 -22 33 -139h4q5 23 14 69t14 70l64 266h95l-127 -489h-121l-63 243q-4 16 -31 142h-4q-19 -97 -31 -143l-61 -242h-117z" />
    <glyph glyph-name="x" unicode="x" horiz-adv-x="466" 
d="M14 0l157 255l-146 234h109l59 -99l46 -82h4q21 41 41 82l52 99h105l-146 -245l157 -244h-109l-65 104q-30 54 -51 87h-4l-46 -87l-58 -104h-105z" />
    <glyph glyph-name="y" unicode="y" horiz-adv-x="483" 
d="M99 -205q-33 0 -61 10l19 79q23 -7 36 -7q72 0 103 93l10 33l-194 486h103l91 -253l45 -138h4q6 19 19 66.5t20 71.5l79 253h98l-180 -519q-31 -86 -75 -130.5t-117 -44.5z" />
    <glyph glyph-name="z" unicode="z" horiz-adv-x="435" 
d="M33 0v54l242 354h-215v81h342v-54l-242 -354h250v-81h-377z" />
    <glyph glyph-name="braceleft" unicode="{" horiz-adv-x="315" 
d="M230 -152q-64 0 -92 30t-28 106q0 37 4.5 95.5t4.5 90.5q0 33 -20 54.5t-66 22.5v62q46 1 66 22.5t20 53.5q0 33 -4.5 91.5t-4.5 95.5q0 76 28 106t92 30h50v-56h-24q-37 0 -50.5 -19t-13.5 -66q0 -28 2.5 -85t2.5 -91q0 -51 -14.5 -76.5t-49.5 -34.5v-4q34 -9 49 -35
t15 -76q0 -34 -2.5 -90.5t-2.5 -85.5q0 -47 13.5 -66t50.5 -19h24v-56h-50z" />
    <glyph glyph-name="bar" unicode="|" horiz-adv-x="249" 
d="M90 -250v1000h69v-1000h-69z" />
    <glyph glyph-name="braceright" unicode="}" horiz-adv-x="315" 
d="M35 -152v56h24q37 0 50.5 18.5t13.5 66.5q0 29 -2.5 85.5t-2.5 90.5q0 50 15 76t49 35v4q-34 9 -49 34.5t-15 76.5q0 34 2.5 91t2.5 85q0 48 -13.5 66.5t-50.5 18.5h-24v56h50q64 0 92 -30t28 -106q0 -37 -4.5 -95.5t-4.5 -91.5q0 -32 20 -53.5t66 -22.5v-62
q-46 -1 -66 -22.5t-20 -54.5q0 -32 4.5 -90.5t4.5 -95.5q0 -76 -28 -106t-92 -30h-50z" />
    <glyph glyph-name="asciitilde" unicode="~" 
d="M340 252q-34 0 -66 20.5t-59.5 41t-50.5 20.5q-43 0 -75 -60l-55 40q56 94 132 94q34 0 66 -20.5t59.5 -41t50.5 -20.5q43 0 75 60l55 -41q-56 -93 -132 -93z" />
    <glyph glyph-name="uni00A0" unicode="&#xa0;" horiz-adv-x="204" 
 />
    <glyph glyph-name="exclamdown" unicode="&#xa1;" horiz-adv-x="304" 
d="M152 358q-29 0 -48.5 20.5t-19.5 51.5t19.5 51t48.5 20t48.5 -20t19.5 -51t-19.5 -51.5t-48.5 -20.5zM101 -181l3 105l14 357h68l14 -357l3 -105h-102z" />
    <glyph glyph-name="cent" unicode="&#xa2;" 
d="M464 127q-60 -54 -138 -62v-100h-60v101q-94 12 -149.5 75.5t-55.5 167.5q0 101 57 164.5t148 77.5v103h60v-100q75 -5 129 -58l-48 -63q-38 34 -81 38v-323q48 4 95 43zM160 309q0 -60 28 -101.5t78 -54.5v311q-50 -13 -78 -54.5t-28 -100.5z" />
    <glyph glyph-name="sterling" unicode="&#xa3;" 
d="M191 86h275v-86h-414v62q50 26 78 71.5t28 100.5q0 20 -5 47h-100v62l67 4h15q-24 76 -24 112q0 87 53.5 138.5t140.5 51.5q96 0 160 -77l-57 -56q-42 50 -95 50q-49 0 -76.5 -30t-27.5 -81q0 -34 20 -108h156v-66h-141q4 -30 4 -48q0 -83 -57 -143v-4z" />
    <glyph glyph-name="currency" unicode="&#xa4;" 
d="M77 97l-52 54l63 64q-36 49 -36 114q0 67 35 115l-62 65l52 53l68 -69q49 33 108 33t108 -33l68 69l53 -53l-64 -65q36 -47 36 -115q0 -63 -36 -114l64 -64l-53 -54l-68 70q-48 -34 -108 -34q-59 0 -108 34zM253 206q46 0 77.5 34.5t31.5 88.5q0 55 -31.5 89.5
t-77.5 34.5t-77.5 -34.5t-31.5 -89.5q0 -54 31.5 -88.5t77.5 -34.5z" />
    <glyph glyph-name="yen" unicode="&#xa5;" 
d="M202 0v155h-159v54h159v62h-159v54h135l-158 312h105l70 -160q9 -20 27.5 -65t29.5 -69h4q11 25 30.5 70t27.5 64l70 160h102l-159 -312h136v-54h-160v-62h160v-54h-160v-155h-101z" />
    <glyph glyph-name="brokenbar" unicode="&#xa6;" horiz-adv-x="249" 
d="M90 486h69v-451v-23h-69v463v11z" />
    <glyph glyph-name="section" unicode="&#xa7;" 
d="M463 284q0 -81 -84 -131q28 -35 28 -80q0 -62 -46.5 -102.5t-123.5 -40.5q-113 0 -179 75l60 54q52 -52 119 -52q36 0 57 17.5t21 43.5q0 28 -28 49.5t-68 38t-80 36.5t-68 57t-28 89q0 80 83 129q-30 35 -30 82q0 59 42 98t117 39q89 0 162 -60l-48 -64q-54 47 -109 47
q-36 0 -54 -15.5t-18 -40.5q0 -26 28.5 -47t69 -38t80.5 -37.5t68.5 -58t28.5 -88.5zM130 345q0 -28 20 -50.5t44.5 -34.5t66 -30.5t63.5 -31.5q52 28 52 78q0 29 -20 52t-43.5 35t-66 30.5t-63.5 29.5q-53 -29 -53 -78z" />
    <glyph glyph-name="dieresis" unicode="&#xa8;" horiz-adv-x="546" 
d="M173 582q-24 0 -40 16t-16 40t15.5 40t40.5 16q24 0 40 -16t16 -40q0 -23 -16 -39.5t-40 -16.5zM373 582q-24 0 -40 16.5t-16 39.5q0 24 16 40t40 16q25 0 40.5 -16t15.5 -40t-16 -40t-40 -16z" />
    <glyph glyph-name="copyright" unicode="&#xa9;" horiz-adv-x="746" 
d="M373 -10q-136 0 -230.5 92.5t-94.5 241.5q0 148 94.5 239t230.5 91t230.5 -91t94.5 -239q0 -149 -94.5 -241.5t-230.5 -92.5zM373 37q115 0 193.5 80t78.5 207q0 126 -78.5 204.5t-193.5 78.5t-193.5 -78.5t-78.5 -204.5q0 -127 78.5 -207t193.5 -80zM382 126
q-80 0 -132.5 53.5t-52.5 143.5q0 85 55 137.5t132 52.5q70 0 127 -57l-40 -46q-41 39 -82 39q-52 0 -83 -35t-31 -91q0 -61 30 -97t80 -36q46 0 96 41l35 -50q-66 -55 -134 -55z" />
    <glyph glyph-name="ordfeminine" unicode="&#xaa;" horiz-adv-x="349" 
d="M134 381q-45 0 -72 27t-27 69q0 52 46.5 80.5t148.5 38.5q-2 65 -58 65q-42 0 -98 -33l-27 50q70 43 137 43q120 0 120 -138v-194h-59l-8 36h-4q-48 -44 -99 -44zM158 439q34 0 72 36v76q-123 -13 -123 -68q0 -44 51 -44z" />
    <glyph glyph-name="guillemotleft" unicode="&#xab;" horiz-adv-x="444" 
d="M182 63l-136 152v74l136 152l41 -34l-116 -155l116 -156zM349 63l-136 152v74l136 152l41 -34l-116 -155l116 -156z" />
    <glyph glyph-name="logicalnot" unicode="&#xac;" 
d="M394 101v192h-360v74h438v-266h-78z" />
    <glyph glyph-name="uni00AD" unicode="&#xad;" horiz-adv-x="317" 
d="M42 214v75h234v-75h-234z" />
    <glyph glyph-name="registered" unicode="&#xae;" horiz-adv-x="435" 
d="M217 317q-80 0 -135.5 56t-55.5 142t55.5 142.5t135.5 56.5t135.5 -56.5t55.5 -142.5t-55.5 -142t-135.5 -56zM217 357q64 0 105.5 44t41.5 114t-41.5 114.5t-105.5 44.5t-105.5 -44.5t-41.5 -114.5t41.5 -114t105.5 -44zM142 417v201h80q35 0 57 -16t22 -49
q0 -41 -37 -55l45 -81h-50l-34 67h-37v-67h-46zM188 519h24q40 0 40 31q0 32 -38 32h-26v-63z" />
    <glyph glyph-name="macron" unicode="&#xaf;" horiz-adv-x="546" 
d="M136 598v68h274v-68h-274z" />
    <glyph glyph-name="degree" unicode="&#xb0;" horiz-adv-x="341" 
d="M171 420q-55 0 -93 37t-38 95q0 59 38 96t93 37t93 -37t38 -96q0 -58 -38 -95t-93 -37zM171 473q32 0 52.5 22t20.5 57t-20.5 57.5t-52.5 22.5t-52.5 -22.5t-20.5 -57.5t20.5 -57t52.5 -22z" />
    <glyph glyph-name="plusminus" unicode="&#xb1;" 
d="M214 136v165h-180v74h180v184h78v-184h180v-74h-180v-165h-78zM34 0v74h438v-74h-438z" />
    <glyph glyph-name="acute" unicode="&#xb4;" horiz-adv-x="546" 
d="M266 573l-51 50l145 171l70 -67z" />
    <glyph glyph-name="paragraph" unicode="&#xb6;" horiz-adv-x="582" 
d="M294 218q-114 0 -184 56t-70 165q0 113 66.5 164.5t178.5 51.5h44v-437h-35zM384 -80v735h102v-735h-102z" />
    <glyph glyph-name="periodcentered" unicode="&#xb7;" horiz-adv-x="264" 
d="M132 250q-29 0 -48.5 20t-19.5 51t19.5 51.5t48.5 20.5t48.5 -20.5t19.5 -51.5t-19.5 -51t-48.5 -20z" />
    <glyph glyph-name="cedilla" unicode="&#xb8;" horiz-adv-x="546" 
d="M182 -230l-9 46q60 4 83.5 15t23.5 33q0 19 -17.5 29.5t-59.5 16.5l45 93h63l-29 -66q74 -17 74 -72q0 -87 -174 -95z" />
    <glyph glyph-name="ordmasculine" unicode="&#xba;" horiz-adv-x="367" 
d="M183 381q-65 0 -110 46t-45 124t45 124t110 46t110 -46t45 -124t-45 -124t-110 -46zM183 441q37 0 58 30t21 80t-20.5 80t-58.5 30q-37 0 -58 -30t-21 -80t21 -80t58 -30z" />
    <glyph glyph-name="guillemotright" unicode="&#xbb;" horiz-adv-x="444" 
d="M95 63l-41 33l116 156l-116 155l41 34l136 -152v-74zM262 63l-41 33l116 156l-116 155l41 34l136 -152v-74z" />
    <glyph glyph-name="onequarter" unicode="&#xbc;" horiz-adv-x="809" 
d="M237 285h-77v300h-86v49q58 10 101 41h62v-390zM551 667h64l-359 -679h-64zM784 152v-53h-58v-99h-69v99h-178v39l157 252h90v-238h58zM555 152h102v62l5 111h-4l-47 -80z" />
    <glyph glyph-name="onehalf" unicode="&#xbd;" horiz-adv-x="819" 
d="M160 285v300h-86v49q58 10 101 41h62v-390h-77zM180 -12l359 679h64l-359 -679h-64zM499 0v43q99 87 140 133.5t41 85.5q0 35 -19 55.5t-51 20.5q-42 0 -80 -54l-45 41q54 77 136 77q61 0 97.5 -33.5t36.5 -94.5q0 -26 -9 -50t-31 -53.5t-39 -48.5t-54 -57h151v-65h-274z
" />
    <glyph glyph-name="threequarters" unicode="&#xbe;" horiz-adv-x="819" 
d="M324 391q0 -53 -41.5 -85.5t-100.5 -32.5q-97 0 -149 77l49 38q38 -55 94 -55q31 0 51.5 17t20.5 46q0 64 -113 64v47q46 0 72 17.5t26 46.5q0 26 -17.5 41t-46.5 15q-39 0 -75 -45l-45 40q57 65 132 65q54 0 91 -29t37 -77q0 -62 -65 -94q35 -10 57.5 -35t22.5 -61z
M576 667h64l-359 -679h-64zM794 152v-53h-58v-99h-69v99h-178v39l157 252h90v-238h58zM565 152h102v62l5 111h-4l-47 -80z" />
    <glyph glyph-name="questiondown" unicode="&#xbf;" horiz-adv-x="436" 
d="M232 358q-29 0 -48.5 20.5t-19.5 51.5t19.5 51t48.5 20t48.5 -20t19.5 -51t-19.5 -51.5t-48.5 -20.5zM220 -193q-79 0 -126.5 43t-47.5 120q0 35 16 68t38.5 59.5t44.5 53t35 60t9 70.5h89q7 -51 -12.5 -97t-46.5 -75t-51 -65t-24 -67q0 -39 23 -63t65 -24q59 0 108 54
l57 -52q-76 -85 -177 -85z" />
    <glyph glyph-name="Agrave" unicode="&#xc0;" horiz-adv-x="552" 
d="M334 743l-45 -51l-161 116l56 67zM444 0l-56 187h-228l-56 -187h-104l217 655h118l217 -655h-108zM185 268h179l-26 88q-20 63 -62 218h-4q-32 -123 -61 -218z" />
    <glyph glyph-name="Aacute" unicode="&#xc1;" horiz-adv-x="552" 
d="M420 808l-161 -116l-45 51l150 132zM444 0l-56 187h-228l-56 -187h-104l217 655h118l217 -655h-108zM185 268h179l-26 88q-20 63 -62 218h-4q-32 -123 -61 -218z" />
    <glyph glyph-name="Acircumflex" unicode="&#xc2;" horiz-adv-x="552" 
d="M272 785l-108 -90l-44 30l100 112h108l100 -112l-44 -30l-108 90h-4zM444 0l-56 187h-228l-56 -187h-104l217 655h118l217 -655h-108zM185 268h179l-26 88q-20 63 -62 218h-4q-32 -123 -61 -218z" />
    <glyph glyph-name="Atilde" unicode="&#xc3;" horiz-adv-x="552" 
d="M203 771q-39 0 -45 -61l-67 5q3 62 32 95.5t77 33.5q32 0 59 -17t48 -33.5t38 -16.5q38 0 45 61l67 -5q-3 -62 -32 -95.5t-77 -33.5q-32 0 -59 17t-48 33.5t-38 16.5zM444 0l-56 187h-228l-56 -187h-104l217 655h118l217 -655h-108zM185 268h179l-26 88q-20 63 -62 218
h-4q-32 -123 -61 -218z" />
    <glyph glyph-name="Adieresis" unicode="&#xc4;" horiz-adv-x="552" 
d="M169 711q-24 0 -39.5 15.5t-15.5 39.5t15.5 39.5t39.5 15.5t39.5 -15.5t15.5 -39.5t-15.5 -39.5t-39.5 -15.5zM379 711q-24 0 -39.5 15.5t-15.5 39.5t15.5 39.5t39.5 15.5t39.5 -15.5t15.5 -39.5t-15.5 -39.5t-39.5 -15.5zM444 0l-56 187h-228l-56 -187h-104l217 655h118
l217 -655h-108zM185 268h179l-26 88q-20 63 -62 218h-4q-32 -123 -61 -218z" />
    <glyph glyph-name="Aring" unicode="&#xc5;" horiz-adv-x="552" 
d="M274 698q-45 0 -73.5 25.5t-28.5 67.5t28.5 67.5t73.5 25.5t73.5 -25.5t28.5 -67.5t-28.5 -67.5t-73.5 -25.5zM274 842q-21 0 -35 -14t-14 -37t14 -37t35 -14q20 0 34 14t14 37t-14 37t-34 14zM444 0l-56 187h-228l-56 -187h-104l217 655h118l217 -655h-108zM185 268h179
l-26 88q-20 63 -62 218h-4q-32 -123 -61 -218z" />
    <glyph glyph-name="AE" unicode="&#xc6;" horiz-adv-x="829" 
d="M499 86h280v-86h-382v179h-198l-90 -179h-107l334 655h433v-86h-270v-184h226v-86h-226v-213zM239 260h158v316h-4q-82 -173 -99 -206z" />
    <glyph glyph-name="Ccedilla" unicode="&#xc7;" horiz-adv-x="574" 
d="M341 -12q-127 0 -209 90.5t-82 247.5q0 156 84 248.5t212 92.5q109 0 185 -82l-55 -66q-57 59 -128 59q-86 0 -139.5 -67.5t-53.5 -181.5q0 -117 51.5 -184.5t138.5 -67.5q82 0 145 70l55 -64q-81 -95 -204 -95z" />
    <glyph glyph-name="Egrave" unicode="&#xc8;" horiz-adv-x="533" 
d="M301 692l-161 116l56 67l150 -132zM86 0v655h387v-86h-285v-184h241v-86h-241v-213h295v-86h-397z" />
    <glyph glyph-name="Eacute" unicode="&#xc9;" horiz-adv-x="533" 
d="M271 692l-45 51l150 132l56 -67zM86 0v655h387v-86h-285v-184h241v-86h-241v-213h295v-86h-397z" />
    <glyph glyph-name="Ecircumflex" unicode="&#xca;" horiz-adv-x="533" 
d="M176 695l-44 30l100 112h108l100 -112l-44 -30l-108 90h-4zM86 0v655h387v-86h-285v-184h241v-86h-241v-213h295v-86h-397z" />
    <glyph glyph-name="Edieresis" unicode="&#xcb;" horiz-adv-x="533" 
d="M181 711q-24 0 -39.5 15.5t-15.5 39.5t15.5 39.5t39.5 15.5t39.5 -15.5t15.5 -39.5t-15.5 -39.5t-39.5 -15.5zM391 711q-24 0 -39.5 15.5t-15.5 39.5t15.5 39.5t39.5 15.5t39.5 -15.5t15.5 -39.5t-15.5 -39.5t-39.5 -15.5zM86 0v655h387v-86h-285v-184h241v-86h-241v-213
h295v-86h-397z" />
    <glyph glyph-name="Igrave" unicode="&#xcc;" horiz-adv-x="274" 
d="M152 692l-161 116l56 67l150 -132zM86 0v655h102v-655h-102z" />
    <glyph glyph-name="Iacute" unicode="&#xcd;" horiz-adv-x="274" 
d="M122 692l-45 51l150 132l56 -67zM86 0v655h102v-655h-102z" />
    <glyph glyph-name="Icircumflex" unicode="&#xce;" horiz-adv-x="274" 
d="M27 695l-44 30l100 112h108l100 -112l-44 -30l-108 90h-4zM86 0v655h102v-655h-102z" />
    <glyph glyph-name="Idieresis" unicode="&#xcf;" horiz-adv-x="274" 
d="M32 711q-24 0 -39.5 15.5t-15.5 39.5t15.5 39.5t39.5 15.5t39.5 -15.5t15.5 -39.5t-15.5 -39.5t-39.5 -15.5zM242 711q-24 0 -39.5 15.5t-15.5 39.5t15.5 39.5t39.5 15.5t39.5 -15.5t15.5 -39.5t-15.5 -39.5t-39.5 -15.5zM86 0v655h102v-655h-102z" />
    <glyph glyph-name="Eth" unicode="&#xd0;" horiz-adv-x="644" 
d="M279 655q152 0 233.5 -83t81.5 -242t-81 -244.5t-229 -85.5h-175v315h-78v50l78 4v286h170zM272 83q106 0 161.5 62.5t55.5 184.5q0 242 -217 242h-61v-203h142v-54h-142v-232h61z" />
    <glyph glyph-name="Ntilde" unicode="&#xd1;" horiz-adv-x="652" 
d="M403 704q-32 0 -59 17t-48 33.5t-38 16.5q-39 0 -45 -61l-67 5q3 62 32 95.5t77 33.5q32 0 59 -17t48 -33.5t38 -16.5q38 0 45 61l67 -5q-3 -62 -32 -95.5t-77 -33.5zM86 0v655h105l218 -387l69 -138h4q-13 174 -13 217v308h97v-655h-105l-218 388l-69 137h-4
q13 -177 13 -214v-311h-97z" />
    <glyph glyph-name="Ograve" unicode="&#xd2;" horiz-adv-x="670" 
d="M350 692l-161 116l56 67l150 -132zM335 -12q-127 0 -206 92.5t-79 249.5q0 156 78.5 246.5t206.5 90.5t206.5 -90.5t78.5 -246.5q0 -157 -79 -249.5t-206 -92.5zM335 77q82 0 131 69t49 184t-49 181.5t-131 66.5t-131 -66.5t-49 -181.5t49 -184t131 -69z" />
    <glyph glyph-name="Oacute" unicode="&#xd3;" horiz-adv-x="670" 
d="M320 692l-45 51l150 132l56 -67zM335 -12q-127 0 -206 92.5t-79 249.5q0 156 78.5 246.5t206.5 90.5t206.5 -90.5t78.5 -246.5q0 -157 -79 -249.5t-206 -92.5zM335 77q82 0 131 69t49 184t-49 181.5t-131 66.5t-131 -66.5t-49 -181.5t49 -184t131 -69z" />
    <glyph glyph-name="Ocircumflex" unicode="&#xd4;" horiz-adv-x="670" 
d="M225 695l-44 30l100 112h108l100 -112l-44 -30l-108 90h-4zM335 -12q-127 0 -206 92.5t-79 249.5q0 156 78.5 246.5t206.5 90.5t206.5 -90.5t78.5 -246.5q0 -157 -79 -249.5t-206 -92.5zM335 77q82 0 131 69t49 184t-49 181.5t-131 66.5t-131 -66.5t-49 -181.5t49 -184
t131 -69z" />
    <glyph glyph-name="Otilde" unicode="&#xd5;" horiz-adv-x="670" 
d="M409 704q-32 0 -59 17t-48 33.5t-38 16.5q-39 0 -45 -61l-67 5q3 62 32 95.5t77 33.5q32 0 59 -17t48 -33.5t38 -16.5q38 0 45 61l67 -5q-3 -62 -32 -95.5t-77 -33.5zM335 -12q-127 0 -206 92.5t-79 249.5q0 156 78.5 246.5t206.5 90.5t206.5 -90.5t78.5 -246.5
q0 -157 -79 -249.5t-206 -92.5zM335 77q82 0 131 69t49 184t-49 181.5t-131 66.5t-131 -66.5t-49 -181.5t49 -184t131 -69z" />
    <glyph glyph-name="Odieresis" unicode="&#xd6;" horiz-adv-x="670" 
d="M230 711q-24 0 -39.5 15.5t-15.5 39.5t15.5 39.5t39.5 15.5t39.5 -15.5t15.5 -39.5t-15.5 -39.5t-39.5 -15.5zM440 711q-24 0 -39.5 15.5t-15.5 39.5t15.5 39.5t39.5 15.5t39.5 -15.5t15.5 -39.5t-15.5 -39.5t-39.5 -15.5zM335 -12q-127 0 -206 92.5t-79 249.5
q0 156 78.5 246.5t206.5 90.5t206.5 -90.5t78.5 -246.5q0 -157 -79 -249.5t-206 -92.5zM335 77q82 0 131 69t49 184t-49 181.5t-131 66.5t-131 -66.5t-49 -181.5t49 -184t131 -69z" />
    <glyph glyph-name="multiply" unicode="&#xd7;" 
d="M102 122l-52 54l151 154l-151 154l52 53l151 -155l151 155l53 -53l-151 -154l151 -154l-53 -54l-151 155z" />
    <glyph glyph-name="Oslash" unicode="&#xd8;" horiz-adv-x="670" 
d="M631 646l-71 -91q62 -87 62 -225q0 -157 -79 -249.5t-206 -92.5q-101 0 -172 59l-63 -80l-55 42l70 90q-65 92 -65 231q0 156 78.5 246.5t206.5 90.5q104 0 176 -60l63 81zM157 330q0 -83 27 -145l269 345q-46 48 -116 48q-82 0 -131 -66.5t-49 -181.5zM517 330
q0 79 -25 138l-268 -344q47 -47 113 -47q82 0 131 69t49 184z" />
    <glyph glyph-name="Ugrave" unicode="&#xd9;" horiz-adv-x="651" 
d="M340 692l-161 116l56 67l150 -132zM326 -12q-243 0 -243 292v375h102v-381q0 -197 141 -197q144 0 144 197v381h98v-375q0 -292 -242 -292z" />
    <glyph glyph-name="Uacute" unicode="&#xda;" horiz-adv-x="651" 
d="M310 692l-45 51l150 132l56 -67zM326 -12q-243 0 -243 292v375h102v-381q0 -197 141 -197q144 0 144 197v381h98v-375q0 -292 -242 -292z" />
    <glyph glyph-name="Ucircumflex" unicode="&#xdb;" horiz-adv-x="651" 
d="M215 695l-44 30l100 112h108l100 -112l-44 -30l-108 90h-4zM326 -12q-243 0 -243 292v375h102v-381q0 -197 141 -197q144 0 144 197v381h98v-375q0 -292 -242 -292z" />
    <glyph glyph-name="Udieresis" unicode="&#xdc;" horiz-adv-x="651" 
d="M220 711q-24 0 -39.5 15.5t-15.5 39.5t15.5 39.5t39.5 15.5t39.5 -15.5t15.5 -39.5t-15.5 -39.5t-39.5 -15.5zM430 711q-24 0 -39.5 15.5t-15.5 39.5t15.5 39.5t39.5 15.5t39.5 -15.5t15.5 -39.5t-15.5 -39.5t-39.5 -15.5zM326 -12q-243 0 -243 292v375h102v-381
q0 -197 141 -197q144 0 144 197v381h98v-375q0 -292 -242 -292z" />
    <glyph glyph-name="Yacute" unicode="&#xdd;" horiz-adv-x="490" 
d="M230 692l-45 51l150 132l56 -67zM194 0v248l-197 407h109l77 -175q41 -99 61 -143h4q5 12 28 63.5t34 79.5l77 175h106l-197 -407v-248h-102z" />
    <glyph glyph-name="Thorn" unicode="&#xde;" horiz-adv-x="593" 
d="M86 0v655h102v-107h110q246 0 246 -198q0 -103 -67.5 -155.5t-178.5 -52.5h-110v-142h-102zM188 224h100q155 0 155 126q0 63 -37.5 89.5t-117.5 26.5h-100v-242z" />
    <glyph glyph-name="germandbls" unicode="&#xdf;" horiz-adv-x="592" 
d="M397 -12q-75 0 -144 48l38 70q51 -41 103 -41q35 0 55.5 20.5t20.5 50.5q0 28 -19.5 49t-48 35.5t-56.5 30.5t-47.5 43.5t-19.5 65.5q0 44 41.5 100t41.5 96q0 36 -20.5 59t-57.5 23q-51 0 -79 -38t-28 -109v-491h-100v507q0 97 54.5 154.5t153.5 57.5q82 0 128.5 -44
t46.5 -108q0 -42 -22 -77.5t-43.5 -63.5t-21.5 -54q0 -24 19.5 -42t48 -32t56.5 -31.5t47.5 -49.5t19.5 -76q0 -66 -45 -109.5t-122 -43.5z" />
    <glyph glyph-name="agrave" unicode="&#xe0;" horiz-adv-x="511" 
d="M282 573l-164 154l70 67l145 -171zM193 -12q-64 0 -104 38.5t-40 103.5q0 79 70 121.5t223 59.5q-2 108 -94 108q-62 0 -141 -50l-38 68q100 64 197 64q89 0 133 -53.5t44 -153.5v-294h-83l-8 56h-3q-81 -68 -156 -68zM224 68q54 0 118 58v121q-106 -13 -150.5 -40
t-44.5 -70q0 -35 21 -52t56 -17z" />
    <glyph glyph-name="aacute" unicode="&#xe1;" horiz-adv-x="511" 
d="M268 573l-51 50l145 171l70 -67zM193 -12q-64 0 -104 38.5t-40 103.5q0 79 70 121.5t223 59.5q-2 108 -94 108q-62 0 -141 -50l-38 68q100 64 197 64q89 0 133 -53.5t44 -153.5v-294h-83l-8 56h-3q-81 -68 -156 -68zM224 68q54 0 118 58v121q-106 -13 -150.5 -40
t-44.5 -70q0 -35 21 -52t56 -17z" />
    <glyph glyph-name="acircumflex" unicode="&#xe2;" horiz-adv-x="511" 
d="M153 566l-41 38l112 137h102l112 -137l-41 -38l-120 107h-4zM193 -12q-64 0 -104 38.5t-40 103.5q0 79 70 121.5t223 59.5q-2 108 -94 108q-62 0 -141 -50l-38 68q100 64 197 64q89 0 133 -53.5t44 -153.5v-294h-83l-8 56h-3q-81 -68 -156 -68zM224 68q54 0 118 58v121
q-106 -13 -150.5 -40t-44.5 -70q0 -35 21 -52t56 -17z" />
    <glyph glyph-name="atilde" unicode="&#xe3;" horiz-adv-x="511" 
d="M346 576q-30 0 -56 19.5t-46.5 39t-37.5 19.5q-38 0 -43 -72l-66 4q5 140 108 140q29 0 55 -19.5t47 -39t38 -19.5q37 0 42 72l66 -4q-2 -66 -28.5 -103t-78.5 -37zM193 -12q-64 0 -104 38.5t-40 103.5q0 79 70 121.5t223 59.5q-2 108 -94 108q-62 0 -141 -50l-38 68
q100 64 197 64q89 0 133 -53.5t44 -153.5v-294h-83l-8 56h-3q-81 -68 -156 -68zM224 68q54 0 118 58v121q-106 -13 -150.5 -40t-44.5 -70q0 -35 21 -52t56 -17z" />
    <glyph glyph-name="adieresis" unicode="&#xe4;" horiz-adv-x="511" 
d="M175 582q-24 0 -40 16t-16 40t15.5 40t40.5 16q24 0 40 -16t16 -40q0 -23 -16 -39.5t-40 -16.5zM375 582q-24 0 -40 16.5t-16 39.5q0 24 16 40t40 16q25 0 40.5 -16t15.5 -40t-16 -40t-40 -16zM193 -12q-64 0 -104 38.5t-40 103.5q0 79 70 121.5t223 59.5q-2 108 -94 108
q-62 0 -141 -50l-38 68q100 64 197 64q89 0 133 -53.5t44 -153.5v-294h-83l-8 56h-3q-81 -68 -156 -68zM224 68q54 0 118 58v121q-106 -13 -150.5 -40t-44.5 -70q0 -35 21 -52t56 -17z" />
    <glyph glyph-name="aring" unicode="&#xe5;" horiz-adv-x="511" 
d="M275 557q-54 0 -85 28t-31 72t31 72t85 28t85 -28t31 -72t-31 -72t-85 -28zM275 599q23 0 38 16t15 42t-15 42t-38 16t-38 -16t-15 -42t15 -42t38 -16zM193 -12q-64 0 -104 38.5t-40 103.5q0 79 70 121.5t223 59.5q-2 108 -94 108q-62 0 -141 -50l-38 68q100 64 197 64
q89 0 133 -53.5t44 -153.5v-294h-83l-8 56h-3q-81 -68 -156 -68zM224 68q54 0 118 58v121q-106 -13 -150.5 -40t-44.5 -70q0 -35 21 -52t56 -17z" />
    <glyph glyph-name="ae" unicode="&#xe6;" horiz-adv-x="785" 
d="M199 -12q-64 0 -104 38.5t-40 102.5q0 79 69.5 122.5t219.5 60.5q-2 107 -93 107q-59 0 -138 -50l-38 68q100 64 189 64q101 0 139 -95q63 95 156 95q90 0 139.5 -63.5t49.5 -169.5q0 -26 -4 -50h-307q4 -68 44 -108.5t98 -40.5q53 0 114 39l36 -68q-78 -52 -163 -52
q-99 0 -171 87q-101 -87 -196 -87zM437 283h223q0 67 -26.5 103t-77.5 36q-47 0 -79.5 -37.5t-39.5 -101.5zM230 68q69 0 131 65q-15 37 -17 91l-1 23q-101 -13 -145.5 -40t-44.5 -70q0 -35 21 -52t56 -17z" />
    <glyph glyph-name="ccedilla" unicode="&#xe7;" horiz-adv-x="459" 
d="M282 -63q74 -17 74 -72q0 -87 -174 -95l-9 46q60 4 83.5 15t23.5 33q0 19 -17.5 29.5t-59.5 16.5l39 80q-89 12 -144 79t-55 175q0 118 70 187.5t171 69.5q80 0 143 -56l-50 -66q-44 39 -88 39q-63 0 -102.5 -48t-39.5 -126t38.5 -125.5t100.5 -47.5q55 0 107 45l42 -67
q-55 -49 -130 -59z" />
    <glyph glyph-name="egrave" unicode="&#xe8;" horiz-adv-x="502" 
d="M328 623l-51 -50l-164 154l70 67zM465 270q0 -28 -4 -52h-323q7 -74 50.5 -112.5t105.5 -38.5q59 0 117 37l35 -64q-78 -52 -165 -52q-103 0 -170.5 69t-67.5 187q0 115 66.5 186t156.5 71q95 0 147 -62.5t52 -168.5zM140 288h237q0 64 -28 99t-81 35q-46 0 -82 -34
t-46 -100z" />
    <glyph glyph-name="eacute" unicode="&#xe9;" horiz-adv-x="502" 
d="M427 727l-164 -154l-51 50l145 171zM465 270q0 -28 -4 -52h-323q7 -74 50.5 -112.5t105.5 -38.5q59 0 117 37l35 -64q-78 -52 -165 -52q-103 0 -170.5 69t-67.5 187q0 115 66.5 186t156.5 71q95 0 147 -62.5t52 -168.5zM140 288h237q0 64 -28 99t-81 35q-46 0 -82 -34
t-46 -100z" />
    <glyph glyph-name="ecircumflex" unicode="&#xea;" horiz-adv-x="502" 
d="M268 673l-120 -107l-41 38l112 137h102l112 -137l-41 -38l-120 107h-4zM465 270q0 -28 -4 -52h-323q7 -74 50.5 -112.5t105.5 -38.5q59 0 117 37l35 -64q-78 -52 -165 -52q-103 0 -170.5 69t-67.5 187q0 115 66.5 186t156.5 71q95 0 147 -62.5t52 -168.5zM140 288h237
q0 64 -28 99t-81 35q-46 0 -82 -34t-46 -100z" />
    <glyph glyph-name="edieresis" unicode="&#xeb;" horiz-adv-x="502" 
d="M170 582q-24 0 -40 16t-16 40t15.5 40t40.5 16q24 0 40 -16t16 -40q0 -23 -16 -39.5t-40 -16.5zM370 582q-24 0 -40 16.5t-16 39.5q0 24 16 40t40 16q25 0 40.5 -16t15.5 -40t-16 -40t-40 -16zM465 270q0 -28 -4 -52h-323q7 -74 50.5 -112.5t105.5 -38.5q59 0 117 37
l35 -64q-78 -52 -165 -52q-103 0 -170.5 69t-67.5 187q0 115 66.5 186t156.5 71q95 0 147 -62.5t52 -168.5zM140 288h237q0 64 -28 99t-81 35q-46 0 -82 -34t-46 -100z" />
    <glyph glyph-name="igrave" unicode="&#xec;" horiz-adv-x="255" 
d="M135 573l-164 154l70 67l145 -171zM77 0v489h101v-489h-101z" />
    <glyph glyph-name="iacute" unicode="&#xed;" horiz-adv-x="255" 
d="M121 573l-51 50l145 171l70 -67zM77 0v489h101v-489h-101z" />
    <glyph glyph-name="icircumflex" unicode="&#xee;" horiz-adv-x="255" 
d="M6 566l-41 38l112 137h102l112 -137l-41 -38l-120 107h-4zM77 0v489h101v-489h-101z" />
    <glyph glyph-name="idieresis" unicode="&#xef;" horiz-adv-x="255" 
d="M28 582q-24 0 -40 16t-16 40t15.5 40t40.5 16q24 0 40 -16t16 -40q0 -23 -16 -39.5t-40 -16.5zM228 582q-24 0 -40 16.5t-16 39.5q0 24 16 40t40 16q25 0 40.5 -16t15.5 -40t-16 -40t-40 -16zM77 0v489h101v-489h-101z" />
    <glyph glyph-name="eth" unicode="&#xf0;" horiz-adv-x="549" 
d="M357 604q135 -138 135 -344q0 -122 -60.5 -197t-161.5 -75q-91 0 -155.5 65t-64.5 171q0 101 59 163t146 62q80 0 126 -58q-27 103 -100 174l-142 -72l-28 48l124 63q-40 30 -105 66l45 63q80 -41 138 -89l142 73l28 -49zM273 71q59 0 91 49t32 135q0 19 -2 53
q-49 64 -121 64q-60 0 -94.5 -40.5t-34.5 -107.5q0 -69 37.5 -111t91.5 -42z" />
    <glyph glyph-name="ntilde" unicode="&#xf1;" horiz-adv-x="554" 
d="M370 576q-30 0 -56 19.5t-46.5 39t-37.5 19.5q-38 0 -43 -72l-66 4q5 140 108 140q29 0 55 -19.5t47 -39t38 -19.5q37 0 42 72l66 -4q-2 -66 -29 -103t-78 -37zM77 0v489h83l8 -68h3q82 80 162 80q150 0 150 -193v-308h-101v295q0 63 -19.5 91t-63.5 28q-33 0 -59 -15.5
t-62 -51.5v-347h-101z" />
    <glyph glyph-name="ograve" unicode="&#xf2;" horiz-adv-x="546" 
d="M280 573l-164 154l70 67l145 -171zM273 -12q-95 0 -162.5 69.5t-67.5 186.5q0 118 67.5 187.5t162.5 69.5t162.5 -69.5t67.5 -187.5q0 -117 -67.5 -186.5t-162.5 -69.5zM273 71q58 0 92 47.5t34 125.5t-34.5 126t-91.5 48t-91.5 -48t-34.5 -126t34 -125.5t92 -47.5z" />
    <glyph glyph-name="oacute" unicode="&#xf3;" horiz-adv-x="546" 
d="M266 573l-51 50l145 171l70 -67zM273 -12q-95 0 -162.5 69.5t-67.5 186.5q0 118 67.5 187.5t162.5 69.5t162.5 -69.5t67.5 -187.5q0 -117 -67.5 -186.5t-162.5 -69.5zM273 71q58 0 92 47.5t34 125.5t-34.5 126t-91.5 48t-91.5 -48t-34.5 -126t34 -125.5t92 -47.5z" />
    <glyph glyph-name="ocircumflex" unicode="&#xf4;" horiz-adv-x="546" 
d="M151 566l-41 38l112 137h102l112 -137l-41 -38l-120 107h-4zM273 -12q-95 0 -162.5 69.5t-67.5 186.5q0 118 67.5 187.5t162.5 69.5t162.5 -69.5t67.5 -187.5q0 -117 -67.5 -186.5t-162.5 -69.5zM273 71q58 0 92 47.5t34 125.5t-34.5 126t-91.5 48t-91.5 -48t-34.5 -126
t34 -125.5t92 -47.5z" />
    <glyph glyph-name="otilde" unicode="&#xf5;" horiz-adv-x="546" 
d="M344 576q-30 0 -56 19.5t-46.5 39t-37.5 19.5q-38 0 -43 -72l-66 4q5 140 108 140q29 0 55 -19.5t47 -39t38 -19.5q37 0 42 72l66 -4q-2 -66 -28.5 -103t-78.5 -37zM273 -12q-95 0 -162.5 69.5t-67.5 186.5q0 118 67.5 187.5t162.5 69.5t162.5 -69.5t67.5 -187.5
q0 -117 -67.5 -186.5t-162.5 -69.5zM273 71q58 0 92 47.5t34 125.5t-34.5 126t-91.5 48t-91.5 -48t-34.5 -126t34 -125.5t92 -47.5z" />
    <glyph glyph-name="odieresis" unicode="&#xf6;" horiz-adv-x="546" 
d="M173 582q-24 0 -40 16t-16 40t15.5 40t40.5 16q24 0 40 -16t16 -40q0 -23 -16 -39.5t-40 -16.5zM373 582q-24 0 -40 16.5t-16 39.5q0 24 16 40t40 16q25 0 40.5 -16t15.5 -40t-16 -40t-40 -16zM273 -12q-95 0 -162.5 69.5t-67.5 186.5q0 118 67.5 187.5t162.5 69.5
t162.5 -69.5t67.5 -187.5q0 -117 -67.5 -186.5t-162.5 -69.5zM273 71q58 0 92 47.5t34 125.5t-34.5 126t-91.5 48t-91.5 -48t-34.5 -126t34 -125.5t92 -47.5z" />
    <glyph glyph-name="divide" unicode="&#xf7;" 
d="M253 449q-27 0 -44.5 17t-17.5 44q0 26 18 43t44 17t44 -17t18 -43q0 -27 -17.5 -44t-44.5 -17zM34 293v74h438v-74h-438zM253 89q-27 0 -44.5 17t-17.5 44q0 26 18 43t44 17t44 -17t18 -43q0 -27 -17.5 -44t-44.5 -17z" />
    <glyph glyph-name="oslash" unicode="&#xf8;" horiz-adv-x="546" 
d="M448 417q55 -70 55 -173q0 -117 -67.5 -186.5t-162.5 -69.5q-77 0 -137 46l-48 -58l-42 33l52 63q-55 70 -55 172q0 118 67.5 187.5t162.5 69.5q78 0 137 -47l48 59l42 -33zM142 249q0 -61 18 -101l195 240q-33 33 -82 33q-58 0 -94.5 -48t-36.5 -124zM273 68
q58 0 94.5 47.5t36.5 123.5q0 60 -18 102l-196 -240q35 -33 83 -33z" />
    <glyph glyph-name="ugrave" unicode="&#xf9;" horiz-adv-x="551" 
d="M288 573l-164 154l70 67l145 -171zM221 -12q-150 0 -150 193v308h101v-295q0 -63 19.5 -91t63.5 -28q34 0 60 17t58 57v340h101v-489h-83l-8 74h-3q-73 -86 -159 -86z" />
    <glyph glyph-name="uacute" unicode="&#xfa;" horiz-adv-x="551" 
d="M274 573l-51 50l145 171l70 -67zM221 -12q-150 0 -150 193v308h101v-295q0 -63 19.5 -91t63.5 -28q34 0 60 17t58 57v340h101v-489h-83l-8 74h-3q-73 -86 -159 -86z" />
    <glyph glyph-name="ucircumflex" unicode="&#xfb;" horiz-adv-x="551" 
d="M159 566l-41 38l112 137h102l112 -137l-41 -38l-120 107h-4zM221 -12q-150 0 -150 193v308h101v-295q0 -63 19.5 -91t63.5 -28q34 0 60 17t58 57v340h101v-489h-83l-8 74h-3q-73 -86 -159 -86z" />
    <glyph glyph-name="udieresis" unicode="&#xfc;" horiz-adv-x="551" 
d="M181 582q-24 0 -40 16t-16 40t15.5 40t40.5 16q24 0 40 -16t16 -40q0 -23 -16 -39.5t-40 -16.5zM381 582q-24 0 -40 16.5t-16 39.5q0 24 16 40t40 16q25 0 40.5 -16t15.5 -40t-16 -40t-40 -16zM221 -12q-150 0 -150 193v308h101v-295q0 -63 19.5 -91t63.5 -28q34 0 60 17
t58 57v340h101v-489h-83l-8 74h-3q-73 -86 -159 -86z" />
    <glyph glyph-name="yacute" unicode="&#xfd;" horiz-adv-x="483" 
d="M245 573l-51 50l145 171l70 -67zM99 -205q-33 0 -61 10l19 79q23 -7 36 -7q72 0 103 93l10 33l-194 486h103l91 -253l45 -138h4q6 19 19 66.5t20 71.5l79 253h98l-180 -519q-31 -86 -75 -130.5t-117 -44.5z" />
    <glyph glyph-name="thorn" unicode="&#xfe;" horiz-adv-x="560" 
d="M77 -199v908h101v-187l-2 -80q73 59 141 59q94 0 146 -67t52 -182q0 -120 -61.5 -192t-148.5 -72q-64 0 -129 52l2 -80v-159h-101zM285 72q56 0 91 47.5t35 131.5q0 166 -116 166q-54 0 -117 -60v-240q53 -45 107 -45z" />
    <glyph glyph-name="ydieresis" unicode="&#xff;" horiz-adv-x="483" 
d="M152 582q-24 0 -40 16t-16 40t15.5 40t40.5 16q24 0 40 -16t16 -40q0 -23 -16 -39.5t-40 -16.5zM352 582q-24 0 -40 16.5t-16 39.5q0 24 16 40t40 16q25 0 40.5 -16t15.5 -40t-16 -40t-40 -16zM99 -205q-33 0 -61 10l19 79q23 -7 36 -7q72 0 103 93l10 33l-194 486h103
l91 -253l45 -138h4q6 19 19 66.5t20 71.5l79 253h98l-180 -519q-31 -86 -75 -130.5t-117 -44.5z" />
    <glyph glyph-name="Amacron" unicode="&#x100;" horiz-adv-x="552" 
d="M413 799v-68h-278v68h278zM444 0l-56 187h-228l-56 -187h-104l217 655h118l217 -655h-108zM185 268h179l-26 88q-20 63 -62 218h-4q-32 -123 -61 -218z" />
    <glyph glyph-name="amacron" unicode="&#x101;" horiz-adv-x="511" 
d="M138 598v68h274v-68h-274zM193 -12q-64 0 -104 38.5t-40 103.5q0 79 70 121.5t223 59.5q-2 108 -94 108q-62 0 -141 -50l-38 68q100 64 197 64q89 0 133 -53.5t44 -153.5v-294h-83l-8 56h-3q-81 -68 -156 -68zM224 68q54 0 118 58v121q-106 -13 -150.5 -40t-44.5 -70
q0 -35 21 -52t56 -17z" />
    <glyph glyph-name="Abreve" unicode="&#x102;" horiz-adv-x="552" 
d="M274 703q-68 0 -106.5 36t-44.5 95l59 10q6 -36 29.5 -57.5t62.5 -21.5t62.5 21.5t29.5 57.5l59 -10q-6 -59 -44.5 -95t-106.5 -36zM444 0l-56 187h-228l-56 -187h-104l217 655h118l217 -655h-108zM185 268h179l-26 88q-20 63 -62 218h-4q-32 -123 -61 -218z" />
    <glyph glyph-name="abreve" unicode="&#x103;" horiz-adv-x="511" 
d="M275 571q-76 0 -116 44t-44 109l61 10q6 -41 31 -69t68 -28t68 28t31 69l61 -10q-4 -65 -43.5 -109t-116.5 -44zM193 -12q-64 0 -104 38.5t-40 103.5q0 79 70 121.5t223 59.5q-2 108 -94 108q-62 0 -141 -50l-38 68q100 64 197 64q89 0 133 -53.5t44 -153.5v-294h-83
l-8 56h-3q-81 -68 -156 -68zM224 68q54 0 118 58v121q-106 -13 -150.5 -40t-44.5 -70q0 -35 21 -52t56 -17z" />
    <glyph glyph-name="Ccaron" unicode="&#x10c;" horiz-adv-x="574" 
d="M279 705l-100 112l44 30l108 -90h4l108 90l44 -30l-100 -112h-108zM341 -12q-127 0 -209 90.5t-82 247.5q0 156 84 248.5t212 92.5q109 0 185 -82l-55 -66q-57 59 -128 59q-86 0 -139.5 -67.5t-53.5 -181.5q0 -117 51.5 -184.5t138.5 -67.5q82 0 145 70l55 -64
q-81 -95 -204 -95z" />
    <glyph glyph-name="ccaron" unicode="&#x10d;" horiz-adv-x="459" 
d="M223 575l-112 137l41 38l120 -107h4l120 107l41 -38l-112 -137h-102zM276 -12q-102 0 -167.5 68.5t-65.5 187.5q0 118 70 187.5t171 69.5q80 0 143 -56l-50 -66q-44 39 -88 39q-63 0 -102.5 -48t-39.5 -126t38.5 -125.5t100.5 -47.5q55 0 107 45l42 -67q-69 -61 -159 -61
z" />
    <glyph glyph-name="Emacron" unicode="&#x112;" horiz-adv-x="533" 
d="M147 731v68h278v-68h-278zM86 0v655h387v-86h-285v-184h241v-86h-241v-213h295v-86h-397z" />
    <glyph glyph-name="emacron" unicode="&#x113;" horiz-adv-x="502" 
d="M407 666v-68h-274v68h274zM465 270q0 -28 -4 -52h-323q7 -74 50.5 -112.5t105.5 -38.5q59 0 117 37l35 -64q-78 -52 -165 -52q-103 0 -170.5 69t-67.5 187q0 115 66.5 186t156.5 71q95 0 147 -62.5t52 -168.5zM140 288h237q0 64 -28 99t-81 35q-46 0 -82 -34t-46 -100z
" />
    <glyph glyph-name="Ebreve" unicode="&#x114;" horiz-adv-x="533" 
d="M286 703q-68 0 -106.5 36t-44.5 95l59 10q6 -36 29.5 -57.5t62.5 -21.5t62.5 21.5t29.5 57.5l59 -10q-6 -59 -44.5 -95t-106.5 -36zM86 0v655h387v-86h-285v-184h241v-86h-241v-213h295v-86h-397z" />
    <glyph glyph-name="ebreve" unicode="&#x115;" horiz-adv-x="502" 
d="M270 571q-76 0 -116 44t-44 109l61 10q6 -41 31 -69t68 -28t68 28t31 69l61 -10q-4 -65 -43.5 -109t-116.5 -44zM465 270q0 -28 -4 -52h-323q7 -74 50.5 -112.5t105.5 -38.5q59 0 117 37l35 -64q-78 -52 -165 -52q-103 0 -170.5 69t-67.5 187q0 115 66.5 186t156.5 71
q95 0 147 -62.5t52 -168.5zM140 288h237q0 64 -28 99t-81 35q-46 0 -82 -34t-46 -100z" />
    <glyph glyph-name="Eogonek" unicode="&#x118;" horiz-adv-x="533" 
d="M413 -215q-44 0 -72.5 23.5t-28.5 65.5q0 39 22.5 72.5t53.5 53.5h-302v655h387v-86h-285v-184h241v-86h-241v-213h295v-86h-4q-34 -4 -62 -34.5t-28 -67.5q0 -21 13.5 -32.5t32.5 -11.5q20 0 39 14l26 -53q-37 -30 -87 -30z" />
    <glyph glyph-name="eogonek" unicode="&#x119;" horiz-adv-x="502" 
d="M359 -207q-42 0 -68 22.5t-26 64.5q0 62 59 114q-19 -6 -43 -6q-103 0 -170.5 69t-67.5 187q0 115 66.5 186t156.5 71q95 0 147 -62.5t52 -168.5q0 -28 -4 -52h-319q6 -70 47 -110.5t105 -40.5q59 0 117 37l35 -64q-63 -45 -86.5 -76t-23.5 -63q0 -21 13 -32.5t33 -11.5
t38 13l24 -48q-36 -29 -85 -29zM141 288h236q0 64 -28 99t-81 35q-48 0 -84 -35.5t-43 -98.5z" />
    <glyph glyph-name="Gdotaccent" unicode="&#x120;" horiz-adv-x="623" 
d="M357 710q-28 0 -46.5 17t-18.5 44q0 26 18.5 43t46.5 17t46.5 -17t18.5 -43q0 -27 -18.5 -44t-46.5 -17zM353 -12q-135 0 -219 90t-84 248q0 156 86 248.5t220 92.5q114 0 194 -82l-55 -66q-59 59 -136 59q-93 0 -148.5 -67t-55.5 -182q0 -118 54 -185t154 -67
q68 0 104 33v154h-130v84h222v-283q-34 -35 -88 -56t-118 -21z" />
    <glyph glyph-name="gdotaccent" unicode="&#x121;" horiz-adv-x="513" 
d="M264 581q-27 0 -44.5 17t-17.5 44q0 26 17.5 43t44.5 17t44.5 -17t17.5 -43q0 -27 -17.5 -44t-44.5 -17zM245 -220q-91 0 -147 33.5t-56 95.5q0 63 71 107v4q-44 28 -44 81t54 91v4q-27 21 -45.5 55t-18.5 75q0 80 55 127.5t134 47.5q38 0 71 -12h173v-76h-94
q33 -35 33 -90q0 -78 -52 -123t-131 -45q-36 0 -69 15q-27 -24 -27 -52q0 -48 82 -48h91q175 0 175 -119q0 -72 -70.5 -121.5t-184.5 -49.5zM248 220q40 0 66.5 29t26.5 77t-26.5 76t-66.5 28t-66.5 -28t-26.5 -76t26.5 -77t66.5 -29zM260 -153q62 0 102 26t40 62
q0 30 -22.5 42t-68.5 12h-75q-37 0 -65 7q-43 -32 -43 -72q0 -36 35 -56.5t97 -20.5z" />
    <glyph glyph-name="Hbar" unicode="&#x126;" horiz-adv-x="694" 
d="M664 544v-54h-72v-490h-102v298h-282v-298h-102v490h-76v49l76 5v111h102v-111h282v111h102v-111h72zM490 387v103h-282v-103h282z" />
    <glyph glyph-name="hbar" unicode="&#x127;" horiz-adv-x="552" 
d="M333 459q150 0 150 -193v-266h-101v253q0 63 -19.5 91t-63.5 28q-33 0 -59 -15.5t-62 -51.5v-305h-101v567h-72v49l72 5v88h101v-88h178v-54h-178v-88l-4 -97q81 77 159 77z" />
    <glyph glyph-name="Imacron" unicode="&#x12a;" horiz-adv-x="274" 
d="M-2 731v68h278v-68h-278zM86 0v655h102v-655h-102z" />
    <glyph glyph-name="imacron" unicode="&#x12b;" horiz-adv-x="255" 
d="M-9 598v68h274v-68h-274zM77 0v489h101v-489h-101z" />
    <glyph glyph-name="dotlessi" unicode="&#x131;" horiz-adv-x="255" 
d="M77 0v489h101v-489h-101z" />
    <glyph glyph-name="Lslash" unicode="&#x141;" horiz-adv-x="499" 
d="M194 86h278v-86h-380v232l-67 -39l-36 63l103 57v342h102v-296l170 92l36 -63l-206 -110v-192z" />
    <glyph glyph-name="lslash" unicode="&#x142;" horiz-adv-x="274" 
d="M208 71q9 0 18 2l13 -76q-23 -9 -55 -9q-101 0 -101 126v201l-54 -33l-36 64l90 54v309h101v-258l52 32l36 -64l-88 -52v-259q0 -37 24 -37z" />
    <glyph glyph-name="Omacron" unicode="&#x14c;" horiz-adv-x="670" 
d="M196 731v68h278v-68h-278zM335 -12q-127 0 -206 92.5t-79 249.5q0 156 78.5 246.5t206.5 90.5t206.5 -90.5t78.5 -246.5q0 -157 -79 -249.5t-206 -92.5zM335 77q82 0 131 69t49 184t-49 181.5t-131 66.5t-131 -66.5t-49 -181.5t49 -184t131 -69z" />
    <glyph glyph-name="omacron" unicode="&#x14d;" horiz-adv-x="546" 
d="M136 598v68h274v-68h-274zM273 -12q-95 0 -162.5 69.5t-67.5 186.5q0 118 67.5 187.5t162.5 69.5t162.5 -69.5t67.5 -187.5q0 -117 -67.5 -186.5t-162.5 -69.5zM273 71q58 0 92 47.5t34 125.5t-34.5 126t-91.5 48t-91.5 -48t-34.5 -126t34 -125.5t92 -47.5z" />
    <glyph glyph-name="Obreve" unicode="&#x14e;" horiz-adv-x="670" 
d="M335 703q-68 0 -106.5 36t-44.5 95l59 10q6 -36 29.5 -57.5t62.5 -21.5t62.5 21.5t29.5 57.5l59 -10q-6 -59 -44.5 -95t-106.5 -36zM335 -12q-127 0 -206 92.5t-79 249.5q0 156 78.5 246.5t206.5 90.5t206.5 -90.5t78.5 -246.5q0 -157 -79 -249.5t-206 -92.5zM335 77
q82 0 131 69t49 184t-49 181.5t-131 66.5t-131 -66.5t-49 -181.5t49 -184t131 -69z" />
    <glyph glyph-name="obreve" unicode="&#x14f;" horiz-adv-x="546" 
d="M273 571q-76 0 -116 44t-44 109l61 10q6 -41 31 -69t68 -28t68 28t31 69l61 -10q-4 -65 -43.5 -109t-116.5 -44zM273 -12q-95 0 -162.5 69.5t-67.5 186.5q0 118 67.5 187.5t162.5 69.5t162.5 -69.5t67.5 -187.5q0 -117 -67.5 -186.5t-162.5 -69.5zM273 71q58 0 92 47.5
t34 125.5t-34.5 126t-91.5 48t-91.5 -48t-34.5 -126t34 -125.5t92 -47.5z" />
    <glyph glyph-name="OE" unicode="&#x152;" horiz-adv-x="854" 
d="M370 0q-148 0 -234 86t-86 244q0 157 86.5 241t238.5 84h419v-86h-269v-184h225v-86h-225v-213h279v-86h-434zM382 83h41v489h-41q-110 0 -168.5 -60.5t-58.5 -181.5q0 -122 58.5 -184.5t168.5 -62.5z" />
    <glyph glyph-name="oe" unicode="&#x153;" horiz-adv-x="834" 
d="M265 -12q-94 0 -158 69.5t-64 186.5q0 118 65 187.5t159 69.5q55 0 100 -29t72 -83q29 53 72.5 82.5t94.5 29.5q90 0 140.5 -63.5t50.5 -169.5q0 -26 -4 -50h-310q4 -68 44.5 -108.5t98.5 -40.5q55 0 116 39l36 -68q-78 -52 -165 -52q-53 0 -98.5 29.5t-74.5 81.5
q-59 -111 -175 -111zM483 283h226q0 66 -27.5 102.5t-78.5 36.5q-47 0 -80 -37.5t-40 -101.5zM267 71q55 0 88.5 47.5t33.5 125.5t-33.5 126t-88.5 48q-54 0 -87.5 -48t-33.5 -126t33.5 -125.5t87.5 -47.5z" />
    <glyph glyph-name="Sacute" unicode="&#x15a;" horiz-adv-x="540" 
d="M267 692l-45 51l150 132l56 -67zM273 -12q-138 0 -233 97l60 70q78 -78 175 -78q58 0 91 25.5t33 68.5q0 22 -7 37.5t-24 28t-31 20t-43 19.5l-91 40q-133 55 -133 171q0 77 60.5 128.5t153.5 51.5q118 0 198 -82l-53 -65q-66 58 -145 58q-51 0 -81 -23t-30 -62
q0 -20 8 -35.5t26.5 -27.5t31.5 -18.5t40 -17.5l91 -39q64 -26 98.5 -67.5t34.5 -108.5q0 -81 -63 -136t-167 -55z" />
    <glyph glyph-name="sacute" unicode="&#x15b;" horiz-adv-x="426" 
d="M221 573l-51 50l145 171l70 -67zM210 -12q-102 0 -184 68l48 65q71 -56 139 -56q42 0 64 18.5t22 47.5q0 21 -18.5 38.5t-36 25t-53.5 21.5q-30 11 -50.5 21.5t-43.5 27.5t-35 40.5t-12 52.5q0 63 47 103t127 40q86 0 158 -57l-47 -63q-58 43 -109 43q-39 0 -59.5 -17
t-20.5 -44q0 -18 16 -33.5t29.5 -21.5t49.5 -19q7 -3 10 -4q26 -9 42 -16t37.5 -20t34 -27.5t21.5 -36t9 -48.5q0 -64 -49 -106.5t-136 -42.5z" />
    <glyph glyph-name="Scaron" unicode="&#x160;" horiz-adv-x="540" 
d="M228 705l-100 112l44 30l108 -90h4l108 90l44 -30l-100 -112h-108zM273 -12q-138 0 -233 97l60 70q78 -78 175 -78q58 0 91 25.5t33 68.5q0 22 -7 37.5t-24 28t-31 20t-43 19.5l-91 40q-133 55 -133 171q0 77 60.5 128.5t153.5 51.5q118 0 198 -82l-53 -65
q-66 58 -145 58q-51 0 -81 -23t-30 -62q0 -20 8 -35.5t26.5 -27.5t31.5 -18.5t40 -17.5l91 -39q64 -26 98.5 -67.5t34.5 -108.5q0 -81 -63 -136t-167 -55z" />
    <glyph glyph-name="scaron" unicode="&#x161;" horiz-adv-x="426" 
d="M177 575l-112 137l41 38l120 -107h4l120 107l41 -38l-112 -137h-102zM210 -12q-102 0 -184 68l48 65q71 -56 139 -56q42 0 64 18.5t22 47.5q0 21 -18.5 38.5t-36 25t-53.5 21.5q-30 11 -50.5 21.5t-43.5 27.5t-35 40.5t-12 52.5q0 63 47 103t127 40q86 0 158 -57l-47 -63
q-58 43 -109 43q-39 0 -59.5 -17t-20.5 -44q0 -18 16 -33.5t29.5 -21.5t49.5 -19q7 -3 10 -4q26 -9 42 -16t37.5 -20t34 -27.5t21.5 -36t9 -48.5q0 -64 -49 -106.5t-136 -42.5z" />
    <glyph glyph-name="Umacron" unicode="&#x16a;" horiz-adv-x="651" 
d="M186 731v68h278v-68h-278zM326 -12q-243 0 -243 292v375h102v-381q0 -197 141 -197q144 0 144 197v381h98v-375q0 -292 -242 -292z" />
    <glyph glyph-name="umacron" unicode="&#x16b;" horiz-adv-x="551" 
d="M144 598v68h274v-68h-274zM221 -12q-150 0 -150 193v308h101v-295q0 -63 19.5 -91t63.5 -28q34 0 60 17t58 57v340h101v-489h-83l-8 74h-3q-73 -86 -159 -86z" />
    <glyph glyph-name="Ydieresis" unicode="&#x178;" horiz-adv-x="490" 
d="M140 711q-24 0 -39.5 15.5t-15.5 39.5t15.5 39.5t39.5 15.5t39.5 -15.5t15.5 -39.5t-15.5 -39.5t-39.5 -15.5zM350 711q-24 0 -39.5 15.5t-15.5 39.5t15.5 39.5t39.5 15.5t39.5 -15.5t15.5 -39.5t-15.5 -39.5t-39.5 -15.5zM194 0v248l-197 407h109l77 -175
q41 -99 61 -143h4q5 12 28 63.5t34 79.5l77 175h106l-197 -407v-248h-102z" />
    <glyph glyph-name="Zcaron" unicode="&#x17d;" horiz-adv-x="540" 
d="M227 705l-100 112l44 30l108 -90h4l108 90l44 -30l-100 -112h-108zM42 0v61l329 508h-299v86h425v-61l-329 -508h332v-86h-458z" />
    <glyph glyph-name="zcaron" unicode="&#x17e;" horiz-adv-x="435" 
d="M187 575l-112 137l41 38l120 -107h4l120 107l41 -38l-112 -137h-102zM33 0v54l242 354h-215v81h342v-54l-242 -354h250v-81h-377z" />
    <glyph glyph-name="uni018F" unicode="&#x18f;" horiz-adv-x="663" 
d="M334 667q130 0 204.5 -88t74.5 -250t-76.5 -251.5t-206.5 -89.5q-128 0 -201 89.5t-73 246.5q0 10 2 32h453q-5 112 -52 169.5t-135 57.5q-87 0 -155 -64l-48 70q83 78 213 78zM330 72q77 0 123.5 53t56.5 155h-350q4 -100 49.5 -154t120.5 -54z" />
    <glyph glyph-name="florin" unicode="&#x192;" 
d="M397 585q-73 0 -86 -115l-7 -60h119v-76h-128l-25 -223q-11 -100 -49.5 -154t-122.5 -54q-49 0 -76 15l16 76q21 -10 48 -10q42 1 62.5 36t28.5 116l22 198h-84v71l71 5h21l6 52q12 105 53 155t125 50q42 0 80 -18l-20 -77q-30 13 -54 13z" />
    <glyph glyph-name="Gcaron" unicode="&#x1e6;" horiz-adv-x="623" 
d="M303 705l-100 112l44 30l108 -90h4l108 90l44 -30l-100 -112h-108zM353 -12q-135 0 -219 90t-84 248q0 156 86 248.5t220 92.5q114 0 194 -82l-55 -66q-59 59 -136 59q-93 0 -148.5 -67t-55.5 -182q0 -118 54 -185t154 -67q68 0 104 33v154h-130v84h222v-283
q-34 -35 -88 -56t-118 -21z" />
    <glyph glyph-name="gcaron" unicode="&#x1e7;" horiz-adv-x="513" 
d="M213 575l-112 137l41 38l120 -107h4l120 107l41 -38l-112 -137h-102zM245 -220q-91 0 -147 33.5t-56 95.5q0 63 71 107v4q-44 28 -44 81t54 91v4q-27 21 -45.5 55t-18.5 75q0 80 55 127.5t134 47.5q38 0 71 -12h173v-76h-94q33 -35 33 -90q0 -78 -52 -123t-131 -45
q-36 0 -69 15q-27 -24 -27 -52q0 -48 82 -48h91q175 0 175 -119q0 -72 -70.5 -121.5t-184.5 -49.5zM248 220q40 0 66.5 29t26.5 77t-26.5 76t-66.5 28t-66.5 -28t-26.5 -76t26.5 -77t66.5 -29zM260 -153q62 0 102 26t40 62q0 30 -22.5 42t-68.5 12h-75q-37 0 -65 7
q-43 -32 -43 -72q0 -36 35 -56.5t97 -20.5z" />
    <glyph glyph-name="uni0250" unicode="&#x250;" horiz-adv-x="518" 
d="M272 -12q-102 0 -152 56t-50 158v287h83l8 -66h3q75 78 168 78q60 0 96 -34.5t36 -94.5q0 -83 -70.5 -130.5t-222.5 -64.5q4 -107 115 -107q58 0 135 50l38 -68q-94 -64 -187 -64zM171 242q105 14 150 42t45 73q0 32 -19 48t-50 16q-61 0 -126 -69v-110z" />
    <glyph glyph-name="uni0254" unicode="&#x254;" horiz-adv-x="459" 
d="M183 -12q-90 0 -159 61l42 67q52 -45 107 -45q61 0 100 48t39 125q0 78 -37.5 126t-94.5 48q-54 0 -98 -39l-50 66q67 56 159 56q95 0 160 -69t65 -188q0 -118 -66 -187t-167 -69z" />
    <glyph glyph-name="uni0259" unicode="&#x259;" horiz-adv-x="502" 
d="M241 -12q-95 0 -149.5 64t-54.5 172q0 33 5 53h318q-5 68 -41 106.5t-95 38.5q-61 0 -121 -39l-35 68q75 50 172 50q96 0 157.5 -69t61.5 -187q0 -116 -62.5 -186.5t-155.5 -70.5zM239 67q51 0 83 36.5t39 103.5h-236q0 -68 30 -104t84 -36z" />
    <glyph glyph-name="uni025B" unicode="&#x25b;" horiz-adv-x="446" 
d="M255 -12q-87 0 -146.5 40.5t-59.5 107.5q0 93 107 121v4q-39 13 -60.5 42.5t-21.5 63.5q0 65 52.5 99.5t131.5 34.5q82 0 151 -47l-39 -67q-56 35 -108 35q-39 0 -63.5 -18t-24.5 -50q0 -66 100 -66h59v-70h-74q-110 0 -110 -72q0 -36 32.5 -57.5t84.5 -21.5q60 0 119 41
l41 -66q-77 -54 -171 -54z" />
    <glyph glyph-name="uni0283" unicode="&#x283;" horiz-adv-x="256" 
d="M33 -211q-43 0 -76 13l19 76q26 -8 44 -8q33 0 45.5 22.5t12.5 68.5v588q0 173 156 173q36 0 66 -13l-19 -76q-20 8 -34 8q-38 0 -53 -22.5t-15 -68.5v-588q0 -173 -146 -173z" />
    <glyph glyph-name="uni028E" unicode="&#x28e;" horiz-adv-x="483" 
d="M12 0l190 546q31 86 75 130.5t117 44.5q33 0 61 -10l-19 -79q-21 7 -36 7q-72 0 -103 -93l-20 -60l194 -486h-103l-91 253q-7 19 -14.5 42t-16.5 52t-14 44h-4q-6 -19 -19 -66.5t-20 -71.5l-79 -253h-98z" />
    <glyph glyph-name="uni0292" unicode="&#x292;" horiz-adv-x="435" 
d="M203 -211q-115 0 -199 78l48 64q65 -59 141 -59q52 0 86.5 37.5t34.5 98.5q0 57 -32.5 89t-90.5 32q-27 0 -62 -15l-37 53l180 241h-230v81h352v-54l-177 -236q91 5 145 -48t54 -140q0 -102 -62.5 -162t-150.5 -60z" />
    <glyph glyph-name="uni0294" unicode="&#x294;" horiz-adv-x="426" 
d="M141 0v322q89 53 126.5 97.5t37.5 102.5q0 54 -30.5 85t-85.5 31q-78 0 -140 -70l-52 65q82 88 201 88q91 0 150 -51t59 -145q0 -78 -41 -132t-124 -113v-280h-101z" />
    <glyph glyph-name="uni0295" unicode="&#x295;" horiz-adv-x="461" 
d="M199 0v280q-83 59 -124 113t-41 132q0 94 62 145t157 51q113 0 191 -88l-52 -65q-57 70 -130 70q-59 0 -92.5 -31t-33.5 -85q0 -58 37.5 -102.5t126.5 -97.5v-322h-101z" />
    <glyph glyph-name="uni02A7" unicode="&#x2a7;" horiz-adv-x="495" 
d="M382 -211q-43 0 -76 13l19 76q26 -8 44 -8q33 0 45.5 22.5t12.5 68.5v588q0 173 156 173q36 0 66 -13l-19 -76q-20 8 -34 8q-38 0 -53 -22.5t-15 -68.5v-588q0 -173 -146 -173zM241 -12q-148 0 -148 171v249h-71v76l76 5l12 135h84v-135h128v-81h-128v-249q0 -90 72 -90
q23 0 53 12l18 -75q-54 -18 -96 -18z" />
    <glyph glyph-name="uni02B9" unicode="&#x2b9;" horiz-adv-x="264" 
 />
    <glyph glyph-name="circumflex" unicode="&#x2c6;" horiz-adv-x="546" 
d="M151 566l-41 38l112 137h102l112 -137l-41 -38l-120 107h-4z" />
    <glyph glyph-name="caron" unicode="&#x2c7;" horiz-adv-x="546" 
d="M222 575l-112 137l41 38l120 -107h4l120 107l41 -38l-112 -137h-102z" />
    <glyph glyph-name="uni02C8" unicode="&#x2c8;" horiz-adv-x="124" 
d="M26 535l-6 198h84l-6 -198h-72z" />
    <glyph glyph-name="uni02D0" unicode="&#x2d0;" horiz-adv-x="264" 
d="M180 236l14 -62h-28l-6 -29h-56l-6 29h-28l14 62l-14 62h28l6 28h56l6 -28h28z" />
    <glyph glyph-name="breve" unicode="&#x2d8;" horiz-adv-x="546" 
d="M273 571q-76 0 -116 44t-44 109l61 10q6 -41 31 -69t68 -28t68 28t31 69l61 -10q-4 -65 -43.5 -109t-116.5 -44z" />
    <glyph glyph-name="dotaccent" unicode="&#x2d9;" horiz-adv-x="546" 
d="M273 581q-27 0 -44.5 17t-17.5 44q0 26 17.5 43t44.5 17t44.5 -17t17.5 -43q0 -27 -17.5 -44t-44.5 -17z" />
    <glyph glyph-name="ring" unicode="&#x2da;" horiz-adv-x="546" 
d="M273 557q-54 0 -85 28t-31 72t31 72t85 28t85 -28t31 -72t-31 -72t-85 -28zM273 599q23 0 38 16t15 42t-15 42t-38 16t-38 -16t-15 -42t15 -42t38 -16z" />
    <glyph glyph-name="ogonek" unicode="&#x2db;" horiz-adv-x="546" 
 />
    <glyph glyph-name="tilde" unicode="&#x2dc;" horiz-adv-x="546" 
d="M344 576q-30 0 -56 19.5t-46.5 39t-37.5 19.5q-38 0 -43 -72l-66 4q5 140 108 140q29 0 55 -19.5t47 -39t38 -19.5q37 0 42 72l66 -4q-2 -66 -28.5 -103t-78.5 -37z" />
    <glyph glyph-name="hungarumlaut" unicode="&#x2dd;" horiz-adv-x="546" 
d="M222 567l-55 25l87 175l70 -33zM381 567l-55 25l87 175l70 -33z" />
    <glyph glyph-name="gravecomb" unicode="&#x300;" horiz-adv-x="0" 
d="M7 573l-164 154l70 67l145 -171z" />
    <glyph glyph-name="acutecomb" unicode="&#x301;" horiz-adv-x="0" 
d="M-7 573l-51 50l145 171l70 -67z" />
    <glyph glyph-name="uni0302" unicode="&#x302;" horiz-adv-x="0" 
d="M-122 566l-41 38l112 137h102l112 -137l-41 -38l-120 107h-4z" />
    <glyph glyph-name="tildecomb" unicode="&#x303;" horiz-adv-x="0" 
d="M71 576q-30 0 -56 19.5t-46.5 39t-37.5 19.5q-38 0 -43 -72l-66 4q5 140 108 140q29 0 55 -19.5t47 -39t38 -19.5q37 0 42 72l66 -4q-2 -66 -28.5 -103t-78.5 -37z" />
    <glyph glyph-name="uni0304" unicode="&#x304;" horiz-adv-x="0" 
d="M-137 598v68h274v-68h-274z" />
    <glyph glyph-name="uni0306" unicode="&#x306;" horiz-adv-x="0" 
d="M0 571q-76 0 -116 44t-44 109l61 10q6 -41 31 -69t68 -28t68 28t31 69l61 -10q-4 -65 -43.5 -109t-116.5 -44z" />
    <glyph glyph-name="uni0307" unicode="&#x307;" horiz-adv-x="0" 
d="M0 581q-27 0 -44.5 17t-17.5 44q0 26 17.5 43t44.5 17t44.5 -17t17.5 -43q0 -27 -17.5 -44t-44.5 -17z" />
    <glyph glyph-name="uni0308" unicode="&#x308;" horiz-adv-x="0" 
d="M-100 582q-24 0 -40 16t-16 40t15.5 40t40.5 16q24 0 40 -16t16 -40q0 -23 -16 -39.5t-40 -16.5zM100 582q-24 0 -40 16.5t-16 39.5q0 24 16 40t40 16q25 0 40.5 -16t15.5 -40t-16 -40t-40 -16z" />
    <glyph glyph-name="uni030A" unicode="&#x30a;" horiz-adv-x="0" 
d="M0 557q-54 0 -85 28t-31 72t31 72t85 28t85 -28t31 -72t-31 -72t-85 -28zM0 599q23 0 38 16t15 42t-15 42t-38 16t-38 -16t-15 -42t15 -42t38 -16z" />
    <glyph glyph-name="uni030B" unicode="&#x30b;" horiz-adv-x="0" 
d="M-51 567l-55 25l87 175l70 -33zM108 567l-55 25l87 175l70 -33z" />
    <glyph glyph-name="uni030C" unicode="&#x30c;" horiz-adv-x="0" 
d="M-51 575l-112 137l41 38l120 -107h4l120 107l41 -38l-112 -137h-102z" />
    <glyph glyph-name="uni031E" unicode="&#x31e;" horiz-adv-x="0" 
d="M-29 -251v105h-70v54h198v-54h-70v-105h-58z" />
    <glyph glyph-name="dotbelowcomb" unicode="&#x323;" horiz-adv-x="0" 
d="M0 -212q-27 0 -44.5 17t-17.5 44q0 26 17.5 43t44.5 17t44.5 -17t17.5 -43q0 -27 -17.5 -44t-44.5 -17z" />
    <glyph glyph-name="uni0327" unicode="&#x327;" horiz-adv-x="0" 
d="M-91 -230l-9 46q60 4 83.5 15t23.5 33q0 19 -17.5 29.5t-59.5 16.5l45 93h63l-29 -66q74 -17 74 -72q0 -87 -174 -95z" />
    <glyph glyph-name="uni032E" unicode="&#x32e;" horiz-adv-x="0" 
d="M0 -232q-76 0 -116 44t-44 109l61 10q6 -41 31 -69t68 -28t68 28t31 69l61 -10q-4 -65 -43.5 -109t-116.5 -44z" />
    <glyph glyph-name="uni0331" unicode="&#x331;" horiz-adv-x="0" 
d="M-137 -176v68h274v-68h-274z" />
    <glyph glyph-name="uni0361" unicode="&#x361;" horiz-adv-x="0" 
d="M-427 546l-28 49q205 126 455 126t455 -126l-28 -49q-180 107 -427 107t-427 -107z" />
    <glyph glyph-name="theta" unicode="&#x3b8;" horiz-adv-x="530" 
d="M265 721q98 0 153.5 -93.5t55.5 -270.5q0 -185 -55 -277t-154 -92t-154 92t-55 277q0 177 55.5 270.5t153.5 93.5zM265 638q-102 0 -109 -245h218q-7 245 -109 245zM265 71q103 0 110 252h-220q7 -252 110 -252z" />
    <glyph glyph-name="pi" unicode="&#x3c0;" horiz-adv-x="600" 
d="M496 -12q-63 0 -90.5 34.5t-27.5 101.5q0 21 2 126.5t3 156.5h-156q0 -145 -28 -413l-102 6q35 207 35 407h-111v77l71 5h484v-82h-96q-7 -120 -7 -289q0 -47 45 -47q10 0 38 5l13 -76q-34 -12 -73 -12z" />
    <glyph glyph-name="chi" unicode="&#x3c7;" horiz-adv-x="494" 
d="M112 -190l-103 12l192 342l-190 313l100 24l138 -247h4l114 235h106l-172 -323l202 -332l-99 -24l-151 272h-4z" />
    <glyph glyph-name="uni05B0" unicode="&#x5b0;" horiz-adv-x="0" 
d="M64 -73q14 0 22.5 -10t8.5 -23q0 -14 -8.5 -23.5t-22.5 -9.5t-23 9.5t-9 23.5q0 13 9 23t23 10zM64 -171q14 0 22.5 -10.5t8.5 -23.5q0 -14 -8.5 -23.5t-22.5 -9.5t-23 9.5t-9 23.5q0 13 9 23.5t23 10.5z" />
    <glyph glyph-name="uni05B1" unicode="&#x5b1;" horiz-adv-x="0" 
d="M64 -73q14 0 22.5 -10t8.5 -23q0 -14 -8.5 -23.5t-22.5 -9.5t-23 9.5t-9 23.5q0 13 9 23t23 10zM168 -73q14 0 22.5 -10t8.5 -23q0 -14 -8.5 -23.5t-22.5 -9.5t-23 9.5t-9 23.5q0 13 9 23t23 10zM272 -73q14 0 22.5 -10t8.5 -23q0 -14 -8.5 -23.5t-22.5 -9.5t-23 9.5
t-9 23.5q0 13 9 23t23 10zM115 -171q14 0 22.5 -10.5t8.5 -23.5q0 -14 -8.5 -23.5t-22.5 -9.5q-13 0 -22.5 9.5t-9.5 23.5q0 13 9.5 23.5t22.5 10.5zM272 -171q14 0 22.5 -10.5t8.5 -23.5q0 -14 -8.5 -23.5t-22.5 -9.5t-23 9.5t-9 23.5q0 13 9 23.5t23 10.5z" />
    <glyph glyph-name="uni05B2" unicode="&#x5b2;" horiz-adv-x="0" 
d="M261 -73q14 0 22.5 -10t8.5 -23q0 -14 -8.5 -23.5t-22.5 -9.5t-23 9.5t-9 23.5q0 13 9 23t23 10zM194 -85v-37h-162v37h162zM261 -171q14 0 22.5 -10.5t8.5 -23.5q0 -14 -8.5 -23.5t-22.5 -9.5t-23 9.5t-9 23.5q0 13 9 23.5t23 10.5z" />
    <glyph glyph-name="uni05B3" unicode="&#x5b3;" horiz-adv-x="0" 
d="M261 -73q14 0 22.5 -10t8.5 -23q0 -14 -8.5 -23.5t-22.5 -9.5t-23 9.5t-9 23.5q0 13 9 23t23 10zM194 -85v-37h-67l7 -100h-42l7 100h-67v37h162zM261 -171q14 0 22.5 -10.5t8.5 -23.5q0 -14 -8.5 -23.5t-22.5 -9.5t-23 9.5t-9 23.5q0 13 9 23.5t23 10.5z" />
    <glyph glyph-name="uni05B4" unicode="&#x5b4;" horiz-adv-x="0" 
d="M64 -73q14 0 22.5 -10t8.5 -23q0 -14 -8.5 -23.5t-22.5 -9.5t-23 9.5t-9 23.5q0 13 9 23t23 10z" />
    <glyph glyph-name="uni05B5" unicode="&#x5b5;" horiz-adv-x="0" 
d="M64 -73q14 0 22.5 -10t8.5 -23q0 -14 -8.5 -23.5t-22.5 -9.5t-23 9.5t-9 23.5q0 13 9 23t23 10zM171 -73q14 0 22.5 -10t8.5 -23q0 -14 -8.5 -23.5t-22.5 -9.5q-13 0 -22.5 9.5t-9.5 23.5q0 13 9.5 23t22.5 10z" />
    <glyph glyph-name="uni05B6" unicode="&#x5b6;" horiz-adv-x="0" 
d="M64 -73q14 0 22.5 -10t8.5 -23q0 -14 -8.5 -23.5t-22.5 -9.5t-23 9.5t-9 23.5q0 13 9 23t23 10zM171 -73q14 0 22.5 -10t8.5 -23q0 -14 -8.5 -23.5t-22.5 -9.5q-13 0 -22.5 9.5t-9.5 23.5q0 13 9.5 23t22.5 10zM117 -162q14 0 22.5 -9.5t8.5 -22.5q0 -14 -8.5 -24
t-22.5 -10t-23 10t-9 24q0 13 9 22.5t23 9.5z" />
    <glyph glyph-name="uni05B7" unicode="&#x5b7;" horiz-adv-x="0" 
d="M194 -69v-37h-162v37h162z" />
    <glyph glyph-name="uni05B8" unicode="&#x5b8;" horiz-adv-x="0" 
d="M194 -69v-37h-67l7 -100h-42l7 100h-67v37h162z" />
    <glyph glyph-name="uni05B9" unicode="&#x5b9;" horiz-adv-x="0" 
d="M64 580q14 0 22.5 -10t8.5 -23q0 -14 -8.5 -24t-22.5 -10t-23 10t-9 24q0 13 9 23t23 10z" />
    <glyph glyph-name="uni05BA" unicode="&#x5ba;" horiz-adv-x="0" 
d="M64 513q-14 0 -23 10.5t-9 23.5t9 23t23 10t22.5 -10t8.5 -23t-8.5 -23.5t-22.5 -10.5z" />
    <glyph glyph-name="uni05BB" unicode="&#x5bb;" horiz-adv-x="0" 
d="M64 -73q14 0 22.5 -10t8.5 -23q0 -14 -8.5 -23.5t-22.5 -9.5t-23 9.5t-9 23.5q0 13 9 23t23 10zM132 -137q14 0 22.5 -10t8.5 -23q0 -14 -8.5 -23.5t-22.5 -9.5t-23 9.5t-9 23.5q0 13 9 23t23 10zM200 -201q14 0 22.5 -10t8.5 -23q0 -14 -8.5 -23.5t-22.5 -9.5t-23 9.5
t-9 23.5q0 13 9 23t23 10z" />
    <glyph glyph-name="uni05BC" unicode="&#x5bc;" horiz-adv-x="0" 
d="M64 323q14 0 22.5 -10t8.5 -23q0 -14 -8.5 -24t-22.5 -10t-23 10t-9 24q0 13 9 23t23 10z" />
    <glyph glyph-name="uni05BE" unicode="&#x5be;" horiz-adv-x="321" 
d="M45 480v82h231v-82h-231z" />
    <glyph glyph-name="uni05BF" unicode="&#x5bf;" horiz-adv-x="0" 
d="M221 573v-45h-189v45h189z" />
    <glyph glyph-name="uni05C0" unicode="&#x5c0;" horiz-adv-x="192" 
d="M68 -100v745h57v-745h-57z" />
    <glyph glyph-name="uni05C1" unicode="&#x5c1;" horiz-adv-x="0" 
d="M64 588q14 0 22.5 -10t8.5 -23t-8.5 -23.5t-22.5 -10.5t-23 10.5t-9 23.5t9 23t23 10z" />
    <glyph glyph-name="uni05C2" unicode="&#x5c2;" horiz-adv-x="0" 
d="M64 588q14 0 22.5 -10t8.5 -23t-8.5 -23.5t-22.5 -10.5t-23 10.5t-9 23.5t9 23t23 10z" />
    <glyph glyph-name="uni05C3" unicode="&#x5c3;" horiz-adv-x="235" 
d="M118 350l-66 67l66 65l65 -65zM118 17l-66 67l66 65l65 -65z" />
    <glyph glyph-name="uni05C7" unicode="&#x5c7;" horiz-adv-x="0" 
d="M130 -69v-37h-41l13 -100h-42l13 100h-41v37h98z" />
    <glyph glyph-name="uni05D0" unicode="&#x5d0;" horiz-adv-x="586" 
d="M553 0h-114l-210 319l-99 -319h-102l110 344l28 71l-92 147h109l84 -135l84 -126l25 87l51 174h103l-116 -354z" />
    <glyph glyph-name="uni05D1" unicode="&#x5d1;" horiz-adv-x="534" 
d="M430 82h69v-82h-176h-278v82h278v298q0 100 -90 100h-188v82h215q170 0 170 -187v-293z" />
    <glyph glyph-name="uni05D2" unicode="&#x5d2;" horiz-adv-x="395" 
d="M352 0h-102l-22 123q-56 -101 -167 -139l-39 85q136 46 189 152v175q0 44 -11.5 63.5t-43.5 24.5l-63 9l14 81l99 -14q59 -9 85.5 -46t26.5 -107v-192z" />
    <glyph glyph-name="uni05D3" unicode="&#x5d3;" horiz-adv-x="539" 
d="M287 0v363q0 78 28 117h-270v82h446v-82h-75q-22 -42 -22 -117v-363h-107z" />
    <glyph glyph-name="uni05D4" unicode="&#x5d4;" horiz-adv-x="558" 
d="M394 0v380q0 100 -90 100h-246v82h273q170 0 170 -187v-375h-107zM55 0v272l15 67h92v-339h-107z" />
    <glyph glyph-name="uni05D5" unicode="&#x5d5;" horiz-adv-x="240" 
d="M70 0v445l-12 117h106l13 -117v-445h-107z" />
    <glyph glyph-name="uni05D6" unicode="&#x5d6;" horiz-adv-x="367" 
d="M116 0v363q0 78 28 117h-96v82h272v-82h-78q-19 -36 -19 -117v-363h-107z" />
    <glyph glyph-name="uni05D7" unicode="&#x5d7;" horiz-adv-x="578" 
d="M347 562q81 0 125.5 -49t44.5 -148v-365h-107v370q0 110 -90 110h-154v-480h-107v519v43h288z" />
    <glyph glyph-name="uni05D8" unicode="&#x5d8;" horiz-adv-x="570" 
d="M112 -10l-67 572h107l54 -475q231 23 224 242v28q0 54 -29 89t-86 39l-50 3l8 84l59 -3q90 -6 144 -55.5t58 -143.5l1 -28q6 -174 -107.5 -258.5t-315.5 -93.5z" />
    <glyph glyph-name="uni05D9" unicode="&#x5d9;" horiz-adv-x="240" 
d="M70 210v235l-12 117h106l13 -117v-152l-1 -63z" />
    <glyph glyph-name="uni05DA" unicode="&#x5da;" horiz-adv-x="507" 
d="M338 -200v580q0 100 -90 100h-200v82h227q170 0 170 -187v-575h-107z" />
    <glyph glyph-name="uni05DB" unicode="&#x5db;" horiz-adv-x="478" 
d="M38 0v82h144q71 0 106 43t35 122v68q0 165 -141 165h-144v82h170q107 0 164.5 -66t57.5 -186v-58q0 -120 -57.5 -186t-164.5 -66h-170z" />
    <glyph glyph-name="uni05DC" unicode="&#x5dc;" horiz-adv-x="486" 
d="M135 562h311v-89l-187 -473h-107l187 480h-301v237h97v-155z" />
    <glyph glyph-name="uni05DD" unicode="&#x5dd;" horiz-adv-x="585" 
d="M355 562q170 0 170 -187v-375h-107h-328h-25v562h107h183zM172 82h246v298q0 100 -90 100h-156v-398z" />
    <glyph glyph-name="uni05DE" unicode="&#x5de;" horiz-adv-x="621" 
d="M576 294q3 -171 -83 -251t-241 -45l11 82q114 -25 163.5 29.5t47.5 184.5q-3 190 -129 190q-48 0 -78.5 -27.5t-40.5 -73.5l-67 -383h-107l72 387l-78 175h111l45 -118q21 63 64 94.5t98 31.5q99 0 154.5 -67t57.5 -209z" />
    <glyph glyph-name="uni05DF" unicode="&#x5df;" horiz-adv-x="240" 
d="M70 -200v645l-12 117h106l13 -117v-645h-107z" />
    <glyph glyph-name="uni05E0" unicode="&#x5e0;" horiz-adv-x="374" 
d="M44 0v82h162v314q0 43 -17 62.5t-51 24.5l-68 10l14 81l104 -15q60 -9 92.5 -50.5t32.5 -110.5v-398h-269z" />
    <glyph glyph-name="uni05E1" unicode="&#x5e1;" horiz-adv-x="583" 
d="M533 325q2 -72 -17.5 -128t-55.5 -93.5t-90.5 -62.5t-117 -36.5t-139.5 -14.5l-58 490l-10 82h288q93 0 144.5 -55t54.5 -150zM207 87q112 10 168 64.5t52 175.5v27q0 56 -27 91t-75 35h-163z" />
    <glyph glyph-name="uni05E2" unicode="&#x5e2;" horiz-adv-x="551" 
d="M397 562h106q0 -67 -0.5 -108.5t-3.5 -94t-8.5 -84t-15.5 -69.5t-24.5 -61t-35.5 -48.5t-49 -41t-64 -29t-81 -22.5l-188 -37l-15 84l169 33l-123 478h107l112 -453q21 9 37.5 21t28.5 32t20.5 36t13.5 49t8 54.5t4.5 70t1.5 77.5v93v20z" />
    <glyph glyph-name="uni05E3" unicode="&#x5e3;" horiz-adv-x="555" 
d="M288 562q100 0 152 -65.5t52 -185.5v-511h-107v515q0 165 -123 165h-92l-16 -81q-19 -108 48 -121l-22 -66q-160 15 -123 192l34 158h197z" />
    <glyph glyph-name="uni05E4" unicode="&#x5e4;" horiz-adv-x="548" 
d="M66 0v82h181q69 0 109 41t40 125v67q0 79 -32 122t-96 43h-90l-22 -99q-11 -49 3.5 -74.5t64.5 -35.5l-19 -69q-177 11 -144 188l39 172h191q100 0 156 -66t56 -185v-58q0 -125 -64 -189t-170 -64h-203z" />
    <glyph glyph-name="uni05E5" unicode="&#x5e5;" horiz-adv-x="496" 
d="M473 562l-186 -445l102 -317h-103l-246 762h103l101 -313l128 313h101z" />
    <glyph glyph-name="uni05E6" unicode="&#x5e6;" horiz-adv-x="536" 
d="M489 562l-142 -321l140 -241h-109h-343v82h295l-279 480h109l129 -222l93 222h107z" />
    <glyph glyph-name="uni05E7" unicode="&#x5e7;" horiz-adv-x="567" 
d="M241 -1l-10 83q49 5 80.5 21.5t54 62t27.5 121.5l15 193h-354v82h469l-4 -72l-14 -178q-7 -147 -73 -228t-191 -85zM52 -200v482l15 68h92v-550h-107z" />
    <glyph glyph-name="uni05E8" unicode="&#x5e8;" horiz-adv-x="480" 
d="M310 0v380q0 100 -90 100h-185v82h212q170 0 170 -187v-375h-107z" />
    <glyph glyph-name="uni05E9" unicode="&#x5e9;" horiz-adv-x="652" 
d="M604 408q2 -211 -118 -315.5t-368 -102.5l-73 572h102l32 -266q55 27 75 71t22 132v62h102l-1 -60q-2 -110 -44 -176.5t-144 -107.5l16 -136q151 10 222.5 90t70.5 232l-2 159h107z" />
    <glyph glyph-name="uni05EA" unicode="&#x5ea;" horiz-adv-x="618" 
d="M30 -16l-10 75q58 6 78 31t20 81v391h270q170 0 170 -187v-375h-107v380q0 100 -90 100h-136v-297q0 -99 -46 -144t-149 -55z" />
    <glyph glyph-name="uni05F3" unicode="&#x5f3;" horiz-adv-x="239" 
d="M105 497l-55 25l87 175l70 -33z" />
    <glyph glyph-name="uni05F4" unicode="&#x5f4;" horiz-adv-x="418" 
d="M105 497l-55 25l87 175l70 -33zM264 497l-55 25l87 175l70 -33z" />
    <glyph glyph-name="uni1E06" unicode="&#x1e06;" horiz-adv-x="593" 
d="M86 0v655h203q230 0 230 -161q0 -49 -25 -88t-68 -54v-4q59 -13 94 -52.5t35 -103.5q0 -94 -68.5 -143t-181.5 -49h-219zM188 381h89q142 0 142 99q0 51 -34 73t-105 22h-92v-194zM188 80h105q162 0 162 117q0 107 -162 107h-105v-224zM169 -176v68h274v-68h-274z" />
    <glyph glyph-name="uni1E07" unicode="&#x1e07;" horiz-adv-x="559" 
d="M305 -12q-70 0 -136 63h-3l-9 -51h-80v709h101v-188l-3 -84q74 64 147 64q92 0 142.5 -67t50.5 -181q0 -121 -61.5 -193t-148.5 -72zM285 72q56 0 91 47.5t35 131.5q0 166 -116 166q-55 0 -117 -60v-240q52 -45 107 -45zM146 -176v68h274v-68h-274z" />
    <glyph glyph-name="uni1E0C" unicode="&#x1e0c;" horiz-adv-x="621" 
d="M86 0v655h170q152 0 233.5 -83t81.5 -242t-81 -244.5t-229 -85.5h-175zM188 83h61q106 0 161.5 62.5t55.5 184.5q0 242 -217 242h-61v-489zM307 -212q-27 0 -44.5 17t-17.5 44q0 26 17.5 43t44.5 17t44.5 -17t17.5 -43q0 -27 -17.5 -44t-44.5 -17z" />
    <glyph glyph-name="uni1E0D" unicode="&#x1e0d;" horiz-adv-x="560" 
d="M246 -12q-92 0 -146.5 68t-54.5 188q0 115 62 186t147 71q67 0 132 -55l-4 81v182h101v-709h-83l-8 55h-3q-67 -67 -143 -67zM270 72q59 0 112 60v240q-50 45 -108 45q-53 0 -89 -47t-36 -125q0 -83 31.5 -128t89.5 -45zM296 -212q-27 0 -44.5 17t-17.5 44q0 26 17.5 43
t44.5 17t44.5 -17t17.5 -43q0 -27 -17.5 -44t-44.5 -17z" />
    <glyph glyph-name="uni1E0E" unicode="&#x1e0e;" horiz-adv-x="621" 
d="M86 0v655h170q152 0 233.5 -83t81.5 -242t-81 -244.5t-229 -85.5h-175zM188 83h61q106 0 161.5 62.5t55.5 184.5q0 242 -217 242h-61v-489zM170 -176v68h274v-68h-274z" />
    <glyph glyph-name="uni1E0F" unicode="&#x1e0f;" horiz-adv-x="560" 
d="M246 -12q-92 0 -146.5 68t-54.5 188q0 115 62 186t147 71q67 0 132 -55l-4 81v182h101v-709h-83l-8 55h-3q-67 -67 -143 -67zM270 72q59 0 112 60v240q-50 45 -108 45q-53 0 -89 -47t-36 -125q0 -83 31.5 -128t89.5 -45zM159 -176v68h274v-68h-274z" />
    <glyph glyph-name="uni1E20" unicode="&#x1e20;" horiz-adv-x="623" 
d="M218 731v68h278v-68h-278zM353 -12q-135 0 -219 90t-84 248q0 156 86 248.5t220 92.5q114 0 194 -82l-55 -66q-59 59 -136 59q-93 0 -148.5 -67t-55.5 -182q0 -118 54 -185t154 -67q68 0 104 33v154h-130v84h222v-283q-34 -35 -88 -56t-118 -21z" />
    <glyph glyph-name="uni1E21" unicode="&#x1e21;" horiz-adv-x="513" 
d="M127 598v68h274v-68h-274zM245 -220q-91 0 -147 33.5t-56 95.5q0 63 71 107v4q-44 28 -44 81t54 91v4q-27 21 -45.5 55t-18.5 75q0 80 55 127.5t134 47.5q38 0 71 -12h173v-76h-94q33 -35 33 -90q0 -78 -52 -123t-131 -45q-36 0 -69 15q-27 -24 -27 -52q0 -48 82 -48h91
q175 0 175 -119q0 -72 -70.5 -121.5t-184.5 -49.5zM248 220q40 0 66.5 29t26.5 77t-26.5 76t-66.5 28t-66.5 -28t-26.5 -76t26.5 -77t66.5 -29zM260 -153q62 0 102 26t40 62q0 30 -22.5 42t-68.5 12h-75q-37 0 -65 7q-43 -32 -43 -72q0 -36 35 -56.5t97 -20.5z" />
    <glyph glyph-name="uni1E24" unicode="&#x1e24;" horiz-adv-x="658" 
d="M86 0v655h102v-268h282v268h102v-655h-102v298h-282v-298h-102zM328 -212q-27 0 -44.5 17t-17.5 44q0 26 17.5 43t44.5 17t44.5 -17t17.5 -43q0 -27 -17.5 -44t-44.5 -17z" />
    <glyph glyph-name="uni1E25" unicode="&#x1e25;" horiz-adv-x="552" 
d="M77 0v709h101v-188l-4 -97q81 77 159 77q150 0 150 -193v-308h-101v295q0 63 -19.5 91t-63.5 28q-33 0 -59 -15.5t-62 -51.5v-347h-101zM290 -212q-27 0 -44.5 17t-17.5 44q0 26 17.5 43t44.5 17t44.5 -17t17.5 -43q0 -27 -17.5 -44t-44.5 -17z" />
    <glyph glyph-name="uni1E2A" unicode="&#x1e2a;" horiz-adv-x="658" 
d="M86 0v655h102v-268h282v268h102v-655h-102v298h-282v-298h-102zM328 -232q-76 0 -116 44t-44 109l61 10q6 -41 31 -69t68 -28t68 28t31 69l61 -10q-4 -65 -43.5 -109t-116.5 -44z" />
    <glyph glyph-name="uni1E2B" unicode="&#x1e2b;" horiz-adv-x="552" 
d="M77 0v709h101v-188l-4 -97q81 77 159 77q150 0 150 -193v-308h-101v295q0 63 -19.5 91t-63.5 28q-33 0 -59 -15.5t-62 -51.5v-347h-101zM290 -232q-76 0 -116 44t-44 109l61 10q6 -41 31 -69t68 -28t68 28t31 69l61 -10q-4 -65 -43.5 -109t-116.5 -44z" />
    <glyph glyph-name="uni1E32" unicode="&#x1e32;" horiz-adv-x="589" 
d="M86 0v655h102v-311h3l250 311h114l-203 -253l236 -402h-113l-185 322l-102 -124v-198h-102zM329 -212q-27 0 -44.5 17t-17.5 44q0 26 17.5 43t44.5 17t44.5 -17t17.5 -43q0 -27 -17.5 -44t-44.5 -17z" />
    <glyph glyph-name="uni1E33" unicode="&#x1e33;" horiz-adv-x="510" 
d="M77 0v709h99v-459h3l193 239h111l-166 -198l185 -291h-110l-133 222l-83 -96v-126h-99zM278 -212q-27 0 -44.5 17t-17.5 44q0 26 17.5 43t44.5 17t44.5 -17t17.5 -43q0 -27 -17.5 -44t-44.5 -17z" />
    <glyph glyph-name="uni1E34" unicode="&#x1e34;" horiz-adv-x="589" 
d="M86 0v655h102v-311h3l250 311h114l-203 -253l236 -402h-113l-185 322l-102 -124v-198h-102zM192 -176v68h274v-68h-274z" />
    <glyph glyph-name="uni1E35" unicode="&#x1e35;" horiz-adv-x="510" 
d="M77 0v709h99v-459h3l193 239h111l-166 -198l185 -291h-110l-133 222l-83 -96v-126h-99zM141 -176v68h274v-68h-274z" />
    <glyph glyph-name="uni1E62" unicode="&#x1e62;" horiz-adv-x="540" 
d="M273 -12q-138 0 -233 97l60 70q78 -78 175 -78q58 0 91 25.5t33 68.5q0 22 -7 37.5t-24 28t-31 20t-43 19.5l-91 40q-133 55 -133 171q0 77 60.5 128.5t153.5 51.5q118 0 198 -82l-53 -65q-66 58 -145 58q-51 0 -81 -23t-30 -62q0 -20 8 -35.5t26.5 -27.5t31.5 -18.5
t40 -17.5l91 -39q64 -26 98.5 -67.5t34.5 -108.5q0 -81 -63 -136t-167 -55zM275 -212q-27 0 -44.5 17t-17.5 44q0 26 17.5 43t44.5 17t44.5 -17t17.5 -43q0 -27 -17.5 -44t-44.5 -17z" />
    <glyph glyph-name="uni1E63" unicode="&#x1e63;" horiz-adv-x="426" 
d="M210 -12q-102 0 -184 68l48 65q71 -56 139 -56q42 0 64 18.5t22 47.5q0 21 -18.5 38.5t-36 25t-53.5 21.5q-30 11 -50.5 21.5t-43.5 27.5t-35 40.5t-12 52.5q0 63 47 103t127 40q86 0 158 -57l-47 -63q-58 43 -109 43q-39 0 -59.5 -17t-20.5 -44q0 -18 16 -33.5
t29.5 -21.5t49.5 -19q7 -3 10 -4q26 -9 42 -16t37.5 -20t34 -27.5t21.5 -36t9 -48.5q0 -64 -49 -106.5t-136 -42.5zM223 -212q-27 0 -44.5 17t-17.5 44q0 26 17.5 43t44.5 17t44.5 -17t17.5 -43q0 -27 -17.5 -44t-44.5 -17z" />
    <glyph glyph-name="uni1E6C" unicode="&#x1e6c;" horiz-adv-x="542" 
d="M220 0v569h-193v86h488v-86h-193v-569h-102zM271 -212q-27 0 -44.5 17t-17.5 44q0 26 17.5 43t44.5 17t44.5 -17t17.5 -43q0 -27 -17.5 -44t-44.5 -17z" />
    <glyph glyph-name="uni1E6D" unicode="&#x1e6d;" horiz-adv-x="351" 
d="M241 -12q-148 0 -148 171v249h-71v76l76 5l12 135h84v-135h128v-81h-128v-249q0 -90 72 -90q23 0 53 12l18 -75q-54 -18 -96 -18zM212 -212q-27 0 -44.5 17t-17.5 44q0 26 17.5 43t44.5 17t44.5 -17t17.5 -43q0 -27 -17.5 -44t-44.5 -17z" />
    <glyph glyph-name="uni1E6E" unicode="&#x1e6e;" horiz-adv-x="542" 
d="M220 0v569h-193v86h488v-86h-193v-569h-102zM134 -176v68h274v-68h-274z" />
    <glyph glyph-name="uni1E6F" unicode="&#x1e6f;" horiz-adv-x="351" 
d="M241 -12q-148 0 -148 171v249h-71v76l76 5l12 135h84v-135h128v-81h-128v-249q0 -90 72 -90q23 0 53 12l18 -75q-54 -18 -96 -18zM75 -176v68h274v-68h-274z" />
    <glyph glyph-name="uni1E7E" unicode="&#x1e7e;" horiz-adv-x="527" 
d="M204 0l-206 655h108l98 -340q9 -32 28 -102.5t32 -111.5h4q1 3 60 214l97 340h104l-205 -655h-120zM263 -212q-27 0 -44.5 17t-17.5 44q0 26 17.5 43t44.5 17t44.5 -17t17.5 -43q0 -27 -17.5 -44t-44.5 -17z" />
    <glyph glyph-name="uni1E7F" unicode="&#x1e7f;" horiz-adv-x="483" 
d="M185 0l-173 489h103l84 -264l43 -146h4l43 146l84 264h98l-169 -489h-117zM243 -212q-27 0 -44.5 17t-17.5 44q0 26 17.5 43t44.5 17t44.5 -17t17.5 -43q0 -27 -17.5 -44t-44.5 -17z" />
    <glyph glyph-name="uni1E92" unicode="&#x1e92;" horiz-adv-x="540" 
d="M42 0v61l329 508h-299v86h425v-61l-329 -508h332v-86h-458zM282 -212q-27 0 -44.5 17t-17.5 44q0 26 17.5 43t44.5 17t44.5 -17t17.5 -43q0 -27 -17.5 -44t-44.5 -17z" />
    <glyph glyph-name="uni1E93" unicode="&#x1e93;" horiz-adv-x="435" 
d="M33 0v54l242 354h-215v81h342v-54l-242 -354h250v-81h-377zM232 -212q-27 0 -44.5 17t-17.5 44q0 26 17.5 43t44.5 17t44.5 -17t17.5 -43q0 -27 -17.5 -44t-44.5 -17z" />
    <glyph glyph-name="uni1E94" unicode="&#x1e94;" horiz-adv-x="540" 
d="M42 0v61l329 508h-299v86h425v-61l-329 -508h332v-86h-458zM145 -176v68h274v-68h-274z" />
    <glyph glyph-name="uni1E95" unicode="&#x1e95;" horiz-adv-x="435" 
d="M33 0v54l242 354h-215v81h342v-54l-242 -354h250v-81h-377zM95 -176v68h274v-68h-274z" />
    <glyph glyph-name="uni1E96" unicode="&#x1e96;" horiz-adv-x="552" 
d="M77 0v709h101v-188l-4 -97q81 77 159 77q150 0 150 -193v-308h-101v295q0 63 -19.5 91t-63.5 28q-33 0 -59 -15.5t-62 -51.5v-347h-101zM153 -176v68h274v-68h-274z" />
    <glyph glyph-name="uni1EA0" unicode="&#x1ea0;" horiz-adv-x="552" 
d="M552 0h-108l-56 187h-228l-56 -187h-104l217 655h118zM185 268h179l-26 88q-20 63 -62 218h-4q-32 -123 -61 -218zM274 -91q27 0 44.5 -17t17.5 -43q0 -27 -17.5 -44t-44.5 -17t-44.5 17t-17.5 44q0 26 17.5 43t44.5 17z" />
    <glyph glyph-name="uni1EA1" unicode="&#x1ea1;" horiz-adv-x="511" 
d="M193 -12q-64 0 -104 38.5t-40 103.5q0 79 70 121.5t223 59.5q-2 108 -94 108q-62 0 -141 -50l-38 68q100 64 197 64q89 0 133 -53.5t44 -153.5v-294h-83l-8 56h-3q-81 -68 -156 -68zM224 68q54 0 118 58v121q-106 -13 -150.5 -40t-44.5 -70q0 -35 21 -52t56 -17z
M251 -212q-27 0 -44.5 17t-17.5 44q0 26 17.5 43t44.5 17t44.5 -17t17.5 -43q0 -27 -17.5 -44t-44.5 -17z" />
    <glyph glyph-name="uni1EB8" unicode="&#x1eb8;" horiz-adv-x="533" 
d="M86 0v655h387v-86h-285v-184h241v-86h-241v-213h295v-86h-397zM290 -212q-27 0 -44.5 17t-17.5 44q0 26 17.5 43t44.5 17t44.5 -17t17.5 -43q0 -27 -17.5 -44t-44.5 -17z" />
    <glyph glyph-name="uni1EB9" unicode="&#x1eb9;" horiz-adv-x="502" 
d="M465 270q0 -28 -4 -52h-323q7 -74 50.5 -112.5t105.5 -38.5q59 0 117 37l35 -64q-78 -52 -165 -52q-103 0 -170.5 69t-67.5 187q0 115 66.5 186t156.5 71q95 0 147 -62.5t52 -168.5zM140 288h237q0 64 -28 99t-81 35q-46 0 -82 -34t-46 -100zM260 -91q27 0 44.5 -17
t17.5 -43q0 -27 -17.5 -44t-44.5 -17t-44.5 17t-17.5 44q0 26 17.5 43t44.5 17z" />
    <glyph glyph-name="uni1ECC" unicode="&#x1ecc;" horiz-adv-x="670" 
d="M335 -12q-127 0 -206 92.5t-79 249.5q0 156 78.5 246.5t206.5 90.5t206.5 -90.5t78.5 -246.5q0 -157 -79 -249.5t-206 -92.5zM335 77q82 0 131 69t49 184t-49 181.5t-131 66.5t-131 -66.5t-49 -181.5t49 -184t131 -69zM335 -212q-27 0 -44.5 17t-17.5 44q0 26 17.5 43
t44.5 17t44.5 -17t17.5 -43q0 -27 -17.5 -44t-44.5 -17z" />
    <glyph glyph-name="uni1ECD" unicode="&#x1ecd;" horiz-adv-x="546" 
d="M273 -12q-95 0 -162.5 69.5t-67.5 186.5q0 118 67.5 187.5t162.5 69.5t162.5 -69.5t67.5 -187.5q0 -117 -67.5 -186.5t-162.5 -69.5zM273 71q58 0 92 47.5t34 125.5t-34.5 126t-91.5 48t-91.5 -48t-34.5 -126t34 -125.5t92 -47.5zM273 -212q-27 0 -44.5 17t-17.5 44
q0 26 17.5 43t44.5 17t44.5 -17t17.5 -43q0 -27 -17.5 -44t-44.5 -17z" />
    <glyph glyph-name="uni200E" unicode="&#x200e;" horiz-adv-x="0" 
d="M39 767l-25 25l63 66h-191v36h191l-63 63l25 27l105 -109z" />
    <glyph glyph-name="uni200F" unicode="&#x200f;" horiz-adv-x="0" 
d="M-39 768l-105 107l105 109l25 -26l-63 -64h193v-36h-192l62 -66z" />
    <glyph glyph-name="uni2010" unicode="&#x2010;" horiz-adv-x="317" 
d="M42 214v75h234v-75h-234z" />
    <glyph glyph-name="endash" unicode="&#x2013;" horiz-adv-x="480" 
d="M42 218v68h396v-68h-396z" />
    <glyph glyph-name="emdash" unicode="&#x2014;" horiz-adv-x="800" 
d="M42 218v68h716v-68h-716z" />
    <glyph glyph-name="quoteleft" unicode="&#x2018;" horiz-adv-x="264" 
d="M128 522q25 0 42.5 -15.5t17.5 -41.5q0 -29 -16.5 -46t-43.5 -17q-34 0 -53 26.5t-19 75.5q0 124 117 188l26 -46q-41 -25 -60.5 -54t-19.5 -71q3 1 9 1z" />
    <glyph glyph-name="quoteright" unicode="&#x2019;" horiz-adv-x="264" 
d="M136 698q34 0 53 -26.5t19 -75.5q0 -124 -117 -188l-26 46q41 25 60.5 54t19.5 71q-3 -1 -9 -1q-25 0 -42.5 15.5t-17.5 41.5q0 29 16.5 46t43.5 17z" />
    <glyph glyph-name="quotesinglbase" unicode="&#x201a;" horiz-adv-x="264" 
d="M136 138q34 0 53 -26.5t19 -75.5q0 -124 -117 -188l-26 46q41 25 60.5 54t19.5 71q-3 -1 -9 -1q-25 0 -42.5 15.5t-17.5 41.5q0 29 16.5 46t43.5 17z" />
    <glyph glyph-name="quotedblleft" unicode="&#x201c;" horiz-adv-x="458" 
d="M199 646q-41 -25 -60.5 -54t-19.5 -71q3 1 9 1q25 0 42.5 -15.5t17.5 -41.5q0 -29 -16.5 -46t-43.5 -17q-34 0 -53 26.5t-19 75.5q0 124 117 188zM322 522q25 0 42.5 -15.5t17.5 -41.5q0 -29 -16.5 -46t-43.5 -17q-34 0 -53 26.5t-19 75.5q0 124 117 188l26 -46
q-41 -25 -60.5 -54t-19.5 -71q3 1 9 1z" />
    <glyph glyph-name="quotedblright" unicode="&#x201d;" horiz-adv-x="458" 
d="M136 698q34 0 53 -26.5t19 -75.5q0 -124 -117 -188l-26 46q41 25 60.5 54t19.5 71q-3 -1 -9 -1q-25 0 -42.5 15.5t-17.5 41.5q0 29 16.5 46t43.5 17zM330 698q34 0 53 -26.5t19 -75.5q0 -124 -117 -188l-26 46q41 25 60.5 54t19.5 71q-3 -1 -9 -1q-25 0 -42.5 15.5
t-17.5 41.5q0 29 16.5 46t43.5 17z" />
    <glyph glyph-name="quotedblbase" unicode="&#x201e;" horiz-adv-x="458" 
d="M136 138q34 0 53 -26.5t19 -75.5q0 -124 -117 -188l-26 46q41 25 60.5 54t19.5 71q-3 -1 -9 -1q-25 0 -42.5 15.5t-17.5 41.5q0 29 16.5 46t43.5 17zM330 138q34 0 53 -26.5t19 -75.5q0 -124 -117 -188l-26 46q41 25 60.5 54t19.5 71q-3 -1 -9 -1q-25 0 -42.5 15.5
t-17.5 41.5q0 29 16.5 46t43.5 17z" />
    <glyph glyph-name="dagger" unicode="&#x2020;" horiz-adv-x="470" 
d="M193 -80l6 556l-148 -6v84l148 -6l-6 164h84l-6 -164l148 6v-84l-148 6l6 -556h-84z" />
    <glyph glyph-name="daggerdbl" unicode="&#x2021;" horiz-adv-x="470" 
d="M193 -80l6 164l-148 -6v84l148 -8l-6 162l6 162l-148 -8v84l148 -6l-6 164h84l-6 -164l148 6v-84l-148 8l6 -162l-6 -162l148 8v-84l-148 6l6 -164h-84z" />
    <glyph glyph-name="bullet" unicode="&#x2022;" horiz-adv-x="316" 
d="M158 137q-49 0 -83.5 35.5t-34.5 90.5t34.5 90.5t83.5 35.5t83.5 -35.5t34.5 -90.5t-34.5 -90.5t-83.5 -35.5z" />
    <glyph glyph-name="ellipsis" unicode="&#x2026;" horiz-adv-x="997" 
d="M166 -12q-29 0 -48.5 20t-19.5 51t19.5 51.5t48.5 20.5t48.5 -20.5t19.5 -51.5t-19.5 -51t-48.5 -20zM500 -12q-29 0 -48.5 20t-19.5 51t19.5 51.5t48.5 20.5t48.5 -20.5t19.5 -51.5t-19.5 -51t-48.5 -20zM834 -12q-29 0 -48.5 20t-19.5 51t19.5 51.5t48.5 20.5
t48.5 -20.5t19.5 -51.5t-19.5 -51t-48.5 -20z" />
    <glyph glyph-name="uni202D" unicode="&#x202d;" horiz-adv-x="0" 
d="M-31 767l-26 25l63 66h-162v36h160l-61 63l26 27l104 -109zM66 767l-25 25l82 83l-82 82l25 27l105 -109z" />
    <glyph glyph-name="uni202E" unicode="&#x202e;" horiz-adv-x="0" 
d="M-66 805l-105 109l105 107l25 -26l-80 -81l80 -83zM31 805l-102 109l102 107l28 -26l-63 -66h161v-34h-161l63 -64z" />
    <glyph glyph-name="perthousand" unicode="&#x2030;" horiz-adv-x="1205" 
d="M195 260q-69 0 -111 55t-42 153q0 97 42 151.5t111 54.5t111 -54.5t42 -151.5q0 -98 -42 -153t-111 -55zM202 -12l359 679h64l-359 -679h-64zM195 320q36 0 57.5 37.5t21.5 110.5t-21.5 109.5t-57.5 36.5t-57.5 -36.5t-21.5 -109.5t21.5 -110.5t57.5 -37.5zM642 -12
q-69 0 -111 55t-42 153q0 97 42 151.5t111 54.5t111 -54.5t42 -151.5q0 -98 -42 -153t-111 -55zM1010 -12q-69 0 -111 55t-42 153q0 97 42 151.5t111 54.5t111 -54.5t42 -151.5q0 -98 -42 -153t-111 -55zM642 48q36 0 57.5 37.5t21.5 110.5t-21.5 109.5t-57.5 36.5
t-57.5 -36.5t-21.5 -109.5t21.5 -110.5t57.5 -37.5zM1010 48q36 0 57.5 37.5t21.5 110.5t-21.5 109.5t-57.5 36.5t-57.5 -36.5t-21.5 -109.5t21.5 -110.5t57.5 -37.5z" />
    <glyph glyph-name="guilsinglleft" unicode="&#x2039;" horiz-adv-x="277" 
d="M182 63l-136 152v74l136 152l41 -34l-116 -155l116 -156z" />
    <glyph glyph-name="guilsinglright" unicode="&#x203a;" horiz-adv-x="277" 
d="M95 63l-41 33l116 156l-116 155l41 34l136 -152v-74z" />
    <glyph glyph-name="fraction" unicode="&#x2044;" horiz-adv-x="89" 
d="M-168 -12l359 679h64l-359 -679h-64z" />
    <glyph glyph-name="uni20AA" unicode="&#x20aa;" horiz-adv-x="780" 
d="M65 0v562h283q160 0 160 -197v-150h-82v155q0 56 -18.5 83t-61.5 27h-174v-480h-107zM255 0v364h82v-273q89 1 146.5 21.5t87.5 63t40.5 95.5t10.5 133l-2 158h107l1 -158q2 -220 -106.5 -313t-366.5 -91z" />
    <glyph glyph-name="Euro" unicode="&#x20ac;" 
d="M441 134l58 -53q-71 -93 -175 -93q-92 0 -155.5 63.5t-82.5 177.5h-64v51l58 4q-1 11 -1 33q0 20 1 30h-58v51l64 4q19 116 85.5 181.5t165.5 65.5q90 0 153 -78l-58 -56q-46 54 -98 54q-58 0 -95.5 -43.5t-50.5 -122.5h243v-56h-248q-1 -9 -1 -27q0 -24 1 -35h208v-56
h-202q14 -77 50 -119t91 -42q63 0 111 66z" />
    <glyph glyph-name="uni210A" unicode="&#x210a;" horiz-adv-x="566" 
d="M260 -210q-96 0 -178 54l36 69q67 -43 142 -43q120 0 125 115l2 83q-63 -61 -138 -61q-92 0 -146.5 66.5t-54.5 178.5q0 110 63 179.5t148 69.5q73 0 133 -57h3l8 45h83v-505q0 -92 -59 -143t-167 -51zM273 90q58 0 112 61v221q-50 45 -108 45q-54 0 -90 -45.5
t-36 -118.5q0 -76 32.5 -119.5t89.5 -43.5z" />
    <glyph glyph-name="trademark" unicode="&#x2122;" horiz-adv-x="650" 
d="M99 365v247h-96v64h262v-64h-96v-247h-70zM312 365v311h83l45 -111l26 -75h4l26 75l44 111h83v-311h-65v125l8 108h-4l-68 -186h-53l-68 186h-4l8 -108v-125h-65z" />
    <glyph glyph-name="estimated" unicode="&#x212e;" horiz-adv-x="800" 
d="M401 -12q-147 0 -251 98.5t-104 238.5q0 139 104 237.5t251 98.5t250.5 -98t103.5 -238v-9h-575q-4 0 -4 -4v-183q0 -9 8 -21q88 -99 218 -99q67 0 126.5 29.5t101.5 81.5h52q-50 -61 -123.5 -96.5t-157.5 -35.5zM180 335h441q5 0 5 5v184q0 11 -9 22q-92 95 -215 95
q-127 0 -217 -98q-9 -11 -9 -23v-180q0 -5 4 -5z" />
    <glyph glyph-name="partialdiff" unicode="&#x2202;" horiz-adv-x="542" 
d="M282 667q104 0 160.5 -75t56.5 -221q0 -172 -75 -277.5t-195 -105.5q-78 0 -132 53.5t-54 140.5q0 101 59 163t157 62q82 0 142 -68q1 10 1 30q0 215 -131 215q-62 0 -109 -49l-46 63q74 69 166 69zM239 71q57 0 97.5 48t56.5 139q-54 70 -124 70q-63 0 -97.5 -38
t-34.5 -102q0 -53 30 -85t72 -32z" />
    <glyph glyph-name="product" unicode="&#x220f;" horiz-adv-x="684" 
d="M86 -120v757h512v-757h-103v668h-307v-668h-102z" />
    <glyph glyph-name="summation" unicode="&#x2211;" horiz-adv-x="513" 
d="M23 -120v63l229 315l-218 316v63h447v-86h-322v-4l199 -288l-208 -289v-4h358v-86h-485z" />
    <glyph glyph-name="minus" unicode="&#x2212;" 
d="M34 293v74h438v-74h-438z" />
    <glyph glyph-name="uni2215" unicode="&#x2215;" horiz-adv-x="89" 
d="M-168 -12l359 679h64l-359 -679h-64z" />
    <glyph glyph-name="uni2219" unicode="&#x2219;" horiz-adv-x="510" 
d="M252 255q-29 0 -48.5 20t-19.5 51t19.5 51.5t48.5 20.5t48.5 -20.5t19.5 -51.5t-19.5 -51t-48.5 -20z" />
    <glyph glyph-name="radical" unicode="&#x221a;" horiz-adv-x="566" 
d="M280 -91l-150 423l-72 -31l-21 52l145 62l111 -331q11 -34 18 -69h4q8 46 13 69l172 736h71l-217 -911h-74z" />
    <glyph glyph-name="infinity" unicode="&#x221e;" horiz-adv-x="791" 
d="M573 137q-61 0 -107.5 29.5t-95.5 91.5h-4q-83 -100 -170 -100q-65 0 -111 48.5t-46 115.5q0 83 47.5 132t123.5 49q92 0 168 -101h4q90 117 194 117q76 0 126 -51.5t50 -130.5q0 -90 -50.5 -145t-128.5 -55zM573 232q46 0 74 29.5t28 72.5q0 49 -29.5 79t-79.5 30
q-77 0 -148 -100q44 -57 78.5 -84t76.5 -27zM205 234q68 0 125 84q-63 90 -128 90q-39 0 -62.5 -22.5t-23.5 -60.5t25.5 -64.5t63.5 -26.5z" />
    <glyph glyph-name="integral" unicode="&#x222b;" horiz-adv-x="349" 
d="M100 -158q-34 0 -51 7l11 75q12 -4 35 -4q39 0 52.5 35.5t13.5 116.5q0 73 -20.5 240t-20.5 244q0 54 6.5 93.5t22.5 73t47.5 50.5t77.5 17q33 0 49 -7l-11 -75q-12 4 -35 4q-38 0 -51.5 -36t-13.5 -117q0 -73 20 -239.5t20 -243.5q0 -54 -6.5 -93.5t-22 -73t-46.5 -50.5
t-77 -17z" />
    <glyph glyph-name="approxequal" unicode="&#x2248;" 
d="M340 362q-34 0 -66 20.5t-59.5 41t-50.5 20.5q-43 0 -75 -60l-55 40q56 94 132 94q34 0 66 -20.5t59.5 -41t50.5 -20.5q43 0 75 60l55 -41q-56 -93 -132 -93zM340 142q-34 0 -66 20.5t-59.5 41t-50.5 20.5q-43 0 -75 -60l-55 40q56 94 132 94q34 0 66 -20.5t59.5 -41
t50.5 -20.5q43 0 75 60l55 -41q-56 -93 -132 -93z" />
    <glyph glyph-name="notequal" unicode="&#x2260;" 
d="M58 58l75 125h-99v74h141l86 146h-227v74h269l75 125h70l-75 -125h99v-74h-141l-86 -146h227v-74h-269l-75 -125h-70z" />
    <glyph glyph-name="lessequal" unicode="&#x2264;" 
d="M472 153l-438 150v88l438 150v-86l-199 -65l-136 -41v-4l136 -41l199 -65v-86zM34 0v74h438v-74h-438z" />
    <glyph glyph-name="greaterequal" unicode="&#x2265;" 
d="M34 153v86l199 65l136 41v4l-136 41l-199 65v86l438 -150v-88zM34 0v74h438v-74h-438z" />
    <glyph glyph-name="lozenge" unicode="&#x25ca;" horiz-adv-x="526" 
d="M219 -10l-164 340l164 340h88l164 -340l-164 -340h-88zM261 75h4l60 129l59 126l-59 125l-60 130h-4l-60 -130l-59 -125l59 -126z" />
    <glyph glyph-name="uni25CC" unicode="&#x25cc;" horiz-adv-x="600" 
d="M474 395q0 -18 -10 -28.5t-27 -10.5q-23 0 -32 19q-9 -6 -21 -6q-15 0 -25.5 11t-10.5 29v1h-4q-16 0 -26.5 11t-10.5 28q0 18 10.5 28.5t26.5 10.5t27 -10.5t11 -28.5v-3h2q24 0 33 -18q10 5 20 5q16 0 26.5 -10t10.5 -28zM186 475q16 0 26.5 -10t10.5 -29
q0 -18 -10 -28t-27 -10q-16 0 -26.5 10.5t-10.5 27.5q0 19 10.5 29t26.5 10zM107 394q17 0 27.5 -10t10.5 -28q0 -19 -10.5 -29.5t-27.5 -10.5q-15 0 -25.5 11t-10.5 29t10.5 28t25.5 10zM118 245q0 -39 -39 -39q-15 0 -25.5 10.5t-10.5 28.5t10.5 28t25.5 10q39 0 39 -38z
M503 283q16 0 27 -10t11 -28t-10.5 -28.5t-27.5 -10.5q-16 0 -26.5 10.5t-10.5 28.5t10.5 28t26.5 10zM107 174q17 0 27.5 -10.5t10.5 -28.5t-10.5 -28t-27.5 -10q-15 0 -25.5 10.5t-10.5 27.5q0 18 10.5 28.5t25.5 10.5zM476 174q16 0 26.5 -10.5t10.5 -28.5q0 -38 -37 -38
q-16 0 -26.5 10.5t-10.5 27.5q0 18 10.5 28.5t26.5 10.5zM186 92q16 0 26.5 -10t10.5 -27q0 -40 -37 -40q-16 0 -26.5 10.5t-10.5 29.5q0 17 10.5 27t26.5 10zM397 92q16 0 27 -10t11 -27q0 -40 -38 -40q-15 0 -25.5 10.5t-10.5 29.5q0 17 10.5 27t25.5 10zM291 65
q17 0 27.5 -10t10.5 -28q0 -19 -10.5 -29.5t-27.5 -10.5q-15 0 -25.5 11t-10.5 29q0 17 10.5 27.5t25.5 10.5z" />
    <glyph glyph-name="dotlessj" unicode="&#xf6be;" horiz-adv-x="248" 
d="M36 -211q-43 0 -76 13l19 76q26 -8 44 -8q33 0 45.5 22.5t12.5 68.5l1 528h101l-1 -527q0 -173 -146 -173z" />
    <glyph glyph-name="uniFB2A" unicode="&#xfb2a;" horiz-adv-x="652" 
d="M548 621q-14 0 -23 10.5t-9 23.5t9 23t23 10t22.5 -10t8.5 -23t-8.5 -23.5t-22.5 -10.5zM604 408q2 -211 -118 -315.5t-368 -102.5l-73 572h102l32 -266q55 27 75 71t22 132v62h102l-1 -60q-2 -110 -44 -176.5t-144 -107.5l16 -136q151 10 222.5 90t70.5 232l-2 159h107z
" />
    <glyph glyph-name="uniFB2B" unicode="&#xfb2b;" horiz-adv-x="652" 
d="M84 621q-14 0 -23 10.5t-9 23.5t9 23t23 10t22.5 -10t8.5 -23t-8.5 -23.5t-22.5 -10.5zM604 408q2 -211 -118 -315.5t-368 -102.5l-73 572h102l32 -266q55 27 75 71t22 132v62h102l-1 -60q-2 -110 -44 -176.5t-144 -107.5l16 -136q151 10 222.5 90t70.5 232l-2 159h107z
" />
    <glyph glyph-name="uniFB2C" unicode="&#xfb2c;" horiz-adv-x="652" 
d="M548 621q-14 0 -23 10.5t-9 23.5t9 23t23 10t22.5 -10t8.5 -23t-8.5 -23.5t-22.5 -10.5zM604 408q2 -211 -118 -315.5t-368 -102.5l-73 572h102l32 -266q55 27 75 71t22 132v62h102l-1 -60q-2 -110 -44 -176.5t-144 -107.5l16 -136q151 10 222.5 90t70.5 232l-2 159h107z
M342 267q0 13 9 23t23 10t22.5 -10t8.5 -23q0 -14 -8.5 -24t-22.5 -10t-23 10t-9 24z" />
    <glyph glyph-name="uniFB2D" unicode="&#xfb2d;" horiz-adv-x="652" 
d="M84 621q-14 0 -23 10.5t-9 23.5t9 23t23 10t22.5 -10t8.5 -23t-8.5 -23.5t-22.5 -10.5zM604 408q2 -211 -118 -315.5t-368 -102.5l-73 572h102l32 -266q55 27 75 71t22 132v62h102l-1 -60q-2 -110 -44 -176.5t-144 -107.5l16 -136q151 10 222.5 90t70.5 232l-2 159h107z
M342 267q0 13 9 23t23 10t22.5 -10t8.5 -23q0 -14 -8.5 -24t-22.5 -10t-23 10t-9 24z" />
    <glyph glyph-name="uniFB2E" unicode="&#xfb2e;" horiz-adv-x="586" 
d="M553 0h-114l-210 319l-99 -319h-102l110 344l28 71l-92 147h109l84 -135l84 -126l25 87l51 174h103l-116 -354zM379 -57v-37h-162v37h162z" />
    <glyph glyph-name="uniFB2F" unicode="&#xfb2f;" horiz-adv-x="586" 
d="M553 0h-114l-210 319l-99 -319h-102l110 344l28 71l-92 147h109l84 -135l84 -126l25 87l51 174h103l-116 -354zM379 -57v-37h-67l7 -100h-42l7 100h-67v37h162z" />
    <glyph glyph-name="uniFB30" unicode="&#xfb30;" horiz-adv-x="586" 
d="M553 0h-114l-210 319l-99 -319h-102l110 344l28 71l-92 147h109l84 -135l84 -126l25 87l51 174h103l-116 -354zM265 140q14 0 22.5 -10t8.5 -23q0 -14 -8.5 -24t-22.5 -10t-23 10t-9 24q0 13 9 23t23 10z" />
    <glyph glyph-name="uniFB31" unicode="&#xfb31;" horiz-adv-x="534" 
d="M430 82h69v-82h-176h-278v82h278v298q0 100 -90 100h-188v82h215q170 0 170 -187v-293zM207 297q0 -14 -8.5 -24t-22.5 -10t-23 10t-9 24q0 13 9 23t23 10t22.5 -10t8.5 -23z" />
    <glyph glyph-name="uniFB32" unicode="&#xfb32;" horiz-adv-x="395" 
d="M352 0h-102l-22 123q-56 -101 -167 -139l-39 85q136 46 189 152v175q0 44 -11.5 63.5t-43.5 24.5l-63 9l14 81l99 -14q59 -9 85.5 -46t26.5 -107v-192zM97 273q-14 0 -23 10t-9 24q0 13 9 23t23 10t22.5 -10t8.5 -23q0 -14 -8.5 -24t-22.5 -10z" />
    <glyph glyph-name="uniFB33" unicode="&#xfb33;" horiz-adv-x="539" 
d="M287 0v363q0 78 28 117h-270v82h446v-82h-75q-22 -42 -22 -117v-363h-107zM161 330q14 0 22.5 -10t8.5 -23q0 -14 -8.5 -24t-22.5 -10t-23 10t-9 24q0 13 9 23t23 10z" />
    <glyph glyph-name="uniFB34" unicode="&#xfb34;" horiz-adv-x="558" 
d="M394 0v380q0 100 -90 100h-246v82h273q170 0 170 -187v-375h-107zM55 0v272l15 67h92v-339h-107zM275 330q14 0 22.5 -10t8.5 -23q0 -14 -8.5 -24t-22.5 -10t-23 10t-9 24q0 13 9 23t23 10z" />
    <glyph glyph-name="uniFB35" unicode="&#xfb35;" horiz-adv-x="240" 
d="M70 0v445l-12 117h106l13 -117v-445h-107zM-5 330q14 0 22.5 -10t8.5 -23q0 -14 -8.5 -24t-22.5 -10t-23 10t-9 24q0 13 9 23t23 10z" />
    <glyph glyph-name="uniFB36" unicode="&#xfb36;" horiz-adv-x="367" 
d="M116 0v363q0 78 28 117h-96v82h272v-82h-78q-19 -36 -19 -117v-363h-107zM41 330q14 0 22.5 -10t8.5 -23q0 -14 -8.5 -24t-22.5 -10t-23 10t-9 24q0 13 9 23t23 10z" />
    <glyph glyph-name="uniFB38" unicode="&#xfb38;" horiz-adv-x="570" 
d="M112 -10l-67 572h107l54 -475q231 23 224 242v28q0 54 -29 89t-86 39l-50 3l8 84l59 -3q90 -6 144 -55.5t58 -143.5l1 -28q6 -174 -107.5 -258.5t-315.5 -93.5zM298 340q14 0 22.5 -10t8.5 -23q0 -14 -8.5 -24t-22.5 -10t-23 10t-9 24q0 13 9 23t23 10z" />
    <glyph glyph-name="uniFB39" unicode="&#xfb39;" horiz-adv-x="240" 
d="M70 210v235l-12 117h106l13 -117v-152l-1 -63zM-1 424q14 0 22.5 -10t8.5 -23q0 -14 -8.5 -24t-22.5 -10t-23 10t-9 24q0 13 9 23t23 10z" />
    <glyph glyph-name="uniFB3A" unicode="&#xfb3a;" horiz-adv-x="507" 
d="M338 -200v580q0 100 -90 100h-200v82h227q170 0 170 -187v-575h-107zM174 330q14 0 22.5 -10t8.5 -23q0 -14 -8.5 -24t-22.5 -10t-23 10t-9 24q0 13 9 23t23 10z" />
    <glyph glyph-name="uniFB3B" unicode="&#xfb3b;" horiz-adv-x="478" 
d="M38 0v82h144q71 0 106 43t35 122v68q0 165 -141 165h-144v82h170q107 0 164.5 -66t57.5 -186v-58q0 -120 -57.5 -186t-164.5 -66h-170zM166 325q14 0 22.5 -10t8.5 -23q0 -14 -8.5 -24t-22.5 -10t-23 10t-9 24q0 13 9 23t23 10z" />
    <glyph glyph-name="uniFB3C" unicode="&#xfb3c;" horiz-adv-x="486" 
d="M135 562h311v-89l-187 -473h-107l187 480h-301v237h97v-155zM128 330q14 0 22.5 -10t8.5 -23q0 -14 -8.5 -24t-22.5 -10t-23 10t-9 24q0 13 9 23t23 10z" />
    <glyph glyph-name="uniFB3E" unicode="&#xfb3e;" horiz-adv-x="621" 
d="M576 294q3 -171 -83 -251t-241 -45l11 82q114 -25 163.5 29.5t47.5 184.5q-3 190 -129 190q-48 0 -78.5 -27.5t-40.5 -73.5l-67 -383h-107l72 387l-78 175h111l45 -118q21 63 64 94.5t98 31.5q99 0 154.5 -67t57.5 -209zM368 297q0 -14 -8.5 -24t-22.5 -10t-23 10t-9 24
q0 13 9 23t23 10t22.5 -10t8.5 -23z" />
    <glyph glyph-name="uniFB40" unicode="&#xfb40;" horiz-adv-x="374" 
d="M44 0v82h162v314q0 43 -17 62.5t-51 24.5l-68 10l14 81l104 -15q60 -9 92.5 -50.5t32.5 -110.5v-398h-269zM97 330q14 0 22.5 -10t8.5 -23q0 -14 -8.5 -24t-22.5 -10t-23 10t-9 24q0 13 9 23t23 10z" />
    <glyph glyph-name="uniFB41" unicode="&#xfb41;" horiz-adv-x="583" 
d="M533 325q2 -72 -17.5 -128t-55.5 -93.5t-90.5 -62.5t-117 -36.5t-139.5 -14.5l-58 490l-10 82h288q93 0 144.5 -55t54.5 -150zM207 87q112 10 168 64.5t52 175.5v27q0 56 -27 91t-75 35h-163zM295 335q14 0 22.5 -10t8.5 -23q0 -14 -8.5 -24t-22.5 -10t-23 10t-9 24
q0 13 9 23t23 10z" />
    <glyph glyph-name="uniFB43" unicode="&#xfb43;" horiz-adv-x="555" 
d="M288 562q100 0 152 -65.5t52 -185.5v-511h-107v515q0 165 -123 165h-92l-16 -81q-19 -108 48 -121l-22 -66q-160 15 -123 192l34 158h197zM288 330q14 0 22.5 -10t8.5 -23q0 -14 -8.5 -24t-22.5 -10t-23 10t-9 24q0 13 9 23t23 10z" />
    <glyph glyph-name="uniFB44" unicode="&#xfb44;" horiz-adv-x="548" 
d="M66 0v82h181q69 0 109 41t40 125v67q0 79 -32 122t-96 43h-90l-22 -99q-11 -49 3.5 -74.5t64.5 -35.5l-19 -69q-177 11 -144 188l39 172h191q100 0 156 -66t56 -185v-58q0 -125 -64 -189t-170 -64h-203zM291 325q14 0 22.5 -10t8.5 -23q0 -14 -8.5 -24t-22.5 -10t-23 10
t-9 24q0 13 9 23t23 10z" />
    <glyph glyph-name="uniFB46" unicode="&#xfb46;" horiz-adv-x="536" 
d="M489 562l-142 -321l140 -241h-109h-343v82h295l-279 480h109l129 -222l93 222h107zM172 199q0 -14 -8.5 -24t-22.5 -10t-23 10t-9 24q0 13 9 23t23 10t22.5 -10t8.5 -23z" />
    <glyph glyph-name="uniFB47" unicode="&#xfb47;" horiz-adv-x="567" 
d="M241 -1l-10 83q49 5 80.5 21.5t54 62t27.5 121.5l15 193h-354v82h469l-4 -72l-14 -178q-7 -147 -73 -228t-191 -85zM52 -200v482l15 68h92v-550h-107zM280 340q14 0 22.5 -10t8.5 -23q0 -14 -8.5 -24t-22.5 -10t-23 10t-9 24q0 13 9 23t23 10z" />
    <glyph glyph-name="uniFB48" unicode="&#xfb48;" horiz-adv-x="480" 
d="M310 0v380q0 100 -90 100h-185v82h212q170 0 170 -187v-375h-107zM157 330q14 0 22.5 -10t8.5 -23q0 -14 -8.5 -24t-22.5 -10t-23 10t-9 24q0 13 9 23t23 10z" />
    <glyph glyph-name="uniFB49" unicode="&#xfb49;" horiz-adv-x="652" 
d="M604 408q2 -211 -118 -315.5t-368 -102.5l-73 572h102l32 -266q55 27 75 71t22 132v62h102l-1 -60q-2 -110 -44 -176.5t-144 -107.5l16 -136q151 10 222.5 90t70.5 232l-2 159h107zM342 267q0 13 9 23t23 10t22.5 -10t8.5 -23q0 -14 -8.5 -24t-22.5 -10t-23 10t-9 24z
" />
    <glyph glyph-name="uniFB4A" unicode="&#xfb4a;" horiz-adv-x="618" 
d="M30 -16l-10 75q58 6 78 31t20 81v391h270q170 0 170 -187v-375h-107v380q0 100 -90 100h-136v-297q0 -99 -46 -144t-149 -55zM335 330q14 0 22.5 -10t8.5 -23q0 -14 -8.5 -24t-22.5 -10t-23 10t-9 24q0 13 9 23t23 10z" />
    <glyph glyph-name="uniFB4B" unicode="&#xfb4b;" horiz-adv-x="240" 
d="M100 694q14 0 22.5 -10t8.5 -23q0 -14 -8.5 -24t-22.5 -10t-23 10t-9 24q0 13 9 23t23 10zM70 0v445l-12 117h106l13 -117v-445h-107z" />
    <glyph glyph-name="a.sups" horiz-adv-x="349" 
d="M134 381q-45 0 -72 27t-27 69q0 52 46.5 80.5t148.5 38.5q-2 65 -58 65q-42 0 -98 -33l-27 50q70 43 137 43q120 0 120 -138v-194h-59l-8 36h-4q-48 -44 -99 -44zM158 439q34 0 72 36v76q-123 -13 -123 -68q0 -44 51 -44z" />
    <glyph glyph-name="e.sups" horiz-adv-x="339" 
d="M188 381q-70 0 -115.5 45.5t-45.5 124.5q0 76 44.5 123t107.5 47q69 0 102 -45.5t33 -105.5q0 -17 -4 -37h-211q4 -45 30 -69.5t68 -24.5t79 24l27 -46q-55 -36 -115 -36zM98 579h152q0 35 -17 59.5t-53 24.5q-33 0 -55 -22t-27 -62z" />
    <glyph glyph-name="eogonek.sups" horiz-adv-x="339" 
d="M188 381q-70 0 -115.5 45.5t-45.5 124.5q0 76 44.5 123t107.5 47q69 0 102 -45.5t33 -105.5q0 -17 -4 -37h-211q4 -45 30 -69.5t68 -24.5t79 24l27 -46q-55 -36 -115 -36zM98 579h152q0 35 -17 59.5t-53 24.5q-33 0 -55 -22t-27 -62z" />
    <glyph glyph-name="j.sups" horiz-adv-x="175" 
d="M89 770q-20 0 -33.5 12t-13.5 31t13.5 31t33.5 12t33.5 -12t13.5 -31t-13.5 -31t-33.5 -12zM24 247q-28 0 -52 8l14 57q13 -5 28 -5q22 0 29.5 13.5t7.5 43.5v349h74v-345q0 -121 -101 -121z" />
    <glyph glyph-name="o.sups" horiz-adv-x="367" 
d="M183 381q-65 0 -110 46t-45 124t45 124t110 46t110 -46t45 -124t-45 -124t-110 -46zM183 441q37 0 58 30t21 80t-20.5 80t-58.5 30q-37 0 -58 -30t-21 -80t21 -80t58 -30z" />
    <glyph glyph-name="zero.heb" 
d="M253 -12q-99 0 -155 87t-56 246t56 243.5t155 84.5t155 -85t56 -243q0 -159 -56 -246t-155 -87zM253 68q114 0 114 253q0 248 -114 248t-114 -248q0 -253 114 -253z" />
    <glyph glyph-name="one.heb" 
d="M76 0v83h144v440h-117v64q85 15 142 50h76v-554h128v-83h-373z" />
    <glyph glyph-name="two.heb" 
d="M39 0v59q82 80 125.5 125.5t87.5 98.5t62 93t18 76q0 54 -29 85t-83 31q-65 0 -129 -73l-57 56q90 98 199 98q90 0 143.5 -52.5t53.5 -139.5q0 -42 -17 -85.5t-55.5 -95t-73.5 -91t-98 -105.5q68 6 107 6h168v-86h-422z" />
    <glyph glyph-name="three.heb" 
d="M238 -12q-132 0 -213 90l49 65q72 -72 156 -72q55 0 89.5 28.5t34.5 76.5q0 56 -44.5 86t-149.5 30v75q172 0 172 109q0 43 -27 67.5t-74 24.5q-67 0 -131 -62l-53 63q89 80 188 80q90 0 144.5 -44t54.5 -121q0 -105 -113 -149v-4q60 -15 97.5 -56.5t37.5 -103.5
q0 -84 -62.5 -133.5t-155.5 -49.5z" />
    <glyph glyph-name="four.heb" 
d="M479 248v-79h-83v-169h-95v169h-283v68l261 400h117v-389h83zM120 248h181v162q0 40 5 128h-4q-7 -14 -15.5 -30t-19.5 -34.5t-17 -30.5z" />
    <glyph glyph-name="five.heb" 
d="M238 -12q-126 0 -214 88l48 65q72 -70 154 -70q57 0 93.5 36t36.5 96t-34 94t-91 34q-49 0 -105 -37l-50 32l20 311h331v-86h-243l-15 -169q43 23 90 23q87 0 143 -50.5t56 -148.5q0 -100 -64.5 -159t-155.5 -59z" />
    <glyph glyph-name="six.heb" 
d="M283 392q85 0 134.5 -50.5t49.5 -146.5q0 -92 -56.5 -149.5t-138.5 -57.5q-99 0 -162.5 79t-63.5 230q0 177 70.5 264.5t176.5 87.5q97 0 163 -70l-55 -62q-41 49 -103 49q-68 0 -111.5 -59.5t-46.5 -191.5q28 35 67 56t76 21zM271 66q44 0 73 35t29 94t-28 91t-80 32
q-68 0 -122 -79q8 -86 41.5 -129.5t86.5 -43.5z" />
    <glyph glyph-name="seven.heb" 
d="M172 0q8 176 48 299.5t132 251.5h-308v86h420v-62q-107 -134 -143.5 -254.5t-45.5 -320.5h-103z" />
    <glyph glyph-name="eight.heb" 
d="M254 -12q-92 0 -152.5 49.5t-60.5 125.5q0 105 117 167v4q-88 62 -88 148q0 75 53 121t134 46q84 0 134 -47.5t50 -123.5q0 -45 -25.5 -84.5t-60.5 -64.5v-4q110 -64 110 -165q0 -74 -58.5 -123t-152.5 -49zM297 354q59 56 59 118q0 46 -27 75t-74 29q-41 0 -67.5 -25.5
t-26.5 -68.5q0 -47 34.5 -74t101.5 -54zM256 61q51 0 82.5 28t31.5 74q0 18 -4.5 33t-18.5 28.5t-23.5 21.5t-35 20t-36.5 16.5t-44 18.5q-77 -54 -77 -128q0 -49 35.5 -80.5t89.5 -31.5z" />
    <glyph glyph-name="nine.heb" 
d="M233 649q99 0 162.5 -79t63.5 -230q0 -177 -70.5 -264.5t-176.5 -87.5q-97 0 -163 70l55 62q42 -49 103 -49q69 0 112 59.5t46 191.5q-28 -36 -67 -56.5t-76 -20.5q-85 0 -134.5 50.5t-49.5 146.5q0 92 56.5 149.5t138.5 57.5zM240 319q69 0 122 79q-8 86 -41 129.5
t-87 43.5q-44 0 -73 -35t-29 -94t28 -91t80 -32z" />
    <glyph glyph-name="zero.lat" 
d="M253 -12q-99 0 -155 87t-56 246t56 243.5t155 84.5t155 -85t56 -243q0 -159 -56 -246t-155 -87zM253 68q114 0 114 253q0 248 -114 248t-114 -248q0 -253 114 -253z" />
    <glyph glyph-name="one.lat" 
d="M76 0v83h144v440h-117v64q85 15 142 50h76v-554h128v-83h-373z" />
    <glyph glyph-name="two.lat" 
d="M39 0v59q82 80 125.5 125.5t87.5 98.5t62 93t18 76q0 54 -29 85t-83 31q-65 0 -129 -73l-57 56q90 98 199 98q90 0 143.5 -52.5t53.5 -139.5q0 -42 -17 -85.5t-55.5 -95t-73.5 -91t-98 -105.5q68 6 107 6h168v-86h-422z" />
    <glyph glyph-name="three.lat" 
d="M238 -12q-132 0 -213 90l49 65q72 -72 156 -72q55 0 89.5 28.5t34.5 76.5q0 56 -44.5 86t-149.5 30v75q172 0 172 109q0 43 -27 67.5t-74 24.5q-67 0 -131 -62l-53 63q89 80 188 80q90 0 144.5 -44t54.5 -121q0 -105 -113 -149v-4q60 -15 97.5 -56.5t37.5 -103.5
q0 -84 -62.5 -133.5t-155.5 -49.5z" />
    <glyph glyph-name="four.lat" 
d="M479 248v-79h-83v-169h-95v169h-283v68l261 400h117v-389h83zM120 248h181v162q0 40 5 128h-4q-7 -14 -15.5 -30t-19.5 -34.5t-17 -30.5z" />
    <glyph glyph-name="five.lat" 
d="M238 -12q-126 0 -214 88l48 65q72 -70 154 -70q57 0 93.5 36t36.5 96t-34 94t-91 34q-49 0 -105 -37l-50 32l20 311h331v-86h-243l-15 -169q43 23 90 23q87 0 143 -50.5t56 -148.5q0 -100 -64.5 -159t-155.5 -59z" />
    <glyph glyph-name="six.lat" 
d="M283 392q85 0 134.5 -50.5t49.5 -146.5q0 -92 -56.5 -149.5t-138.5 -57.5q-99 0 -162.5 79t-63.5 230q0 177 70.5 264.5t176.5 87.5q97 0 163 -70l-55 -62q-41 49 -103 49q-68 0 -111.5 -59.5t-46.5 -191.5q28 35 67 56t76 21zM271 66q44 0 73 35t29 94t-28 91t-80 32
q-68 0 -122 -79q8 -86 41.5 -129.5t86.5 -43.5z" />
    <glyph glyph-name="seven.lat" 
d="M172 0q8 176 48 299.5t132 251.5h-308v86h420v-62q-107 -134 -143.5 -254.5t-45.5 -320.5h-103z" />
    <glyph glyph-name="eight.lat" 
d="M254 -12q-92 0 -152.5 49.5t-60.5 125.5q0 105 117 167v4q-88 62 -88 148q0 75 53 121t134 46q84 0 134 -47.5t50 -123.5q0 -45 -25.5 -84.5t-60.5 -64.5v-4q110 -64 110 -165q0 -74 -58.5 -123t-152.5 -49zM297 354q59 56 59 118q0 46 -27 75t-74 29q-41 0 -67.5 -25.5
t-26.5 -68.5q0 -47 34.5 -74t101.5 -54zM256 61q51 0 82.5 28t31.5 74q0 18 -4.5 33t-18.5 28.5t-23.5 21.5t-35 20t-36.5 16.5t-44 18.5q-77 -54 -77 -128q0 -49 35.5 -80.5t89.5 -31.5z" />
    <glyph glyph-name="nine.lat" 
d="M233 649q99 0 162.5 -79t63.5 -230q0 -177 -70.5 -264.5t-176.5 -87.5q-97 0 -163 70l55 62q42 -49 103 -49q69 0 112 59.5t46 191.5q-28 -36 -67 -56.5t-76 -20.5q-85 0 -134.5 50.5t-49.5 146.5q0 92 56.5 149.5t138.5 57.5zM240 319q69 0 122 79q-8 86 -41 129.5
t-87 43.5q-44 0 -73 -35t-29 -94t28 -91t80 -32z" />
    <glyph glyph-name="zero.pnumheb" horiz-adv-x="502" 
d="M251 -13q-94 0 -145.5 80t-51.5 223q0 142 51.5 220t145.5 78t146 -78t52 -220q0 -143 -52 -223t-146 -80zM251 66q104 0 104 224q0 219 -104 219q-103 0 -103 -219q0 -224 103 -224z" />
    <glyph glyph-name="one.pnumheb" horiz-adv-x="418" 
d="M274 83h103v-84h-315v84h114v386h-106v61l1 2q76 14 129 45l1 1h73v-495z" />
    <glyph glyph-name="two.pnumheb" horiz-adv-x="485" 
d="M47 0v57q152 150 207.5 222t55.5 130q0 46 -25 73.5t-72 27.5q-56 0 -114 -65h-4l-52 52v4q43 46 85 67.5t97 21.5q82 0 131 -48.5t49 -127.5q0 -70 -52.5 -145t-160.5 -189q58 4 89 4h152v-84h-386z" />
    <glyph glyph-name="three.pnumheb" horiz-adv-x="491" 
d="M312 301q55 -15 88 -53t33 -93q0 -75 -56 -121.5t-144 -46.5q-119 0 -194 82v3l45 60h4q63 -63 137 -63q50 0 79.5 24.5t29.5 65.5q0 101 -172 101l-2 3v69l2 2q152 0 152 95q0 37 -23.5 58t-63.5 21q-61 0 -116 -55h-4l-49 58v3q81 73 172 73q83 0 133 -40.5t50 -111.5
q0 -95 -101 -134z" />
    <glyph glyph-name="four.pnumheb" 
d="M467 228v-77h-74v-152h-92v152h-255v66l235 361h112v-350h74zM147 228h154v141q0 47 4 111q-8 -16 -46 -82z" />
    <glyph glyph-name="five.pnumheb" horiz-adv-x="486" 
d="M233 -13q-115 0 -195 80v4l44 59l4 1q62 -62 136 -62q50 0 81.5 31t31.5 84q0 51 -29 81t-79 30q-43 0 -96 -33l-47 30l18 285h305v-84h-219l-14 -144q41 19 79 19q82 0 131.5 -47.5t49.5 -134.5q0 -89 -58 -144t-143 -55z" />
    <glyph glyph-name="six.pnumheb" horiz-adv-x="486" 
d="M276 356q80 0 124 -47t44 -133q0 -82 -51 -135.5t-128 -53.5q-90 0 -148.5 72.5t-58.5 208.5q0 160 64.5 239.5t161.5 79.5q87 0 149 -64v-3l-50 -58l-4 1q-36 43 -91 43q-61 0 -97.5 -52t-40.5 -162q26 30 60 47t66 17zM264 64q40 0 64.5 31t24.5 81q0 52 -24 79.5
t-70 27.5q-59 0 -107 -68q16 -151 112 -151z" />
    <glyph glyph-name="seven.pnumheb" horiz-adv-x="475" 
d="M159 0l-2 3q8 157 42.5 267.5t114.5 223.5h-267v85h378v-60q-93 -118 -126 -224.5t-42 -291.5l-3 -3h-95z" />
    <glyph glyph-name="eight.pnumheb" horiz-adv-x="486" 
d="M253 -13q-84 0 -139 45.5t-55 115.5q0 93 105 151q-80 57 -80 135q0 69 48.5 111.5t123.5 42.5q77 0 123 -43.5t46 -113.5q0 -78 -79 -136q100 -58 100 -150q0 -68 -54 -113t-139 -45zM291 323q51 49 51 103q0 39 -23.5 64.5t-64.5 25.5q-36 0 -58.5 -23t-22.5 -59
q0 -39 29.5 -63t88.5 -48zM255 60q45 0 71.5 24t26.5 64q0 19 -8.5 35t-17 25.5t-33.5 22.5t-36 18t-46 19q-66 -49 -66 -111q0 -42 30.5 -69.5t78.5 -27.5z" />
    <glyph glyph-name="nine.pnumheb" horiz-adv-x="486" 
d="M229 587q90 0 148 -72t58 -208q0 -160 -64.5 -240t-160.5 -80q-90 0 -150 65v3l51 57h3q37 -43 91 -43q62 0 98.5 52.5t40.5 162.5q-26 -31 -60 -48.5t-66 -17.5q-80 0 -124 47t-44 133q0 82 51 135.5t128 53.5zM235 291q59 0 106 69q-15 151 -111 151q-40 0 -64.5 -31.5
t-24.5 -81.5q0 -51 24 -79t70 -28z" />
    <glyph glyph-name="one.supsheb" horiz-adv-x="340" 
d="M160 405v300h-86v49q58 10 101 41h62v-390h-77z" />
    <glyph glyph-name="two.supsheb" horiz-adv-x="380" 
d="M60 405v43q99 87 140 133.5t41 85.5q0 35 -19 55.5t-51 20.5q-42 0 -80 -54l-45 41q54 77 136 77q61 0 97.5 -33.5t36.5 -94.5q0 -26 -9 -50t-31 -53.5t-39 -48.5t-54 -57h151v-65h-274z" />
    <glyph glyph-name="three.supsheb" horiz-adv-x="370" 
d="M182 393q-97 0 -149 77l49 38q38 -55 94 -55q31 0 51.5 17t20.5 46q0 64 -113 64v47q46 0 72 17.5t26 46.5q0 26 -17.5 41t-46.5 15q-39 0 -75 -45l-45 40q57 65 132 65q54 0 91 -29t37 -77q0 -62 -65 -94q35 -10 57.5 -35t22.5 -61q0 -53 -41.5 -85.5t-100.5 -32.5z" />
    <glyph glyph-name="fraction.lat" horiz-adv-x="89" 
d="M-168 -12l359 679h64l-359 -679h-64z" />
    <glyph glyph-name="one.sups" horiz-adv-x="333" 
d="M157 405v300h-86v49q58 10 101 41h62v-390h-77z" />
    <glyph glyph-name="two.sups" horiz-adv-x="377" 
d="M60 405v43q99 87 140 133.5t41 85.5q0 35 -19 55.5t-51 20.5q-42 0 -80 -54l-45 41q54 77 136 77q61 0 97.5 -33.5t36.5 -94.5q0 -26 -9 -50t-31 -53.5t-39 -48.5t-54 -57h151v-65h-274z" />
    <glyph glyph-name="three.sups" horiz-adv-x="376" 
d="M188 393q-97 0 -149 77l49 38q38 -55 94 -55q30 0 51 17t21 46q0 64 -113 64v47q45 0 71.5 17.5t26.5 46.5q0 26 -17.5 41t-46.5 15q-39 0 -75 -45l-45 40q57 65 132 65q54 0 91 -29t37 -77q0 -62 -65 -94q35 -10 57.5 -35t22.5 -61q0 -53 -41.5 -85.5t-100.5 -32.5z" />
    <glyph glyph-name="asterisk.lat" horiz-adv-x="429" 
d="M141 400l-46 33l57 97l-100 43l18 53l106 -25l10 111h57l10 -110l107 24l17 -53l-100 -43l57 -97l-46 -33l-73 86z" />
    <glyph glyph-name="backslash.lat" horiz-adv-x="347" 
d="M266 -160l-248 870h70l248 -870h-70z" />
    <glyph glyph-name="periodcentered.lat" horiz-adv-x="264" 
d="M132 250q-29 0 -48.5 20t-19.5 51t19.5 51.5t48.5 20.5t48.5 -20.5t19.5 -51.5t-19.5 -51t-48.5 -20z" />
    <glyph glyph-name="bullet.lat" horiz-adv-x="316" 
d="M158 137q-49 0 -83.5 35.5t-34.5 90.5t34.5 90.5t83.5 35.5t83.5 -35.5t34.5 -90.5t-34.5 -90.5t-83.5 -35.5z" />
    <glyph glyph-name="exclam.lat" horiz-adv-x="304" 
d="M118 208l-14 357l-3 105h102l-3 -105l-14 -357h-68zM152 -12q-29 0 -48.5 20t-19.5 51t19.5 51.5t48.5 20.5t48.5 -20.5t19.5 -51.5t-19.5 -51t-48.5 -20z" />
    <glyph glyph-name="exclamdown.lat" horiz-adv-x="304" 
d="M152 358q-29 0 -48.5 20.5t-19.5 51.5t19.5 51t48.5 20t48.5 -20t19.5 -51t-19.5 -51.5t-48.5 -20.5zM101 -181l3 105l14 357h68l14 -357l3 -105h-102z" />
    <glyph glyph-name="numbersign.lat" 
d="M89 0l24 199h-78v68h86l17 137h-83v68h91l23 178h62l-22 -178h124l23 178h62l-22 -178h80v-68h-88l-17 -137h85v-68h-93l-24 -199h-63l24 199h-124l-24 -199h-63zM184 267h124l17 137h-124z" />
    <glyph glyph-name="question.lat" horiz-adv-x="436" 
d="M158 208q-7 51 12.5 97t46.5 75t51 65t24 67q0 39 -23 63t-65 24q-59 0 -108 -54l-57 52q76 85 177 85q79 0 126.5 -43t47.5 -120q0 -35 -16 -68t-38.5 -59t-44.5 -53t-35 -60.5t-9 -70.5h-89zM204 -12q-29 0 -48.5 20t-19.5 51t19.5 51.5t48.5 20.5t48.5 -20.5
t19.5 -51.5t-19.5 -51t-48.5 -20z" />
    <glyph glyph-name="questiondown.lat" horiz-adv-x="436" 
d="M232 358q-29 0 -48.5 20.5t-19.5 51.5t19.5 51t48.5 20t48.5 -20t19.5 -51t-19.5 -51.5t-48.5 -20.5zM220 -193q-79 0 -126.5 43t-47.5 120q0 35 16 68t38.5 59.5t44.5 53t35 60t9 70.5h89q7 -51 -12.5 -97t-46.5 -75t-51 -65t-24 -67q0 -39 23 -63t65 -24q59 0 108 54
l57 -52q-76 -85 -177 -85z" />
    <glyph glyph-name="quotedbl.lat" horiz-adv-x="458" 
d="M314 689l-3 -104l-20 -176h-59l-3 31l-4 -31h-59l-20 176l-3 104h171z" />
    <glyph glyph-name="quotesingle.lat" horiz-adv-x="264" 
d="M102 409l-20 176l-3 104h105l-3 -104l-20 -176h-59z" />
    <glyph glyph-name="slash.lat" horiz-adv-x="347" 
d="M11 -160l248 870h70l-248 -870h-70z" />
    <glyph glyph-name="braceleft.lat" horiz-adv-x="315" 
d="M230 -152q-64 0 -92 30t-28 106q0 37 4.5 95.5t4.5 90.5q0 33 -20 54.5t-66 22.5v62q46 1 66 22.5t20 53.5q0 33 -4.5 91.5t-4.5 95.5q0 76 28 106t92 30h50v-56h-24q-37 0 -50.5 -19t-13.5 -66q0 -28 2.5 -85t2.5 -91q0 -51 -14.5 -76.5t-49.5 -34.5v-4q34 -9 49 -35
t15 -76q0 -34 -2.5 -90.5t-2.5 -85.5q0 -47 13.5 -66t50.5 -19h24v-56h-50z" />
    <glyph glyph-name="braceright.lat" horiz-adv-x="315" 
d="M35 -152v56h24q37 0 50.5 18.5t13.5 66.5q0 29 -2.5 85.5t-2.5 90.5q0 50 15 76t49 35v4q-34 9 -49 34.5t-15 76.5q0 34 2.5 91t2.5 85q0 48 -13.5 66.5t-50.5 18.5h-24v56h50q64 0 92 -30t28 -106q0 -37 -4.5 -95.5t-4.5 -91.5q0 -32 20 -53.5t66 -22.5v-62
q-46 -1 -66 -22.5t-20 -54.5q0 -32 4.5 -90.5t4.5 -95.5q0 -76 -28 -106t-92 -30h-50z" />
    <glyph glyph-name="bracketleft.lat" horiz-adv-x="315" 
d="M92 -152v860h188v-56h-112v-748h112v-56h-188z" />
    <glyph glyph-name="bracketright.lat" horiz-adv-x="315" 
d="M35 -152v56h112v748h-112v56h188v-860h-188z" />
    <glyph glyph-name="parenleft.lat" horiz-adv-x="315" 
d="M211 -177q-132 215 -132 455t132 455l63 -28q-112 -189 -112 -427t112 -427z" />
    <glyph glyph-name="parenright.lat" horiz-adv-x="315" 
d="M104 -177l-63 28q112 189 112 427t-112 427l63 28q132 -215 132 -455t-132 -455z" />
    <glyph glyph-name="emdash.lat" horiz-adv-x="800" 
d="M42 218v68h716v-68h-716z" />
    <glyph glyph-name="endash.lat" horiz-adv-x="480" 
d="M42 218v68h396v-68h-396z" />
    <glyph glyph-name="uni2010.lat" horiz-adv-x="317" 
d="M42 214v75h234v-75h-234z" />
    <glyph glyph-name="guillemotleft.lat" horiz-adv-x="444" 
d="M182 63l-136 152v74l136 152l41 -34l-116 -155l116 -156zM349 63l-136 152v74l136 152l41 -34l-116 -155l116 -156z" />
    <glyph glyph-name="guillemotright.lat" horiz-adv-x="444" 
d="M95 63l-41 33l116 156l-116 155l41 34l136 -152v-74zM262 63l-41 33l116 156l-116 155l41 34l136 -152v-74z" />
    <glyph glyph-name="guilsinglleft.lat" horiz-adv-x="277" 
d="M182 63l-136 152v74l136 152l41 -34l-116 -155l116 -156z" />
    <glyph glyph-name="guilsinglright.lat" horiz-adv-x="277" 
d="M95 63l-41 33l116 156l-116 155l41 34l136 -152v-74z" />
    <glyph glyph-name="quotedblbase.lat" horiz-adv-x="458" 
d="M136 138q34 0 53 -26.5t19 -75.5q0 -124 -117 -188l-26 46q41 25 60.5 54t19.5 71q-3 -1 -9 -1q-25 0 -42.5 15.5t-17.5 41.5q0 29 16.5 46t43.5 17zM330 138q34 0 53 -26.5t19 -75.5q0 -124 -117 -188l-26 46q41 25 60.5 54t19.5 71q-3 -1 -9 -1q-25 0 -42.5 15.5
t-17.5 41.5q0 29 16.5 46t43.5 17z" />
    <glyph glyph-name="quotedblleft.lat" horiz-adv-x="458" 
d="M258 522q25 0 42.5 -15.5t17.5 -41.5q0 -29 -16.5 -46t-43.5 -17q-18 0 -34 8q-14 -8 -32 -8q-34 0 -53 26.5t-19 75.5q0 124 117 188l18 -33q21 18 48 33l26 -46q-41 -25 -60.5 -54t-19.5 -71q3 1 9 1zM183 521q1 1 4 1q3 44 20 76q-24 -32 -24 -77z" />
    <glyph glyph-name="quotedblright.lat" horiz-adv-x="458" 
d="M266 698q34 0 53 -26.5t19 -75.5q0 -124 -117 -188l-18 33q-21 -18 -48 -33l-26 46q41 25 60.5 54t19.5 71q-3 -1 -9 -1q-25 0 -42.5 15.5t-17.5 41.5q0 29 16.5 46t43.5 17q18 0 34 -8q14 8 32 8zM271 578q-3 -44 -20 -76q24 32 24 77l-1 -1h-3z" />
    <glyph glyph-name="quoteleft.lat" horiz-adv-x="264" 
d="M128 522q25 0 42.5 -15.5t17.5 -41.5q0 -29 -16.5 -46t-43.5 -17q-34 0 -53 26.5t-19 75.5q0 124 117 188l26 -46q-41 -25 -60.5 -54t-19.5 -71q3 1 9 1z" />
    <glyph glyph-name="quoteright.lat" horiz-adv-x="264" 
d="M136 698q34 0 53 -26.5t19 -75.5q0 -124 -117 -188l-26 46q41 25 60.5 54t19.5 71q-3 -1 -9 -1q-25 0 -42.5 15.5t-17.5 41.5q0 29 16.5 46t43.5 17z" />
    <glyph glyph-name="quotesinglbase.lat" horiz-adv-x="264" 
d="M136 138q34 0 53 -26.5t19 -75.5q0 -124 -117 -188l-26 46q41 25 60.5 54t19.5 71q-3 -1 -9 -1q-25 0 -42.5 15.5t-17.5 41.5q0 29 16.5 46t43.5 17z" />
    <glyph glyph-name="Euro.001" 
d="M441 134l58 -53q-71 -93 -175 -93q-92 0 -155.5 63.5t-82.5 177.5h-64v51l58 4q-1 11 -1 33q0 20 1 30h-58v51l64 4q19 116 85.5 181.5t165.5 65.5q90 0 153 -78l-58 -56q-46 54 -98 54q-58 0 -95.5 -43.5t-50.5 -122.5h243v-56h-248q-1 -9 -1 -27q0 -24 1 -35h208v-56
h-202q14 -77 50 -119t91 -42q63 0 111 66z" />
    <glyph glyph-name="Euro.lat.001" 
d="M441 134l58 -53q-71 -93 -175 -93q-92 0 -155.5 63.5t-82.5 177.5h-64v51l58 4q-1 11 -1 33q0 20 1 30h-58v51l64 4q19 116 85.5 181.5t165.5 65.5q90 0 153 -78l-58 -56q-46 54 -98 54q-58 0 -95.5 -43.5t-50.5 -122.5h243v-56h-248q-1 -9 -1 -27q0 -24 1 -35h208v-56
h-202q14 -77 50 -119t91 -42q63 0 111 66z" />
    <glyph glyph-name="cent.lat" 
d="M464 127q-60 -54 -138 -62v-100h-60v101q-94 12 -149.5 75.5t-55.5 167.5q0 101 57 164.5t148 77.5v103h60v-100q75 -5 129 -58l-48 -63q-38 34 -81 38v-323q48 4 95 43zM160 309q0 -60 28 -101.5t78 -54.5v311q-50 -13 -78 -54.5t-28 -100.5z" />
    <glyph glyph-name="dollar.lat" 
d="M446 171q0 -71 -41 -119t-114 -60v-102h-71v99q-47 5 -93 25.5t-79 51.5l46 69q78 -64 151 -64q51 0 77 24.5t26 68.5q0 40 -28.5 69t-68.5 49t-80.5 42t-69 60t-28.5 90q0 68 40 114.5t107 57.5v101h71v-100q79 -9 144 -77l-53 -59q-30 29 -56 42t-62 13
q-43 0 -68 -23.5t-25 -63.5q0 -36 28.5 -61.5t68.5 -44.5t80.5 -41t69 -62.5t28.5 -98.5z" />
    <glyph glyph-name="Euro.lat" 
d="M441 134l58 -53q-71 -93 -175 -93q-92 0 -155.5 63.5t-82.5 177.5h-64v51l58 4q-1 11 -1 33q0 20 1 30h-58v51l64 4q19 116 85.5 181.5t165.5 65.5q90 0 153 -78l-58 -56q-46 54 -98 54q-58 0 -95.5 -43.5t-50.5 -122.5h243v-56h-248q-1 -9 -1 -27q0 -24 1 -35h208v-56
h-202q14 -77 50 -119t91 -42q63 0 111 66z" />
    <glyph glyph-name="florin.lat" 
d="M397 585q-73 0 -86 -115l-7 -60h119v-76h-128l-25 -223q-11 -100 -49.5 -154t-122.5 -54q-49 0 -76 15l16 76q21 -10 48 -10q42 1 62.5 36t28.5 116l22 198h-84v71l71 5h21l6 52q12 105 53 155t125 50q42 0 80 -18l-20 -77q-30 13 -54 13z" />
    <glyph glyph-name="sterling.lat" 
d="M191 86h275v-86h-414v62q50 26 78 71.5t28 100.5q0 20 -5 47h-100v62l67 4h15q-24 76 -24 112q0 87 53.5 138.5t140.5 51.5q96 0 160 -77l-57 -56q-42 50 -95 50q-49 0 -76.5 -30t-27.5 -81q0 -34 20 -108h156v-66h-141q4 -30 4 -48q0 -83 -57 -143v-4z" />
    <glyph glyph-name="yen.lat" 
d="M202 0v155h-159v54h159v62h-159v54h135l-158 312h105l70 -160q9 -20 27.5 -65t29.5 -69h4q11 25 30.5 70t27.5 64l70 160h102l-159 -312h136v-54h-160v-62h160v-54h-160v-155h-101z" />
    <glyph glyph-name="uni2215.lat" horiz-adv-x="89" 
d="M-168 -12l359 679h64l-359 -679h-64z" />
    <glyph glyph-name="percent.lat" horiz-adv-x="834" 
d="M185 263q-69 0 -111 55t-42 153q0 97 42 151.5t111 54.5t111 -54.5t42 -151.5q0 -98 -42 -153t-111 -55zM202 -12l359 679h64l-359 -679h-64zM185 323q36 0 57.5 37.5t21.5 110.5t-21.5 109.5t-57.5 36.5t-57.5 -36.5t-21.5 -109.5t21.5 -110.5t57.5 -37.5zM644 -12
q-69 0 -111 55t-42 153q0 97 42 151.5t111 54.5t111 -54.5t42 -151.5q0 -98 -42 -153t-111 -55zM644 48q36 0 57.5 37.5t21.5 110.5t-21.5 109.5t-57.5 36.5t-57.5 -36.5t-21.5 -109.5t21.5 -110.5t57.5 -37.5z" />
    <glyph glyph-name="perthousand.lat" horiz-adv-x="1210" 
d="M195 260q-69 0 -111 55t-42 153q0 97 42 151.5t111 54.5t111 -54.5t42 -151.5q0 -98 -42 -153t-111 -55zM202 -12l359 679h64l-359 -679h-64zM195 320q36 0 57.5 37.5t21.5 110.5t-21.5 109.5t-57.5 36.5t-57.5 -36.5t-21.5 -109.5t21.5 -110.5t57.5 -37.5zM642 -12
q-69 0 -111 55t-42 153q0 97 42 151.5t111 54.5t111 -54.5t42 -151.5q0 -98 -42 -153t-111 -55zM1010 -12q-69 0 -111 55t-42 153q0 97 42 151.5t111 54.5t111 -54.5t42 -151.5q0 -98 -42 -153t-111 -55zM642 48q36 0 57.5 37.5t21.5 110.5t-21.5 109.5t-57.5 36.5
t-57.5 -36.5t-21.5 -109.5t21.5 -110.5t57.5 -37.5zM1010 48q36 0 57.5 37.5t21.5 110.5t-21.5 109.5t-57.5 36.5t-57.5 -36.5t-21.5 -109.5t21.5 -110.5t57.5 -37.5z" />
    <glyph glyph-name="uni0327.cap.001" horiz-adv-x="0" 
 />
    <glyph glyph-name="uni0327.cap.002" horiz-adv-x="0" 
 />
    <glyph glyph-name="uni0327.cap.003" horiz-adv-x="0" 
 />
    <glyph glyph-name="uni0327.cap.004" horiz-adv-x="0" 
 />
    <glyph glyph-name="uni0327.cap.005" horiz-adv-x="0" 
 />
    <glyph glyph-name="uni0308.cap" horiz-adv-x="0" 
d="M-105 711q-24 0 -39.5 15.5t-15.5 39.5t15.5 39.5t39.5 15.5t39.5 -15.5t15.5 -39.5t-15.5 -39.5t-39.5 -15.5zM105 711q-24 0 -39.5 15.5t-15.5 39.5t15.5 39.5t39.5 15.5t39.5 -15.5t15.5 -39.5t-15.5 -39.5t-39.5 -15.5z" />
    <glyph glyph-name="uni0307.cap" horiz-adv-x="0" 
d="M0 710q-28 0 -46.5 17t-18.5 44q0 26 18.5 43t46.5 17t46.5 -17t18.5 -43q0 -27 -18.5 -44t-46.5 -17z" />
    <glyph glyph-name="gravecomb.cap" horiz-adv-x="0" 
d="M15 692l-161 116l56 67l150 -132z" />
    <glyph glyph-name="acutecomb.cap" horiz-adv-x="0" 
d="M-15 692l-45 51l150 132l56 -67z" />
    <glyph glyph-name="uni030B.cap" horiz-adv-x="0" 
d="M-60 700l-52 25l95 155l67 -38zM108 700l-52 25l95 155l67 -38z" />
    <glyph glyph-name="uni0302.cap" horiz-adv-x="0" 
d="M-110 695l-44 30l100 112h108l100 -112l-44 -30l-108 90h-4z" />
    <glyph glyph-name="uni030C.cap" horiz-adv-x="0" 
d="M-54 705l-100 112l44 30l108 -90h4l108 90l44 -30l-100 -112h-108z" />
    <glyph glyph-name="uni0306.cap" horiz-adv-x="0" 
d="M0 703q-68 0 -106.5 36t-44.5 95l59 10q6 -36 29.5 -57.5t62.5 -21.5t62.5 21.5t29.5 57.5l59 -10q-6 -59 -44.5 -95t-106.5 -36z" />
    <glyph glyph-name="uni030A.cap" horiz-adv-x="0" 
d="M0 698q-45 0 -73.5 25.5t-28.5 67.5t28.5 67.5t73.5 25.5t73.5 -25.5t28.5 -67.5t-28.5 -67.5t-73.5 -25.5zM0 740q20 0 34 14t14 37t-14 37t-34 14q-21 0 -35 -14t-14 -37t14 -37t35 -14z" />
    <glyph glyph-name="tildecomb.cap" horiz-adv-x="0" 
d="M74 704q-32 0 -59 17t-48 33.5t-38 16.5q-39 0 -45 -61l-67 5q3 62 32 95.5t77 33.5q32 0 59 -17t48 -33.5t38 -16.5q38 0 45 61l67 -5q-3 -62 -32 -95.5t-77 -33.5z" />
    <glyph glyph-name="uni0304.cap" horiz-adv-x="0" 
d="M-139 731v68h278v-68h-278z" />
    <glyph glyph-name="uni0327.cap" horiz-adv-x="0" 
 />
    <glyph glyph-name="alphalatin" horiz-adv-x="560" 
d="M246 -12q-92 0 -146.5 68t-54.5 188q0 115 62.5 186t148.5 71q72 0 135 -60h3l8 48h81v-386q0 -32 20 -32q7 0 15 2l1 -77q-19 -8 -46 -8q-64 0 -78 70h-3q-28 -30 -67 -50t-79 -20zM270 72q59 0 112 60v240q-50 45 -108 45q-53 0 -89 -47t-36 -125q0 -83 31.5 -128
t89.5 -45z" />
    <glyph glyph-name="gammalatin" horiz-adv-x="483" 
d="M302 45h-11q16 -81 16 -142q0 -47 -18 -78t-45 -31t-45 31t-18 78q0 61 16 142h-12l-173 444h103l84 -244q7 -22 21.5 -60.5t21.5 -60.5h4q7 22 21.5 60.5t21.5 60.5l84 244h98z" />
    <glyph glyph-name="ismall" horiz-adv-x="357" 
d="M48 0v81h80v327h-80v81h261v-81h-80v-327h80v-81h-261z" />
    <glyph glyph-name="rsmall" 
d="M479 0h-112l-109 183h-80v-183h-101v489h182q190 0 190 -150q0 -103 -98 -140zM178 413v-158h66q49 0 76.5 21.5t27.5 60.5q0 76 -104 76h-66z" />
    <glyph glyph-name="rsmallinverted" 
d="M328 489h101v-489h-181q-190 0 -190 151q0 104 98 141l-129 197h113l108 -181h80v181zM328 77v160h-65q-50 0 -77.5 -22t-27.5 -61q0 -77 105 -77h65z" />
    <glyph glyph-name="upsilonlatin" horiz-adv-x="546" 
d="M273 -12q-103 0 -165 65.5t-62 153.5q0 119 82 199v2h-93v81h194v-65q-81 -76 -81 -195q0 -68 32.5 -113t92.5 -45t92.5 45t32.5 113q0 118 -80 195v65h193v-81h-93v-2q82 -80 82 -199q0 -89 -61.5 -154t-165.5 -65z" />
    <glyph glyph-name="glottalstopreversedsupmod" horiz-adv-x="314" 
d="M133 389v183q-55 39 -82 74.5t-27 86.5q0 63 42 97t106 34q78 0 130 -58l-38 -47q-36 45 -85 45q-38 0 -59.5 -19.5t-21.5 -53.5q0 -37 25 -66t84 -64v-212h-74z" />
    <glyph glyph-name="litre" horiz-adv-x="427" 
d="M384 117l39 -62q-73 -67 -146 -67q-66 0 -113.5 43t-55.5 120q-16 -11 -50 -33l-40 63q51 32 89 60v256q0 113 43 168.5t115 55.5q63 0 101.5 -42t38.5 -116q0 -178 -199 -340v-32q0 -60 24 -89t62 -29q44 0 92 44zM268 645q-27 0 -44.5 -33t-17.5 -99v-188
q114 114 114 237q0 83 -52 83z" />
    <glyph glyph-name="ZWNJ" horiz-adv-x="0" 
d="M-81 767l-23 25l78 83l-78 82l23 27l81 -84l79 82l24 -25l-79 -82l79 -83l-24 -24l-79 80z" />
    <glyph glyph-name="ZWJ" horiz-adv-x="0" 
d="M-150 785v109h301v-109h-34v73h-233v-73h-34z" />
    <glyph glyph-name="lefttorightembed" horiz-adv-x="0" 
d="M39 767l-25 25l63 66h-76v36h76l-63 63l25 27l105 -109zM-129 858v36h88v-36h-88z" />
    <glyph glyph-name="righttoleftembed" horiz-adv-x="0" 
d="M-39 768l-105 107l105 109l25 -26l-63 -64h76v-36h-75l62 -66zM41 858v36h88v-36h-88z" />
    <glyph glyph-name="popdirectionformat" horiz-adv-x="0" 
d="M-19 765v159l-60 -63l-25 26l104 107l104 -107l-25 -26l-62 64v-160h-36z" />
    <glyph glyph-name="circledotted" horiz-adv-x="583" 
d="M474 395q0 -18 -10 -28.5t-27 -10.5q-23 0 -32 19q-9 -6 -21 -6q-15 0 -25.5 11t-10.5 29v1h-4q-16 0 -26.5 11t-10.5 28q0 18 10.5 28.5t26.5 10.5t27 -10.5t11 -28.5v-3h2q24 0 33 -18q10 5 20 5q16 0 26.5 -10t10.5 -28zM186 475q16 0 26.5 -10t10.5 -29
q0 -18 -10 -28t-27 -10q-16 0 -26.5 10.5t-10.5 27.5q0 19 10.5 29t26.5 10zM107 394q17 0 27.5 -10t10.5 -28q0 -19 -10.5 -29.5t-27.5 -10.5q-15 0 -25.5 11t-10.5 29t10.5 28t25.5 10zM118 245q0 -39 -39 -39q-15 0 -25.5 10.5t-10.5 28.5t10.5 28t25.5 10q39 0 39 -38z
M503 283q16 0 27 -10t11 -28t-10.5 -28.5t-27.5 -10.5q-16 0 -26.5 10.5t-10.5 28.5t10.5 28t26.5 10zM107 174q17 0 27.5 -10.5t10.5 -28.5t-10.5 -28t-27.5 -10q-15 0 -25.5 10.5t-10.5 27.5q0 18 10.5 28.5t25.5 10.5zM476 174q16 0 26.5 -10.5t10.5 -28.5q0 -38 -37 -38
q-16 0 -26.5 10.5t-10.5 27.5q0 18 10.5 28.5t26.5 10.5zM186 92q16 0 26.5 -10t10.5 -27q0 -40 -37 -40q-16 0 -26.5 10.5t-10.5 29.5q0 17 10.5 27t26.5 10zM397 92q16 0 27 -10t11 -27q0 -40 -38 -40q-15 0 -25.5 10.5t-10.5 29.5q0 17 10.5 27t25.5 10zM291 65
q17 0 27.5 -10t10.5 -28q0 -19 -10.5 -29.5t-27.5 -10.5q-15 0 -25.5 11t-10.5 29q0 17 10.5 27.5t25.5 10.5z" />
    </font>
</defs>
</svg>
